<?xml version="1.0" standalone="no"?>
<!DOCTYPE svg PUBLIC "-//W3C//DTD SVG 1.1//EN" "http://www.w3.org/Graphics/SVG/1.1/DTD/svg11.dtd" >
<svg xmlns="http://www.w3.org/2000/svg" xmlns:xlink="http://www.w3.org/1999/xlink" version="1.1">
<metadata>
Created by FontForge 20170731 at Wed Jun 15 18:58:00 2022
 By Aleksey,,,
Copyright 2020 The Rubik Filtered Project Authors (https://github.com/NaN-xyz/Rubik-Filtered)
</metadata>
<defs>
<font id="RubikIso-Regular" horiz-adv-x="0" >
  <font-face 
    font-family="Rubik Iso"
    font-weight="400"
    font-stretch="normal"
    units-per-em="1000"
    panose-1="0 0 0 0 0 0 0 0 0 0"
    ascent="800"
    descent="-200"
    x-height="495"
    cap-height="720"
    bbox="-225 -315 1260 945"
    underline-thickness="50"
    underline-position="-150"
    unicode-range="U+0020-FB4B"
  />
<missing-glyph horiz-adv-x="695" 
d="M102 -117q-22 0 -22 22v891q0 22 22 22h491q22 0 22 -22v-891q0 -22 -22 -22h-491zM141 -9l377 769h-377v-769zM181 -59h373v762z" />
    <glyph glyph-name="fi" unicode="fi" horiz-adv-x="785" 
d="M720 630v90l45 -45v-45h-45zM90 540v90l45 45v45h90l45 45h495v-45h-495v-45h-90l-45 -45v-90h-45zM720 360v90l45 -45v-45h-45zM720 270v90l45 -45v-45h-45zM720 180v90l45 -45v-45h-45zM90 0v315h-45l-45 45v180h90l45 -45h-90v-135h45l45 -45v-270h180v315h180l45 -45
v-270h180v-45h-225v315h-135v-270l-45 -45h-225zM720 90v90l45 -45v-45h-45zM720 45v45l45 -45h-45zM360 495l-45 45l45 45h360v45l45 -45l-45 -45l45 -45v-45h-45v45h-360z" />
    <glyph glyph-name="fl" unicode="fl" horiz-adv-x="797" 
d="M630 720v45h135v-45h-135zM720 630v90l45 -45v-45h-45zM720 540v90l45 -45v-45h-45zM720 450v90l45 -45v-45h-45zM450 540h45v45zM720 360v90l45 -45v-45h-45zM720 270v90l45 -45v-45h-45zM720 180v90l45 -45v-45h-45zM720 90v90l45 -45v-45h-45zM90 0v315h-45l-45 45
v180h90v90l45 45v45h90l45 45h225v-45l45 45h90l-45 -45h-45v-225h-180l-45 45l45 45h90v135h-180v-45h-90l-45 -45v-135h-90v-135h45l45 -45v-270h180v315h180l45 -45v-270h180v45l45 -45l-45 -45h-225v315h-135v-270l-45 -45h-225z" />
    <glyph glyph-name="f_f" unicode="ff" horiz-adv-x="904" 
d="M450 540h45v45zM855 360v90l45 -45v-45h-45zM90 0v315h-45l-45 45v180h90v90l45 45v45h90l45 45h225v-135l45 45v45h90l45 45h225v-45h-225v-45h-90l-45 -45v-135h-180l-45 45l45 45h90v135h-180v-45h-90l-45 -45v-135h-90v-135h45l45 -45v-270h180v315h180l45 -45v-270
h180v315h135l45 -45h-135v-270l-45 -45h-225v315h-135v-270l-45 -45h-225zM720 540l45 45h135v-45h-45l45 -45v-45h-45v45h-90z" />
    <glyph glyph-name="f_f_i" unicode="ffi" horiz-adv-x="1197" 
d="M1125 630v90l45 -45v-45h-45zM450 540h45v45zM1125 360v90l45 -45zM1125 270v90l45 -45zM1125 180v90l45 -45v-45h-45zM1125 90v90l45 -45v-45h-45zM90 0v315h-45l-45 45v180h90v90l45 45v45h90l45 45h225v-135l45 45v45h90l45 45h495v-45h-495v-45h-90l-45 -45v-135
h-180l-45 45l45 45h90v135h-180v-45h-90l-45 -45v-135h-90v-135h45l45 -45v-270h180v315h180l45 -45v-270h180v315h180l45 -45v-270h180v45l45 -45l-45 -45h-225v315h-135v-270l-45 -45h-225v315h-135v-270l-45 -45h-225zM720 540l45 45h360v45l45 -45l-45 -45l45 -45v-45
h-45v45h-360z" />
    <glyph glyph-name="f_f_l" unicode="ffl" horiz-adv-x="1209" 
d="M1125 630v90l45 -45v-45h-45zM1125 540v90l45 -45v-45h-45zM1125 450v90l45 -45v-45h-45zM1125 360v90l45 -45v-45h-45zM1125 270v90l45 -45v-45h-45zM90 0v315h45v-270zM1125 180v90l45 -45v-45h-45zM1125 90v90l45 -45v-45h-45zM135 0v45h180v315h180l45 -45v-270h180
v315h180l45 -45v-270h180v45l45 -45l-45 -45h-225v315h-135v-270l-45 -45h-225v315h-135v-270l-45 -45h-180zM855 540h45v45zM450 540h45v45zM45 315l-45 45v180h90v90l45 45v45h90l45 45h225v-135l45 45v45h90l45 45h225v-45l45 45h225v-45h-225v-225h-180l-45 45l45 45h90
v135h-180v-45h-90l-45 -45v-135h-180l-45 45l45 45h90v135h-180v-45h-90l-45 -45v-135h-90v-135l45 -45h-45z" />
    <glyph glyph-name=".notdef" horiz-adv-x="695" 
d="M102 -117q-22 0 -22 22v891q0 22 22 22h491q22 0 22 -22v-891q0 -22 -22 -22h-491zM141 -9l377 769h-377v-769zM181 -59h373v762z" />
    <glyph glyph-name=".null" 
 />
    <glyph glyph-name="nonmarkingreturn" horiz-adv-x="333" 
 />
    <glyph glyph-name="space" unicode=" " horiz-adv-x="186" 
 />
    <glyph glyph-name="exclam" unicode="!" horiz-adv-x="330" 
d="M270 540v90l45 -45v-45h-45zM270 450v90l45 -45v-45h-45zM270 360v90l45 -45v-45h-45zM225 180v90l45 45v45l45 -45l-45 -45v-45h45v-45h-90zM270 90v90l45 -45v-45h-45zM270 45v45l45 -45h-45zM45 0v720h225l45 -45v-45h-45v45h-180v-630h180v-45h-225z" />
    <glyph glyph-name="quotedbl" unicode="&#x22;" horiz-adv-x="519" 
d="M450 450v225h-135v-225h135zM180 450v180h45v45h-180v-135l45 -45v-45h90zM90 405l-45 45v45l-45 45v180h225l45 -45v45h180l45 -45v-270h-180l-45 45v135h-45v-180h-135z" />
    <glyph glyph-name="numbersign" unicode="#" horiz-adv-x="677" 
d="M540 585v45h45v-45h45l45 -45h-90zM360 540l-45 45v45h45v-45h45v45h45v-90h-90zM630 450v45l45 -45h-45zM360 315v45h-45v-45h45zM90 45v90h-90v180h135v45h-45l-45 45v180h90l45 45h45l-45 -45v-45h-90v-135h45l45 -45v-90h-135v-90h90v-135h90v90h45l45 45h45v-135h90
l45 45v45l45 45h45v90h-45l-45 45v90h90l45 45v-90h-90v-45h45l45 -45v-90l-45 -45h-45v-45l-45 -45v-45h-135l-45 45v45h-45v-90h-135zM270 315v90h90l45 -45v-90h-90z" />
    <glyph glyph-name="dollar" unicode="$" horiz-adv-x="711" 
d="M270 450v90h90l45 -45h225v45h-45v90h-90v45h-45l-45 45v45h45v-45h45l45 -45h90v-90h45v-90l-45 -45h-90l45 -45h90v-135h-45v90h-90v45h-135l-45 45h-90zM675 225v45l45 -45h-45zM0 90v90l45 45v45h45v45l-45 45v45l-45 45v90h45v90h45l45 45v45h90v45h45v-90h-90
l-45 -45v-45h-45v-90h-45v-45l45 -45v-45l45 -45h135v-45h135l45 -45l-45 -45h-180v45h-135l-45 -45v-45h45v-45l45 -45h135v-135h-45v90h-135v45l-45 45h-45zM315 -135l-45 45h135v90h45l45 45h45v45h90v90h45l45 -45h-45v-90h-90l-45 -45h-45v-45h-45v-90h-135z" />
    <glyph glyph-name="percent" unicode="%" horiz-adv-x="846" 
d="M450 270h45v45zM810 135v45l45 -45h-45zM585 180l45 45v45h45l45 -45v-90l-45 -45h-45v45zM135 450v180h45l45 -45v-90l-45 -45h-45zM630 180l45 -45v90zM90 0v90h45v90h45l45 45v45h45v45h-135l-45 45h-45v45l-45 45v180l45 45h45l-45 -45v-180l45 -45h45v-45h90l45 45
h45v225h-45v45h90v-225h45v90h45l45 45v45h45v45h45v-90h-45l-45 -45v-45h-45v-90h-45l-45 -45v-45h-45v-90h-45l-45 -45v-45h-45v-90h90v45l45 45v45h45l45 45v45l45 45v45h45l45 45v45l45 45v45h45l45 45v45l45 45h45l-45 -45v-45l-45 -45v-45h-45l-45 -45v-45l-45 -45
h225l45 -45v-45l45 -45h-45l-45 45v45h-225v-90h-45v-90h45v-90h90v-45h45l45 45h45v45h45l45 -45h-45l-45 -45h-45v-45h-90l-45 45h-90v90h-45v135l-45 -45v-45h-45l-45 -45v-45l-45 -45h-180z" />
    <glyph glyph-name="ampersand" unicode="&#x26;" horiz-adv-x="783" 
d="M315 450v90l45 45h45v-90l-45 -45h-45zM450 270v90l45 45v45h45v180h-90v45h135v-270h-45l-45 -45v-45h45v45l45 45h180v-180h-45l-45 -45v-45h-45v45l45 45v45h45v90h-135v-45l-45 -45h-90zM270 225v-45h45v45h-45zM0 90v180h45v90h45l45 45l-45 45v180h45l45 45h45
l-45 -45v-45h-45v-135l45 -45l-45 -45v-45h-45v-90h-45v-90h45v-45l45 -45h90v-45h180l45 45h270l-45 45v45h45v-45l45 -45l-45 -45h-270v-45h-225l-45 45h-90v45l-45 45h-45zM225 180v90h90l45 -45h45v-90h-135z" />
    <glyph glyph-name="quotesingle" unicode="'" horiz-adv-x="264" 
d="M90 405l-45 45v45l-45 45v180h225l45 -45h-225v-135l45 -45v-45h90v180h45l45 -45h-45v-180h-135z" />
    <glyph glyph-name="parenleft" unicode="(" horiz-adv-x="423" 
d="M45 45v90h-45v360h45v90l45 45v45l45 45h45v45h135v-45h-90l-45 -45h-45v-45l-45 -45v-135h-45v-270h45v-135l45 -45v-45l45 -45h90v-45h45l45 -45h-90l-45 45h-90v45l-45 45v45zM225 135v360l45 45v45h45l45 45v135h45v-135l-45 -45v-45h-45l-45 -45v-360l45 -45v-45h45
l45 -45v-180h-45v180h-45l-45 45v45z" />
    <glyph glyph-name="parenright" unicode=")" horiz-adv-x="423" 
d="M315 540v90h-45v45l-45 45h-90v45h135v-45l45 -45h45v-90h45v-45h-90zM360 450v90l45 -45v-45h-45zM360 360v90l45 -45v-45h-45zM360 270v90l45 -45v-45h-45zM360 180v90l45 -45v-45h-45zM360 90v90l45 -45v-45h-45zM0 0l45 45h45v45h45v180h45v90h-45v180h-90v45l-45 45
v135h45v-135l45 -45h90v-180h45v-180h-45v-180h-45l-45 -45h-45v-135h135v45h45l45 45v45h45v90h45l45 -45h-45v-90h-45l-45 -45v-45h-45l-45 -45h-180v180z" />
    <glyph glyph-name="asterisk" unicode="*" horiz-adv-x="444" 
d="M90 360v45l-45 45l45 45h-45l-45 45v90h45l45 45h45v45h45v-45l-45 -45h-45v-45h-45v-45h45l45 -45l-45 -45l45 -45h45v45h45l45 -45h45v135h45v90h-90v90h45v-45h90v-135l45 -45h-45v-90h-45l-45 -45h-90v45l-45 -45h-90z" />
    <glyph glyph-name="plus" unicode="+" horiz-adv-x="594" 
d="M360 405v135h45v-135h135v-45h-135zM540 270v45l45 -45h-45zM180 45v135h-90l-45 45h-45v180h180v135h45v-180h-180v-90h45v-45h90l45 -45v-135h135v180h180l45 -45h-180v-180h-180z" />
    <glyph glyph-name="comma" unicode="," horiz-adv-x="303" 
d="M225 180v45h45v-45h-45zM225 90v90l45 -45v-45h-45zM45 -45h135v135h45l45 -45h-45v-90l-45 -45h-180v180l45 45v90h45v-90l-45 -45v-135z" />
    <glyph glyph-name="hyphen" unicode="-" horiz-adv-x="471" 
d="M405 270v90l45 -45v-45h-45zM45 180v180l45 45h360v-45h-360v-135h315v45l45 -45l-45 -45h-360z" />
    <glyph glyph-name="period" unicode="." horiz-adv-x="312" 
d="M270 90v45l45 -45h-45zM0 45v180h45l45 45h180v-45l45 -45h-45l-45 45h-135v-45h-45v-135h225l45 -45h-270z" />
    <glyph glyph-name="slash" unicode="/" horiz-adv-x="579" 
d="M495 630v90l45 -45v-45h-45zM0 0l45 45v45l45 45v45l45 45v135h45v90h45v90l45 45v45l45 45v45l45 45v45h135l45 -45h-135l-45 -45v-45l-45 -45v-45l-45 -45v-135h-45v-90h-45v-90l-45 -45v-45l-45 -45v-45l-45 -45v-45h135v45h45v90h45v90h45v90l45 45v45l45 45v135h45
v90h45l45 -45h-45v-90h-45v-90l-45 -45v-45l-45 -45v-135h-45v-90h-45v-90h-45l-45 -45h-180v90z" />
    <glyph glyph-name="zero" unicode="0" horiz-adv-x="718" 
d="M0 450l45 45v135h45l45 45h90l-45 -45h-45v-45h-45v-90l-45 -45h-45zM405 225v225h-45v45l-45 -45v-225h90zM45 90v135l-45 45v180l45 -45v-135l45 -45v-90h45v-45l45 -45h90v-45h180l45 45h45v45h45l45 45v450l-45 45h-90v45h135v-45l45 -45v-450l-45 -45v-45h-45
l-45 -45h-45v-45h-225l-45 45h-90v45l-45 45h-45zM270 180v270l45 45v45h45l45 -45h45v-270l-45 -45h-135z" />
    <glyph glyph-name="one" unicode="1" horiz-adv-x="557" 
d="M225 0v405l-45 -45v-45h-45l-45 45h-45v45l-45 45v90h45l45 45v45h90l45 45v45h225l45 -45h-225l-45 -45v-45h-90l-45 -45v-45h-45v-45l45 -45h45v-45l45 45v45h45l45 -45v-360h225v-45h-270z" />
    <glyph glyph-name="two" unicode="2" horiz-adv-x="704" 
d="M630 450v45l45 -45h-45zM0 45v90l45 45v45h45l45 45v45h90l45 45v45h45l45 45v45h-45v-45l-45 -45h-225v180l45 45v45h90l45 45h315v-45h45l45 -45v-45l45 -45h-45l-45 45v45h-45l-45 45h-270v-45h-90l-45 -45v-135h180v45l45 45h90v-90l-45 -45v-45h-45l-45 -45v-45h-90
l-45 -45v-45h-45l-45 -45v-90h585l45 -45h-630zM450 225l45 45v45h45l45 45v45h45l45 -45h-45l-45 -45v-45h-45l-45 -45h135l45 -45h-180zM630 90v45l45 -45h-45z" />
    <glyph glyph-name="three" unicode="3" horiz-adv-x="709" 
d="M0 90v90l45 45h360l-45 45h-180v180h45l45 45h-180l-45 45v135h45v-135h225l45 -45l-45 -45h-45v-45h-45v-90h180v-45l45 -45l-45 -45h-360v-45h45v-45l45 -45h135v-45h180l45 45h45v45h45l45 45v180l-45 45h-45v45l-45 45l45 45h45v45h45v135h45v-180h-45l-45 -45h-45
l45 -45h45v-45l45 -45v-180l-45 -45v-45h-45l-45 -45h-45v-45h-225l-45 45h-135v45l-45 45h-45z" />
    <glyph glyph-name="four" unicode="4" horiz-adv-x="735" 
d="M270 315h45v45zM45 315v-180h270l45 -45v-45h225v90h90v180h-90v360h-270v-45l-45 -45v-45h-45l-45 -45v-45l-45 -45v-45h-45zM270 270l-45 45l45 45v45h45l45 -45v-90h-90zM45 90l-45 45v180l45 45v45h45l45 45v45l45 45v45h45l45 45v45l45 45h315v-360h90v-270h-90v-90
h-270l-45 45v45h-270z" />
    <glyph glyph-name="five" unicode="5" horiz-adv-x="690" 
d="M270 450v90h315v135h45v-180h-90v-45h45l45 -45v-45l45 -45v-45h-45v45l-45 45v45h-45l-45 45h-225zM270 270l45 -45h45v45h-90zM0 90v180h45v270l45 45v90h45v-90l-45 -45v-225h315v-90l-45 -45h-90v45h-225v-90h45v-45l45 -45h135v-45h180l45 45h45v45h45l45 45v135
l45 -45v-90l-45 -45v-45h-45l-45 -45h-45v-45h-225l-45 45h-135v45l-45 45h-45z" />
    <glyph glyph-name="six" unicode="6" horiz-adv-x="692" 
d="M450 450l-45 45v90h45l45 45v45h90v-45h-45l-45 -45v-45h-45v-45h90l45 -45h45v-45l45 -45v-45h-45v45l-45 45h-45v45h-90zM630 225v90l45 -45v-45h-45zM630 135v90l45 -45v-45h-45zM315 270v-45h90v45h-90zM0 135v180l45 45v45l45 45v45h45v90h45l45 45v45h90v-45h-45
l-45 -45v-45h-45v-90h-45l-45 -45v-45l-45 -45v-135h45l-45 -45h-45zM45 45v90h45v-45h45v-45h90l45 -45h135v45h135l45 45v45h45l45 -45h-45l-45 -45v-45h-135l-45 -45h-180v45h-90l-45 45h-45zM270 225v90h135l45 -45v-90h-135z" />
    <glyph glyph-name="seven" unicode="7" horiz-adv-x="625" 
d="M585 630v45l45 -45h-45zM585 540v45l45 -45h-45zM90 45l45 45v45l45 45v45l45 45v135h45v90h-270v180l45 45h540v-45h-540v-135h315v-90h-45v-90h-45v-90l-45 -45v-45l-45 -45v-45l-45 -45h225v90h45v90h45v90h45v90h45v90h45l45 -45h-45v-90h-45v-90h-45v-90h-45v-90
h-45v-90h-270z" />
    <glyph glyph-name="eight" unicode="8" horiz-adv-x="712" 
d="M360 450l45 45l-45 45v-45h-45v-45h45zM630 270v45l-45 45v90h45v90h-45v90h-90v45h135v-90h45v-180h-45v-45l45 -45v-45l45 -45h-45zM315 225v-45h90v45l-45 45v-45h-45zM90 0v45l-45 45v45l-45 45v90l45 45v315h45l45 45h45l-45 -45v-45h-45v-180h45v-90h-45l-45 -45
v-90l45 -45v-45l45 -45h135v-45h180l45 45h45v45h90v90l45 45v-180h-90l-45 -45h-45v-45h-225l-45 45h-135zM315 405l-45 45v90h45l45 45h45v-45l45 -45l-45 -45v-45h-90zM270 180v90h45l45 45h45v-45l45 -45v-90h-135z" />
    <glyph glyph-name="nine" unicode="9" horiz-adv-x="683" 
d="M585 540v90h-90v90l45 -45h90v-90h45v-45h-90zM630 450v90l45 -45v-45h-45zM630 360v90l45 -45v-45h-45zM360 405v90h-45v-90h45zM135 0v90h45l45 -45h180v45h45v90h45l45 45v45l45 45v45h45l45 -45h-45l-45 -45v-45l-45 -45v-45h-45v-90h-45l-45 -45h-270zM270 360v180
h90l45 -45v-90l-45 -45h-90zM180 90v135h-45l-45 45h-45v45l-45 45v180l45 45v45h45l45 45v45h315l45 -45h-315l-45 -45v-45h-45l-45 -45v-180l45 -45h45v-45h45l45 -45h45v-90h-45v-45h-45z" />
    <glyph glyph-name="colon" unicode=":" horiz-adv-x="322" 
d="M225 540v45h90v-45h-90zM270 450v90l45 -45v-45h-45zM90 315l-45 45v180l45 45h135l-45 -45h-90v-180h135l45 45v45l45 -45l-45 -45v-45h-180zM270 90v90l45 -45v-45h-45zM45 0v180l45 45h225v-45h-225v-135h180v45l45 -45l-45 -45h-225z" />
    <glyph glyph-name="semicolon" unicode=";" horiz-adv-x="325" 
d="M45 450v90l45 45h180v-45h-180v-90h-45zM90 315l-45 45v90l45 -45v-45h135l45 -45h-180zM225 90v90l45 -45v-45h-45zM0 90l45 45v135h180l45 -45v-45h-45v45h-135v-90l-45 -45v-135h135v135h45l45 -45h-45v-90l-45 -45h-180v180z" />
    <glyph glyph-name="less" unicode="&#x3c;" horiz-adv-x="538" 
d="M90 180v45l-45 45h-45v90l45 45v45h90l45 45v-90h-90l-45 -45v-45h45v-45l45 -45h45v-45h45l45 -45h45v-45h45l45 -45h45v135h-45v45l-45 45h-90v90h45l45 45v45h90v135h-90l-45 -45v-45h-135v45h90l45 45v45h180v-225h-90l-45 -45v-45h45v-45l45 -45h45v-270h-45l-45 45
h-45v45h-45l-45 45h-45v45h-45l-45 45h-45z" />
    <glyph glyph-name="equal" unicode="=" horiz-adv-x="563" 
d="M495 360v90l45 -45v-45h-45zM90 315l-45 45v180h450l45 -45v-45h-45v45h-405v-135h405l45 -45h-450zM45 90v180h450l45 -45v-45h-45v45h-405v-90h405v45l45 -45l-45 -45h-450z" />
    <glyph glyph-name="greater" unicode="&#x3e;" horiz-adv-x="538" 
d="M45 135v90h45l45 45v45h45v45h-45l-45 45h-45v225h180v-45l45 -45h90v-45l45 -45h90v-45l45 -45v-45h-45v45l-45 45h-90v45l-45 45h-90v45l-45 45h-90v-135h45v-45h45l45 -45h45v-90h-90l-45 -45v-45h-45v-45h-45zM45 -45v180l45 -45v-45h45l45 45h45v45h45l45 45h45v45
h45l45 45v45h45l45 -45h-45l-45 -45v-45h-45l-45 -45h-45v-45h-45l-45 -45h-45v-45h-45l-45 -45h-45z" />
    <glyph glyph-name="question" unicode="?" horiz-adv-x="653" 
d="M225 315v-45h225v45h45l45 45v45h45v180h-45v45l-45 45h-315v-45h-45l-45 -45v-45h-45v-45h225l45 45h45v-90l-45 -45v-45h-45zM225 180v-135h180v135h-180zM180 45v270l45 45v45h45l45 45h-270l-45 45v90h45l45 45v45h45l45 45h360v-45l45 -45h45v-270h-45l-45 -45v-45
h-45l-45 -45h-45l45 -45v-180h-225z" />
    <glyph glyph-name="at" unicode="@" horiz-adv-x="856" 
d="M585 630l-45 45h90l45 -45h90v-45l45 -45v-135h-45v135l-45 45h-90v45h-45zM810 360v45l45 -45h-45zM810 270v45l45 -45h-45zM810 180v45l45 -45h-45zM450 225v90h-45v-90h45zM270 495h315l45 -45v-225h45v225l-45 45h-45v45h-270zM225 135v270l45 45h-45l-45 -45v-270
l45 -45h45v-45l45 -45h270v90h-90l-45 -45h-135v45l-45 45h-45zM45 45v90h-45v270h45v90l45 45v45h45l45 45v45h180v-45h-135l-45 -45v-45h-45l-45 -45v-135h-45v-180h45v-135l45 -45h45v-45l45 -45h135v-45h135l45 45h135v45h45l45 45h-135l-45 -45h-315v45l-45 45h-45v45
l-45 45v270l45 45v45h45l45 45v45h315l45 -45h45v-45l45 -45v-270h-90l-45 45v225h-270l-45 -45v-225h45v-45l45 -45h90v45h135l45 -45h45v45h90l45 45v-90h-90l-45 -45h90l45 -45l-45 -45v-45h-45l-45 -45h-135v-45h-180l-45 45h-135v45l-45 45h-45v45zM360 225v90l45 45
h90v-180h-90z" />
    <glyph glyph-name="A" unicode="A" horiz-adv-x="755" 
d="M360 315h45v45h-45v-45zM0 0v180h45v90l45 45v135h45v90l45 45v45l45 45v45h270l45 -45h45v-135l45 -45v-90h45v-135l45 -45v-90h45v-45h-90v135l-45 45v90h-45v135l-45 45v90h-45v45h-225l-45 -45v-45l-45 -45v-135h-45v-90l-45 -45v-135h-45v-90h180v45l45 45h225v-45
l45 -45h180v45l45 -45l-45 -45h-225v45l-45 45h-180v-45l-45 -45h-225zM315 270v180l45 -45v45l45 -45h45v-90l-45 -45h-90z" />
    <glyph glyph-name="B" unicode="B" horiz-adv-x="734" 
d="M90 675v45l45 -45h-45zM135 675v45h405l45 -45h90v-90h45v-45h-90v90h-90v45h-405zM675 450v90l45 -45v-45h-45zM630 270v45l-45 45l45 45v45h45l45 -45h-45l-45 -45l45 -45h45v-45h-90zM315 495v-45h90v45h-90zM675 180v90l45 -45v-45h-45zM315 270v-90h90v45l-45 45
h-45zM45 0v720l45 -45v-630h495v45h45l45 45v45l45 -45l-45 -45v-45h-45l-45 -45h-540zM315 405l-45 45v90h135l45 -45v-90h-135zM270 180v90l45 45h90v-45l45 -45v-90h-135z" />
    <glyph glyph-name="C" unicode="C" horiz-adv-x="733" 
d="M540 630v45h90v-45l45 -45v-45h-45v45l-45 45h-45zM675 495v45l45 -45h-45zM270 180v270l45 45v45h90l45 -45h45v-45h180l45 -45h-225l-45 45h-45v45h-45l-45 -45v-225h90v45h270l45 -45h-270l-45 -45h-135zM675 135v45l45 -45h-45zM45 90v90h-45v360h45v90h45l45 45h90
l-45 -45h-45v-45h-45v-90h-45v-270h45v-90h45v-45l45 -45h90v-45h180l45 45h90v45h45l45 45v-90h-45l-45 -45h-90v-45h-225l-45 45h-90v45l-45 45h-45z" />
    <glyph glyph-name="D" unicode="D" horiz-adv-x="740" 
d="M675 450v90l45 -45v-45h-45zM675 360v90l45 -45v-45h-45zM675 270v90l45 -45v-45h-45zM675 180v90l45 -45v-45h-45zM315 225h90v45l45 45v90l-45 45v45h-90v-270zM45 0v720h450l45 -45h90v-45l45 -45h45v-45h-90v45l-45 45h-90v45h-405v-630h450v45h90v90h45l45 -45h-45
v-90h-90l-45 -45h-495zM270 180v360h135l45 -45v-45l45 -45v-90l-45 -45v-45l-45 -45h-135z" />
    <glyph glyph-name="E" unicode="E" horiz-adv-x="667" 
d="M585 720l45 -45v-45h-45v45h-495v-630h45l-45 -45h-45v720h540zM630 540h-45v90l45 -45v-45zM585 540l45 -45h-315v-45h270l45 -45v-45h-45v45h-270l-45 45v90h315zM630 270h-45v90l45 -45v-45zM585 270l45 -45v-45h-360v90h315zM225 0h-90v45h135zM270 0v45h360l-45 -45
h-315z" />
    <glyph glyph-name="F" unicode="F" horiz-adv-x="646" 
d="M585 540v90l45 -45v-45h-45zM585 270v90l45 -45v-45h-45zM45 0v720h540l45 -45v-45h-45v45h-495v-630h180v135l45 45h270v45l45 -45l-45 -45h-270v-135l-45 -45h-225zM315 405l-45 45l45 45h270v45l45 -45l-45 -45l45 -45v-45h-45v45h-270z" />
    <glyph glyph-name="G" unicode="G" horiz-adv-x="753" 
d="M45 90v90h-45v360h45v90h45l45 45h90l-45 -45h-45v-45h-45v-90h-45v-270h45v-90h45v-45l45 -45h90v-45h180l45 45h90v45h45l45 45v270h-270v-135h45l45 -45l-45 -45h-180v270l45 45v45h90l45 -45h225v90l-45 45h-90v45h135v-45l45 -45v-90l-45 -45l45 -45v-270l-45 -45
v-45h-45l-45 -45h-90v-45h-225l-45 45h-90v45l-45 45h-45zM315 225h90l-45 45v180h45v45h-45l-45 -45v-225z" />
    <glyph glyph-name="H" unicode="H" horiz-adv-x="772" 
d="M675 540v90l45 -45v-45h-45zM675 450v90l45 -45v-45h-45zM45 270v450h225l45 -45v-180h135v225h225l45 -45v-45h-45v45h-180v-180l-45 -45h-180v225h-180v-360zM675 360v90l45 -45v-45h-45zM675 270v90l45 -45v-45h-45zM675 180v90l45 -45v-45h-45zM675 90v90l45 -45v-45
h-45zM45 0v270h45v-225h180v225h180l45 -45v-180h135l-45 -45h-135v225h-135v-180l-45 -45h-225zM675 45v45l45 -45h-45zM630 0v45h45v-45h-45z" />
    <glyph glyph-name="I" unicode="I" horiz-adv-x="368" 
d="M270 540v90l45 -45v-45h-45zM270 450v90l45 -45v-45h-45zM45 450v270h225l45 -45v-45h-45v45h-180v-180zM270 360v90l45 -45v-45h-45zM270 270v90l45 -45v-45h-45zM270 180v90l45 -45v-45h-45zM270 90v90l45 -45v-45h-45zM45 0v450l45 -45v-360h180v45l45 -45l-45 -45
h-225z" />
    <glyph glyph-name="J" unicode="J" horiz-adv-x="702" 
d="M630 585v90l45 -45v-45h-45zM630 495v90l45 -45v-45h-45zM630 405v90l45 -45v-45h-45zM630 315v90l45 -45v-45h-45zM630 225v90l45 -45v-45h-45zM45 45v45l-45 45v90l45 45h270v-45h45v270h-315v180h45v-135h315v-360h-90l-45 45h-225v-90l45 -45h45v-45h90l45 -45h135
v45h135l45 45v45l45 45v45l45 -45l-45 -45v-45l-45 -45v-45h-135l-45 -45h-180v45h-90l-45 45h-45z" />
    <glyph glyph-name="K" unicode="K" horiz-adv-x="715" 
d="M540 270v90l45 -45zM540 270h45l45 -45v-45l45 -45h45v-45h-90v45l-45 45v45zM45 0v720h225l45 -45v-135l45 45v45l45 45v45h270l45 -45l-45 -45v-45l-45 -45v-45l-45 -45v-45h-45v-45h-45v90h45l45 45v45l45 45v45l45 45h-225l-45 -45v-45l-45 -45v-45h-45l-45 45v135
h-180v-630h180v135l45 45h45v-90h45v-45l45 -45h225v45l45 -45l-45 -45h-270v45l-45 45h-45v-45l-45 -45h-225z" />
    <glyph glyph-name="L" unicode="L" horiz-adv-x="626" 
d="M45 0v720h225l45 -45v-450h135l-45 -45h-135v495h-180v-630zM450 180v45h90l-45 -45h-45zM540 180v45h90v-45h-90zM585 90v90l45 -45v-45h-45zM90 0v45h495v45l45 -45l-45 -45h-495z" />
    <glyph glyph-name="M" unicode="M" horiz-adv-x="856" 
d="M765 540v90l45 -45v-45h-45zM765 450v90l45 -45v-45h-45zM765 360v90l45 -45v-45h-45zM765 270v90l45 -45v-45h-45zM45 180v540h225l45 -45v-45l45 -45h45v-90h45v45l45 45v45h45v90h225l45 -45v-45h-45v45h-180v-90h-45l-45 -45v-45l-45 -45h-90v90h-45v45l-45 45v45
h-180v-495h-45zM765 180v90l45 -45v-45h-45zM765 90v90l45 -45v-45h-45zM45 0v180l45 -45v-90h180v225h45l45 -45h45v-45h45l45 45v45h45l45 -45v-180h180v45l45 -45l-45 -45h-225v225l-45 -45v-45h-90l-45 45h-45v-135l-45 -45h-225z" />
    <glyph glyph-name="N" unicode="N" horiz-adv-x="740" 
d="M45 180v360l45 -45v-270zM45 0v180h45v-135h180v225h45l45 -45v-45l45 -45h45v-90h225v-45h-270v90h-45v45l-45 45v-135l-45 -45h-225zM45 540v180h225l45 -45v-45l45 -45h45v-90h45v225h180l45 -45h-180v-270l-45 -45h-45v90h-45v90h-45v45l-45 45v45h-180v-135h-45z
" />
    <glyph glyph-name="O" unicode="O" horiz-adv-x="742" 
d="M540 630v45h90v-45l45 -45v-45h-45v45l-45 45h-45zM675 495v45l45 -45h-45zM675 405v45l45 -45h-45zM675 315v45l45 -45h-45zM675 225v45l45 -45h-45zM270 180v270l45 45v45h90l45 -45v-270l-45 -45h-135zM45 90v90h-45v360h45v90h45l45 45h90l-45 -45h-45v-45h-45v-90
h-45v-270h45v-90h45v-45l45 -45h90v-45h180l45 45h90v45h45v90h45l45 -45h-45v-90h-45l-45 -45h-90v-45h-225l-45 45h-90v45l-45 45h-45zM405 225v270h-45l-45 -45v-225h90z" />
    <glyph glyph-name="P" unicode="P" horiz-adv-x="705" 
d="M315 405h45v45h45v45h-90v-90zM45 0v720h450l45 -45h90v-45l45 -45v-45l45 -45v-45h-45v45l-45 45v45l-45 45h-90v45h-405v-630h225v135l45 45h90v45h135l45 45v45l45 45v45l45 -45l-45 -45v-45l-45 -45v-45h-135l-45 -45h-90v-135l-45 -45h-270zM270 360v180h135l45 -45
v-90h-45l-45 -45h-90z" />
    <glyph glyph-name="Q" unicode="Q" horiz-adv-x="742" 
d="M450 675l45 45h45v-45h-90zM90 45v45l-45 45v45l-45 45v270l45 45v45l45 45v45h90l45 45h225v-45h-225v-45h-90l-45 -45v-45l-45 -45v-270l45 -45v-45l45 -45h45v-45h45l45 -45h225v-45h180v45l-45 45v90l45 45v360l-45 45h-45v45l-45 45l45 45v-45l45 -45h45v-45l45 -45
v-360l-45 -45v-90l45 -45v-90h-225l-45 45h-225v45h-45l-45 45h-45zM405 225v270h-45v-45h-45v-225h90zM270 225v270h45l45 45h90v-360h-135z" />
    <glyph glyph-name="R" unicode="R" horiz-adv-x="722" 
d="M315 495v-45h90v45h-90zM585 270l45 45v45l45 45v45l45 -45l-45 -45v-45l-45 -45h-45zM585 180v90l45 -45v-90zM45 0v720h450l45 -45h90v-45l45 -45v-45l45 -45v-45h-45v45l-45 45v45l-45 45h-90v45h-405v-630h180v135l45 45h90v-135l45 -45h225l-45 45v45h45v-45l45 -45
l-45 -45h-270v45l-45 45v90h-45v-135l-45 -45h-225zM315 405l-45 45v90h135l45 -45v-90h-135z" />
    <glyph glyph-name="S" unicode="S" horiz-adv-x="697" 
d="M540 585v45l-45 45h45l45 -45h45v-45l45 -45v-45h-45v45l-45 45h-45zM360 405v45h-45l-45 45l45 45h90v-45h225l45 -45h-90v-45h45l45 -45v-45h-45v45h-45l-45 45h-180zM630 135v90l45 -45v-45h-45zM45 45v45l-45 45v90l45 45h90l-45 45h-45v90h-45v180h45l45 45v45h90
v-45h-45l-45 -45v-45h-45v-90h45v-90h45v-45h90l45 -45h180v-90h-180l-45 45h-180v-90l45 -45h45v-45h90l45 -45h180v45h90l45 45v45h45l45 -45h-45l-45 -45v-45h-90l-45 -45h-225v45h-90l-45 45h-45z" />
    <glyph glyph-name="T" unicode="T" horiz-adv-x="674" 
d="M630 540v90l45 -45v-45h-45zM180 0v450h-180v270h630l45 -45v-45h-45v45h-585v-180h180v-450h225v405l45 45h135v45l45 -45l-45 -45h-135v-405l-45 -45h-270z" />
    <glyph glyph-name="U" unicode="U" horiz-adv-x="746" 
d="M675 585v90l45 -45v-45h-45zM675 495v90l45 -45v-45h-45zM675 405v90l45 -45v-45h-45zM675 315v90l45 -45v-45h-45zM270 225v450h45v-450h90v450h45v-495h-135zM675 225v90l45 -45v-45h-45zM45 225v450h45v-405zM90 45v45l-45 45v90h45v-90l45 -45h45v-45h45l45 -45h180
v45h135l45 45v45l45 45v45l45 -45l-45 -45v-45l-45 -45v-45h-135l-45 -45h-225v45h-45l-45 45h-45z" />
    <glyph glyph-name="V" unicode="V" horiz-adv-x="726" 
d="M135 90v135l-45 45v135l-45 45v90h-45v180h225l45 -45h45v-180h45v-45l45 45v135l45 45v45h225l45 -45v-45h-45v45h-180l-45 -45v-135l-45 -45v-135l-45 -45h-45v180h-45v180h-45v45h-180v-90h45v-135l45 -45v-135l45 -45v-90h45v-90h270v45l45 45v135h45v90l45 45v135
l45 45v45l45 -45l-45 -45v-135l-45 -45v-135h-45v-90l-45 -45v-45l-45 -45h-315v90h-45z" />
    <glyph glyph-name="W" unicode="W" horiz-adv-x="856" 
d="M810 630v45l45 -45h-45zM810 540v45l45 -45h-45zM90 45v135l-45 45v270h-45v180l45 45h225v-45l45 -45v-135l45 45v45h90l45 -45h45v135h45l45 45h180v-45h-180v-45h-45v-180l-45 -45h-45v90h-45v45h-45l-45 -45v-45l-45 -45h-45v225l-45 45h-180v-135h45v-315l45 -45
v-135h180l45 45v45l45 45h90v-90h45v-45h180v180h45v270l45 45v-360h-45v-180h-225l-45 45h-45v90h-45v-45l-45 -45v-45h-225z" />
    <glyph glyph-name="X" unicode="X" horiz-adv-x="739" 
d="M45 45h225v45h45v90h45l45 -45h45v-90h270l-45 45h-45v90h-45v45l-45 45v45l-45 45l45 45v45l45 45v45h45v90h45v45h-225v-90h-45l-45 -45h-45v90h-45v45h-180v-90h45v-90h45v-45l45 -45v-90l-45 -45v-45h-45v-90h-45l-45 -45v-45zM0 0v90l45 45v45h45v90h45l45 45v90
l-45 45h-45v90h-45v90h-45v90h270l45 -45h45v-45h45v90h270l45 -45v-90h-45v-90h-45l-45 -45v-45l-45 -45l45 -45v-45l45 -45h45v-90h45v-45l45 -45l-45 -45h-315v90h-45v-45h-45l-45 -45h-270z" />
    <glyph glyph-name="Y" unicode="Y" horiz-adv-x="710" 
d="M225 90v135l-45 45v45l-45 45v45l-45 45v45l-45 45v45l-45 45v90h225l45 -45h45v-90h45v-45l45 45v45l45 45v45h225l45 -45v-45h-45v45h-180l-45 -45v-45l-45 -45v-45l-45 -45h-45v90h-45v90h-45v45h-180v-45l45 -45v-45l45 -45v-45l45 -45v-45l45 -45v-45l45 -45v-90z
M360 0v45h90v225h45v90h45v90h45v90h45v90h45l45 -45h-45v-90h-45v-90h-45v-90h-45v-90h-45v-180l-45 -45h-90zM225 0v90h45v-45h90l-45 -45h-90z" />
    <glyph glyph-name="Z" unicode="Z" horiz-adv-x="693" 
d="M585 675l45 45v-45h-45zM630 630v45l45 -45h-45zM630 540v45l45 -45h-45zM540 360v45l45 45v45h45l45 -45h-45l-45 -45v-45h-45zM360 225l45 45v45h45l45 45h45l-45 -45v-45h-45l-45 -45h225l45 -45h-270zM0 45v180h45l45 45v45h45l45 45v45h45l45 45v45h-225v180l45 45
h495v-45h-495v-135h270v-90h-45l-45 -45v-45h-45l-45 -45v-45h-45l-45 -45v-45h-45v-135h585l45 -45h-630zM630 90v45l45 -45h-45z" />
    <glyph glyph-name="bracketleft" unicode="[" horiz-adv-x="432" 
d="M360 720v45h45v-45h-45zM225 450v180h135l45 -45h-135v-135h-45zM225 0v450l45 -45v-360h90v-45h-135zM45 -180v945h45v-900h315v-45h-360z" />
    <glyph glyph-name="backslash" unicode="\" horiz-adv-x="578" 
d="M495 0v90l45 -45v-45h-45zM270 90v45l-45 45v45l-45 45v90h-45v90h-45v135l-45 45v45l-45 45v90h180l45 -45h45v-90h45v-135l45 -45v-45l45 -45v-90h45v-90h45v-90h45v-45h-90v90h-45v90h-45v135l-45 45v45l-45 45v90h-45v90h-45v45h-135v-45l45 -45v-45l45 -45v-90h45
v-90h45v-135l45 -45v-45l45 -45v-45l45 -45v-90h180v-45h-225v135z" />
    <glyph glyph-name="bracketright" unicode="]" horiz-adv-x="432" 
d="M360 720v45l45 -45h-45zM360 630v45l45 -45h-45zM360 540v45l45 -45h-45zM360 450v45l45 -45h-45zM135 225v360h-135v180h45v-135h135v-405h-45zM360 360v45l45 -45h-45zM360 270v45l45 -45h-45zM360 180v45l45 -45h-45zM360 90v45l45 -45h-45zM360 0v45l45 -45h-45z
M45 0v-135h315l45 -45h-360l-45 45v180h135v180l45 -45v-180h-135zM360 -90v45l45 -45h-45z" />
    <glyph glyph-name="asciicircum" unicode="^" horiz-adv-x="492" 
d="M45 585l-45 45l45 45v45h45l45 45h90l-45 -45h-45v-45h-45l-45 -45h135l45 45h90v-45h90v45l-45 45h-90v45h135v-45l45 -45v-90h-135l-45 45h-45v-45h-180z" />
    <glyph glyph-name="underscore" unicode="_" horiz-adv-x="725" 
d="M675 45v45l45 -45h-45zM0 -90v180h45v-180h630l45 -45h-675zM675 -45v45l45 -45h-45z" />
    <glyph glyph-name="grave" unicode="`" horiz-adv-x="450" 
d="M180 585v45h-45l-45 45h-45v90h45v-45h45v-45h45l45 -45h135l-45 45v45h-45l-45 45h90l45 -45v-45l45 -45l-45 -45h-180z" />
    <glyph glyph-name="a" unicode="a" horiz-adv-x="622" 
d="M495 405v45l-45 45h45l45 -45h45v-45h-90zM540 315v90l45 -45v-45h-45zM540 225v90l45 -45v-45h-45zM540 135v90l45 -45v-45h-45zM540 45v90l45 -45v-45h-45zM0 45v180l45 45v225h135v-45h-90v-90h135v45h90l45 -45h-45v-45h-90v-45h-135l-45 -45v-135h45v-45h45l45 -45
h90v45h270l45 -45h-270l-45 -45h-135v45h-45l-45 45h-45zM225 135v90h90l45 -45l-45 -45h-90z" />
    <glyph glyph-name="b" unicode="b" horiz-adv-x="661" 
d="M270 495v180h45v-135h180l-45 -45h-180zM540 405v45l-45 45v45h45v-45l45 -45h45v-45h-90zM585 315v90l45 -45v-45h-45zM585 225v90l45 -45v-45h-45zM585 135v90l45 -45v-45h-45zM270 135v180l45 45h90v-180l-45 -45h-90zM45 45v630h45v-630h135l45 45h45v-45l45 -45h90
v45h90l45 45v45l45 -45l-45 -45v-45h-90l-45 -45h-135v45l-45 45v-45h-180zM315 180h45v135h-45v-135z" />
    <glyph glyph-name="c" unicode="c" horiz-adv-x="622" 
d="M450 450v45h90v-45l45 -45v-45h-45v45l-45 45h-45zM585 315v45l45 -45h-45zM270 180v180h90l45 -45h180v-45h-225v45h-45v-135l45 45h225v-45h-225v-45h-45zM90 0v45l-45 45v45l-45 45v180l45 45v45h45l45 45h45l-45 -45v-45h-45l-45 -45v-180l45 -45v-45l45 -45h90v-45
h135l45 45h90v45h45l45 45v-90h-45l-45 -45h-90v-45h-180l-45 45h-90zM585 135v45l45 -45h-45z" />
    <glyph glyph-name="d" unicode="d" horiz-adv-x="661" 
d="M585 585v45l45 -45h-45zM585 495v45l45 -45h-45zM45 450l45 45v45h270v135h45v-180h-270l-45 -45h-45zM585 405v45l45 -45h-45zM90 0v45l-45 45v45l-45 45v180l45 45v45l45 -45l-45 -45v-180l45 -45v-45l45 -45h45v-45h90l45 45h270v-45h-270v-45h-135l-45 45h-45z
M315 180l45 45v90h-45v-135zM585 315v45l45 -45h-45zM585 225v45l45 -45h-45zM585 135v45l45 -45h-45zM585 45v45l45 -45h-45zM270 180v180h90l45 -45v-90l-45 -45v-45h-45z" />
    <glyph glyph-name="e" unicode="e" horiz-adv-x="623" 
d="M450 450v45h90v-45l45 -45v-45l45 -45h-45l-45 45v45l-45 45h-45zM90 0v45l-45 45v45l-45 45v180l45 45v45h45l45 45h45l-45 -45v-45h-45l-45 -45v-180l45 -45v-45l45 -45h90v-45h-135zM315 315l-45 45l45 45h45v-90h-45zM585 225v45l45 -45h-45zM225 -45v45h180l45 45
h45v45h45v45h-225l-45 45l45 45h270v-45h-45l45 -45v-90h-45l-45 -45h-45v-45h-225z" />
    <glyph glyph-name="f" unicode="f" horiz-adv-x="492" 
d="M495 765v-45h-225v-45h-90l-45 -45v-135h-90v-135h45l45 -45v-270h180v315h135l45 -45h-135v-270l-45 -45h-225v315h-45l-45 45v180h90v90l45 45v45h90l45 45h225zM495 630h-45v90l45 -45v-45zM360 585h90v45l45 -45l-45 -45l45 -45v-45h-45v45h-90l-45 45zM495 360h-45
v90l45 -45v-45z" />
    <glyph glyph-name="g" unicode="g" horiz-adv-x="666" 
d="M315 225h45v90h-45v-90zM585 -135v315l45 -45v-270h-45zM270 0l45 -45h45v90l-45 -45h-45zM90 0v45l-45 45v45l-45 45v180l45 45v45l45 45v45h225l45 -45v45h225l45 -45v-315h-45v315h-180l-45 -45h-45v45h-180l-45 -45v-45l-45 -45v-180l45 -45v-45l45 -45h180v45h45
l45 -45v-90l-45 -45h-90v45h-180v-45l45 -45h45v-45h315l45 45v45l45 -45l-45 -45v-45h-360l-45 45h-45v45l-45 45h-45v90h90zM270 180v180h90l45 -45v-90l-45 -45h-90z" />
    <glyph glyph-name="h" unicode="h" horiz-adv-x="685" 
d="M630 270v90l45 -45v-45h-45zM630 180v90l45 -45v-45h-45zM630 90v90l45 -45v-45h-45zM45 0v720h225l45 -45v-135h225l45 -45h45v-90h45v-45h-90v90h-45v45h-180l-45 -45h-45v225h-180v-630h180v315h90l45 -45v-270h225v45l45 -45l-45 -45h-270v315h-45v-270l-45 -45h-225
z" />
    <glyph glyph-name="i" unicode="i" horiz-adv-x="323" 
d="M270 630v90l45 -45v-45h-45zM270 360v90l45 -45v-45h-45zM270 270v90l45 -45v-45h-45zM270 180v90l45 -45v-45h-45zM270 90v90l45 -45v-45h-45zM45 0v720l45 45h225v-45h-225v-135h135v45h45l45 -45h-45l-45 -45h45l45 -45v-45h-45v45h-180v-450h180v45l45 -45l-45 -45
h-225z" />
    <glyph glyph-name="j" unicode="j" horiz-adv-x="345" 
d="M270 675v45h45v-45h-45zM270 585v90l45 -45v-45h-45zM270 405v90l45 -45v-45h-45zM270 315v90l45 -45v-45h-45zM45 225v270l45 45l-45 45v135h45v-135h180l45 -45v-45h-225v-270h-45zM270 225v90l45 -45v-45h-45zM270 135v90l45 -45v-45h-45zM270 45v90l45 -45v-45h-45z
M270 45l45 -45v-45h-45v90zM45 0v225l45 -45v-180l-45 -45h-90v-135h135v45h135v90h45l45 -45h-45v-90h-135l-45 -45h-180v180l45 45h90z" />
    <glyph glyph-name="k" unicode="k" horiz-adv-x="643" 
d="M90 45h180v45l45 45h45v-90h270l-45 45h-45v90h-45v45l-45 45l45 45v45l45 45v45h45v45h-225v-90h-45l-45 45v225h-180v-630zM45 0v720h225l45 -45v-135h270l45 -45v-90h-45l-45 -45v-45l-45 -45l45 -45h45v-90h45v-45l45 -45l-45 -45h-315v45l-45 -45h-225z" />
    <glyph glyph-name="l" unicode="l" horiz-adv-x="323" 
d="M270 540v90l45 -45v-45h-45zM270 450v90l45 -45v-45h-45zM45 270v450h225l45 -45v-45h-45v45h-180v-360zM270 360v90l45 -45v-45h-45zM270 270v90l45 -45v-45h-45zM270 180v90l45 -45v-45h-45zM270 90v90l45 -45v-45h-45zM45 0v270h45v-225h180v45l45 -45l-45 -45h-225z
" />
    <glyph glyph-name="m" unicode="m" horiz-adv-x="938" 
d="M45 0v540h180l45 -45v45h225l45 -45h45v45h225l45 -45h45v-45h-90v45h-180l-45 -45h-90v45h-180l-45 -45h-45v45h-135v-450h90l-45 -45h-90zM855 360v90l45 -45v-45h-45zM855 270v90l45 -45v-45h-45zM855 180v90l45 -45v-45h-45zM855 90v90l45 -45v-45h-45zM180 0v45h90
v315h45l45 -45v-270h225v315h45l45 -45v-270h180v45l45 -45l-45 -45h-225v45l-45 -45h-270v45l-45 -45h-90z" />
    <glyph glyph-name="n" unicode="n" horiz-adv-x="674" 
d="M630 180v90l45 -45v-45h-45zM630 90v90l45 -45v-45h-45zM45 0v540h225l45 -45v45h225l45 -45h45v-135l45 -45v-45h-45v45l-45 45v90h-45v45h-180l-45 -45h-45v45h-180v-450h180v315h90l45 -45v-270h225v45l45 -45l-45 -45h-270v315h-45v-270l-45 -45h-225z" />
    <glyph glyph-name="o" unicode="o" horiz-adv-x="642" 
d="M450 450v45h135v-45l45 -45h-45l-45 45h-90zM585 315v45l45 -45h-45zM360 180v135l-45 45v-180h45zM90 0v45l-45 45v45l-45 45v180l45 45v45l45 45h90l-45 -45h-45v-45l-45 -45v-180l45 -45v-45l45 -45h90v-45h180l45 45h45v45h45l45 45v-90h-45l-45 -45h-45v-45h-225
l-45 45h-90zM585 225v45l45 -45h-45zM585 135v45l45 -45h-45zM270 180v180l45 45h45v-45l45 -45v-180h-90z" />
    <glyph glyph-name="p" unicode="p" horiz-adv-x="661" 
d="M585 405v45l-45 45h45l45 -45v-45h-45zM270 450l-45 45h90v-45h-45zM585 315v90l45 -45v-45h-45zM585 225v90l45 -45v-45h-45zM45 225v270h45v-225zM585 135v90l45 -45v-45h-45zM270 135v180l45 45h90v-180l-45 -45h-90zM45 225h45v-405h180v225h45l45 -45h90v45h90
l45 45v45l45 -45l-45 -45v-45h-90l-45 -45h-135v-135l-45 -45h-225v450zM360 180v135h-45v-135h45z" />
    <glyph glyph-name="q" unicode="q" horiz-adv-x="661" 
d="M315 450v45h90l-45 -45h-45zM585 405v45l45 -45h-45zM585 315v45l45 -45h-45zM585 225v45l45 -45h-45zM315 180l45 45v90h-45v-135zM585 135v45l45 -45h-45zM585 45v45l45 -45h-45zM585 -45v45l45 -45h-45zM585 -135v45l45 -45h-45zM90 0v45l-45 45v45l-45 45v180l45 45
v45l45 45h45l-45 -45v-45l-45 -45v-180l45 -45v-45l45 -45h45v-45h90l45 45h90v-225h135l45 -45h-180l-45 45v180h-45v-45h-135l-45 45h-45zM585 -225v45l45 -45h-45zM270 180v180h90l45 -45v-90l-45 -45v-45h-45z" />
    <glyph glyph-name="r" unicode="r" horiz-adv-x="518" 
d="M495 360v90l45 -45v-45h-45zM45 0v540h225l45 -45v45h180l45 -45v-45h-45v45h-135l-45 -45h-45v45h-180v-450h180v225l45 45h135v45h45l45 -45h-45l-45 -45h-135v-225l-45 -45h-225z" />
    <glyph glyph-name="s" unicode="s" horiz-adv-x="590" 
d="M270 315v90h225v45h-45l-45 45h90l45 -45h45v-45h-45l45 -45h-135v-45h45l45 -45h45v-45h-90v45h-45l-45 45h-135zM540 135v90l45 -45v-45h-45zM540 90v45l45 -45h-45zM0 45v90l45 45h90l-45 45h-45v45l-45 45v90l45 45v45h90v-45h-45l-45 -45v-90l45 -45h45v-45h135
l45 -45l-45 -45h-225v-45h45v-45h90l45 -45h135v45h135l45 45v-90h-135l-45 -45h-180v45h-90l-45 45h-45z" />
    <glyph glyph-name="t" unicode="t" horiz-adv-x="532" 
d="M315 180v180h135l45 45v45l45 -45l-45 -45v-45h-135v-90h135v-45l45 -45l-45 -45v45l-45 45h-135zM495 0v90l45 -45zM90 90v225h-45l-45 45v180h90v180h225l45 -45v-135h135l45 -45v-45h-45v45h-135l-45 45v135h-180v-180h-90v-135h45l45 -45v-180h45v-45l45 -45h270
l-45 -45h-270v45l-45 45h-45z" />
    <glyph glyph-name="u" unicode="u" horiz-adv-x="674" 
d="M270 180v315h45v-315h45v315h45v-360h-90zM90 0v45l-45 45v45l-45 45v315h45v-315l45 -45v-45l45 -45h45v-45h90l45 45h270v450h45v-450l-45 -45h-270v-45h-135l-45 45h-45z" />
    <glyph glyph-name="v" unicode="v" horiz-adv-x="630" 
d="M585 450v45h45v-45h-45zM450 180l45 45v45l45 45v45l45 45v45l45 -45l-45 -45v-45l-45 -45v-45l-45 -45h-45zM135 90v90h-45v90h-45v90h-45v180h225l45 -45v-90h45v-45l45 45v135h225v-45h-180v-90l-45 -45v-135h-45l-45 45v90h-45v135h-180v-90h45v-90h45v-90h45v-135
l45 -45h180v45h45v90l45 -45v-90h-45l-45 -45h-225v45z" />
    <glyph glyph-name="w" unicode="w" horiz-adv-x="869" 
d="M810 360v90l45 -45v-45h-45zM675 0v90h45v90l45 45v135h45l45 -45h-45v-90l-45 -45v-135h-45zM90 90v135l-45 45v90h-45v180h225l45 -45v-135l45 45v135h180l45 -45v-45l45 -45v45l45 45v45h180l45 -45v-45h-45v45h-135l-45 -45v-135l-45 -45h-45v135l-45 45v45h-135v-90
l-45 -45v-45h-45l-45 45v135h-180v-90h45v-135l45 -45v-90h45v-90h180v135h45l45 45h45v-135l45 -45h135l-45 -45h-135v45l-45 45v45h-45v-90l-45 -45h-225v90h-45z" />
    <glyph glyph-name="x" unicode="x" horiz-adv-x="630" 
d="M90 45h135v45h45l45 45h45v-45l45 -45h180l-45 45v45l-45 45h-45v180h45l45 45v45l45 45h-180l-45 -45v-45h-45l-45 45h-45v45h-135v-90h45v-45l45 -45v-90l-45 -45v-45h-45v-90zM0 0v90h45v90h45l45 45v90l-45 45h-45v90h-45v90h225l45 -45h45v-45l45 45v45h225l45 -45
l-45 -45v-45l-45 -45v-45h-45v-90h45v-45l45 -45v-45l45 -45l-45 -45h-225v45l-45 45v-45h-45l-45 -45h-225z" />
    <glyph glyph-name="y" unicode="y" horiz-adv-x="636" 
d="M585 405v90l45 -45v-45h-45zM270 315v90h-45v90h45v-45h45v-45h45v90h90v-45h-45v-90h-45v-90h-45zM135 -45l45 45v90l-45 45v45l-45 45v45l-45 45v90h-45v90h45v-45h45v-135l45 -45v-45l45 -45v-45l45 -45v-90l-45 -45v-135h135v45h45v90l45 45v45l45 45v45l45 45v135
h45v90h45l45 -45h-45v-90h-45v-90l-45 -45v-45l-45 -45v-45l-45 -45v-135h-45l-45 -45h-180v180z" />
    <glyph glyph-name="z" unicode="z" horiz-adv-x="590" 
d="M540 90v45l45 -45h-45zM270 0v45h270l45 -45h-315zM0 45v90l45 45v45h45l45 45v45h-90v45l-45 45v90l45 45h495v-270h-90l-45 -45v-45h135v-45h-225v90h45l45 45v45h90v180h-450v-90l45 -45h135v-90h-45l-45 -45v-45h-45l-45 -45v-90h180l45 -45h-225z" />
    <glyph glyph-name="braceleft" unicode="{" horiz-adv-x="474" 
d="M450 720l-45 45h45l45 -45h-45zM450 630v45l45 -45h-45zM270 45v225l-45 45l45 45v135l45 45v45h45l45 45h45v-45h-45v-45h-45l-45 -45v-135l-45 -45l45 -45v-180h45v-45h90l45 -45h-135l-45 45h-45zM450 -90v45l45 -45h-45zM90 -45v180h-45v90h-90v90l45 45v45h45v90h45
v180h45l45 45v45h180v-45h-135l-45 -45v-45h-45v-180h-45v-90h-45l-45 -45v-45h90v-90h45v-180h45v-45l45 -45h90v-45h135l45 -45h-180l-45 45h-90v45l-45 45h-45z" />
    <glyph glyph-name="bar" unicode="|" horiz-adv-x="292" 
d="M225 765v90l45 -45zM225 675v90l45 -45v-45h-45zM225 585v90l45 -45v-45h-45zM225 495v90l45 -45v-45h-45zM225 405v90l45 -45v-45h-45zM225 315v90l45 -45v-45h-45zM225 225v90l45 -45v-45h-45zM225 135v90l45 -45v-45h-45zM225 45v90l45 -45v-45h-45zM225 45l45 -45
v-45h-45v90zM225 -45l45 -45v-45h-45v90zM90 -180h135v45l45 -45l-45 -45h-180v1080l45 45h180v-45h-180v-1035z" />
    <glyph glyph-name="braceright" unicode="}" horiz-adv-x="474" 
d="M315 630l-45 45h-45v45h-45l-45 45h90l45 -45h45v-45l45 -45h-45zM315 585l45 45v-45h-45zM45 0v-135h135l45 45h45v45h45v90h45v180h45l45 45v90l-45 45h-45v180l45 45v-180h45v-45l45 -45v-90l-45 -45v-45h-45v-180h-45v-90h-45l-45 -45h-45v-45h-180l-45 45v180h90
l45 45v135h45v135l-45 45v135h-45l-45 45h-45v180h45v-135h45v-45h45l45 -45v-135l45 -45h45v-90h-45v-90h-45v-90l-45 -45v-45h-90z" />
    <glyph glyph-name="asciitilde" unicode="~" horiz-adv-x="549" 
d="M45 180v180l45 45v45h135l45 -45h225v-45h-270v45h-90l-45 -45v-135h45v45h45l45 -45h225v45l45 -45l-45 -45h-270v45l-45 -45h-90z" />
    <glyph glyph-name="uni00A0" unicode="&#xa0;" horiz-adv-x="186" 
 />
    <glyph glyph-name="exclamdown" unicode="&#xa1;" horiz-adv-x="324" 
d="M270 405v90l45 -45v-45h-45zM270 315v90l45 -45v-45h-45zM270 135v90l45 -45v-45h-45zM270 45v90l45 -45v-45h-45zM270 45l45 -45v-45h-45v90zM270 -45l45 -45v-45h-45v90zM90 -180h135v45h45l45 -45h-45l-45 -45h-180v450l45 45l-45 45v180h45v-180h180l45 -45v-45h-225
v-405z" />
    <glyph glyph-name="cent" unicode="&#xa2;" horiz-adv-x="628" 
d="M450 450v45l-45 45v45h45v-45l45 -45h45v-45l45 -45v-45h-45v45l-45 45h-45zM585 315v45l45 -45h-45zM90 0v45l-45 45v45l-45 45v180l45 45v45h45l45 45v45h45v45h45v-90h-45l-45 -45v-45h-45l-45 -45v-180l45 -45v-45l45 -45h90v-135h135l45 45v45l45 45h45v45h45l45 45
v-90h-45l-45 -45h-45v-45l-45 -45v-45h-180l-45 45v90h-90zM270 180v180h90l45 -45h180v-45h-225v45h-45v-135l45 45h225v-45h-225v-45h-45zM585 135v45l45 -45h-45z" />
    <glyph glyph-name="sterling" unicode="&#xa3;" horiz-adv-x="758" 
d="M90 45h360v-45h90l45 45h45v45h45v135h-90l-45 -45h-180v90h135v90h-45v45h-90l-45 45l45 45v45h45l45 -45h45v-45h180v135l-45 45h-90v45h-315l-45 -45v-45h-45v-180h-90v-135h90l45 -45l-45 -45v-45h-45v-90zM360 450h45v45zM0 0v90h45v90h45l45 45h-90l-45 45v180h90
v180h45l45 45v45h360l45 -45h90v-45l45 -45v-180h-180v-135h135l45 -45v-45l45 -45h-45v-90h-45l-45 -45h-45v-45h-135l-45 45h-405z" />
    <glyph glyph-name="currency" unicode="&#xa4;" horiz-adv-x="634" 
d="M360 225v135h-90v-135h90zM45 135l45 -45h45v-45l45 45h315v-45l45 45v450h-90l-45 -45h-45v45h-90l-45 -45h-45v45h-45l-45 -45v-45h45v-90h-45v-180zM225 225v180h135l45 -45h45v-90h-45v-90h-135zM45 45v45l-45 45l45 45v315l45 45v45h90l45 -45v45h135l45 -45v45h135
l45 -45v-45l45 -45h-45v-315l45 -45h-45l-45 -45v-45h-45l-45 45h-270v-45h-45l-45 45h-45z" />
    <glyph glyph-name="yen" unicode="&#xa5;" horiz-adv-x="750" 
d="M45 675v45h180v-45h-180zM315 495v90h-45v90h-45l45 45h45v-90h45v-90h45v45l45 45v45l45 45h225v-45l45 -45h-45v-90h-45v-90h-45v-90h-45v-45h45l45 -45v-90l-45 -45v135h-45l-45 45v90h45v90h45v90h45v90h-180v-45l-45 -45v-45l-45 -45h-90zM90 135v180h45v90h-45v90
h-45v90h-45v90h45v-45h45v-90h45v-90h45v-90h45v-90h-90v-135h90l45 -45v-45h225v90h135v-45h-90v-90h-270l-45 45v45h-90z" />
    <glyph glyph-name="brokenbar" unicode="&#xa6;" horiz-adv-x="296" 
d="M225 720v90l45 -45v-45h-45zM225 630v90l45 -45v-45h-45zM225 540v90l45 -45v-45h-45zM45 450v360l45 45h180v-45h-180v-315h135v45l45 -45l-45 -45h-180zM225 180v90l45 -45v-45h-45zM225 90v90l45 -45v-45h-45zM45 0v360h180l45 -45v-45h-45v45h-135v-270h135v45
l45 -45l-45 -45h-180z" />
    <glyph glyph-name="section" unicode="&#xa7;" horiz-adv-x="636" 
d="M585 270v45l45 -45h-45zM45 -45v90h180v45h-90l-45 45h-45v45l-45 45v180h45v180h45v90h90v-45h-45v-90h-45v-180h-45v-135l45 -45h45v-45h90l45 -45h90v-90h-270v-45l45 -45h135v-45h90l45 45h45v45h45l45 45v225h45l45 -45h-45v-180l-45 -45v-45h-45l-45 -45h-45v-45
h-135l-45 45h-135v45zM270 495v90h90l45 -45h135v90h-45l-45 45h90l45 -45v-90l-45 -45h-90l45 -45h90v-45l45 -45h-45l-45 45h-90v45h-90l-45 45h-45zM270 225v45l-45 45l45 45h45v-45h45l45 -45l-45 -45h-90z" />
    <glyph glyph-name="dieresis" unicode="&#xa8;" horiz-adv-x="509" 
d="M450 675v45l-45 45h45l45 -45v-45h-45zM45 585v180h45v-135h90v135h45v-135l-45 -45h-135zM270 585v180h45v-135h135v45l45 -45l-45 -45h-180z" />
    <glyph glyph-name="copyright" unicode="&#xa9;" horiz-adv-x="792" 
d="M540 630v45h90v-45l45 -45h45v-45l45 -45h-45l-45 45h-45v45l-45 45h-45zM495 540l45 -45v-45h-45v45h-45l-45 45h90zM180 495v-45h45v45h-45zM720 405v45l45 -45h-45zM540 405v45l45 -45h-45zM450 315h90v-45h-90v-45h-45l-45 45h-45v90l45 45v45h45l45 -45h90v-45h-135
v45l-45 -45v-45h45v-45zM720 315v45l45 -45h-45zM585 225h-45v45zM720 225v45l45 -45h-45zM225 270h-45v-45h45v45zM495 180l45 45v-45h45v90h45v180h-45v45l-45 45h-45v45h-180l-45 -45h90v-45h-90v-90h-45v-90h45v-90h45v-45h180zM90 90v45l-45 45v45l-45 45v180h45v90h45
v90h45l45 45h90l-45 -45h-45v-45h-45v-45h45l45 45h45v45h225l45 -45h45v-45l45 -45h45v-270h-45v-90h-45l-45 -45h-90v-45h-90l-45 45h-90v45l-45 45h-45v315h-45v-90h-45v-135l45 -45v-45l45 -45h45v-45l45 -45h90v-45h135l45 45h90v45h45l45 45v45l45 45v-90l-45 -45v-45
h-45l-45 -45h-90v-45h-180l-45 45h-90v45l-45 45h-45zM405 90l45 45h-135l-45 45h-45l45 -45h90v-45h45z" />
    <glyph glyph-name="ordfeminine" unicode="&#xaa;" horiz-adv-x="351" 
d="M270 585v90l45 -45v-45h-45zM270 495v90l45 -45v-45h-45zM45 405v45l-45 45v180h45l45 45h225v-45h-225v-135h-45v-45l45 -45h180v-45h-225zM270 450v45l45 -45h-45zM135 495v90h45l45 -45l-45 -45h-45z" />
    <glyph glyph-name="guillemotleft" unicode="&#xab;" horiz-adv-x="632" 
d="M540 405v90l45 -45v-45h-45zM540 225v45l-45 45v90h45l45 -45h-45v-45l45 -45v-45h-45zM540 135v90l45 -45v-45h-45zM270 90v135h-45v45l-45 45l45 45v45h45v135h-45l-45 -45v-45h-45l-45 -45v-45h-45v-90h45v-45l45 -45h45v-45l45 -45h45zM225 315l45 -45h45l-45 45v45z
M90 135v45l-45 45h-45v180h45l45 45v45h45l45 45v45h45l45 45h45v-225l45 45v45h45l45 45v45h45l45 45h45v-45h-45l45 -45v-45h-45v45h-45l-45 -45v-45h-45l-45 -45v-45h-45v-45l45 -45h45v-45l45 -45h45v-45l45 -45v45l45 -45l-45 -45h-45v45l-45 45h-45v45l-45 45h-45
v-135l-45 -45h-90v45l-45 45h-45z" />
    <glyph glyph-name="logicalnot" unicode="&#xac;" horiz-adv-x="564" 
d="M495 360v45l45 -45h-45zM495 270v45l45 -45h-45zM0 225v180h90v-45h-45v-90h315v-135h135l45 -45h-180l-45 45v90h-315zM495 180v45l45 -45h-45z" />
    <glyph glyph-name="uni00AD" unicode="&#xad;" horiz-adv-x="600" 
d="M405 270v90l45 -45v-45h-45zM45 180v180l45 45h360v-45h-360v-135h315v45l45 -45l-45 -45h-360z" />
    <glyph glyph-name="registered" unicode="&#xae;" horiz-adv-x="792" 
d="M495 225v90l45 45v45l45 -45l-45 -45v-45h45v-45h-90zM270 135v45h90v45l45 45h45v-90h90v45l45 -45l-45 -45h-135v45l-45 -45h-90zM225 180v315l45 45h270v-45l45 -45v-45h-45v45l-45 45h-225v-315h-45zM360 405l45 45h45v-90h-45z" />
    <glyph glyph-name="macron" unicode="&#xaf;" horiz-adv-x="473" 
d="M45 585v180h360l45 -45v-45h-45v45h-315v-90h315v45l45 -45l-45 -45h-360z" />
    <glyph glyph-name="degree" unicode="&#xb0;" horiz-adv-x="430" 
d="M0 495v90l45 45v45h45l45 45h225v-45l45 -45v-45h-45v45l-45 45h-180v-45h-45l-45 -45v-90h-45zM225 450v45h45v45l-45 45h-45v-90zM360 405v90l45 -45v-45h-45zM90 315v45l-45 45h-45v45h90v-45l45 -45h180v45h45l45 -45h-45l-45 -45h-225zM180 405v45l-45 45v90l45 45
h90v-45l45 -45v-90h-45l-45 -45h-45z" />
    <glyph glyph-name="plusminus" unicode="&#xb1;" horiz-adv-x="576" 
d="M45 495l45 45h90v135l45 45h180v-135h-45v90h-135v-135l-45 -45h-135zM360 495v90l45 -45h135v-45h-180zM90 135v-90h405v90h-405zM45 45v90l45 45h135l-45 45v90h-135v45l-45 45v90l45 45v-135l45 -45h135v-135h135v90l45 45h90v135l45 -45v-90l-45 -45h-90v-135h135
v-180h-450z" />
    <glyph glyph-name="uni00B2" unicode="&#xb2;" horiz-adv-x="369" 
d="M0 565v90h45l45 45h90l-45 -45h-45v-45h135v-90h-45l-45 -45h-45v-45h-45v-45h270v45h-45l-45 45l45 45v45h45v45l-45 45h-45v45h90v-45l45 -45v-90h-45l-45 -45h45l45 -45v-90h-315l-45 45v90h45l45 45h45v45h-135z" />
    <glyph glyph-name="uni00B3" unicode="&#xb3;" horiz-adv-x="365" 
d="M315 520l45 -45v-45h-45v90zM45 565l-45 45v90h90v-45h-45v-45h45l45 -45v-45h45l45 -45l-45 -45h-135l45 -45h180v45h45l45 -45h-45l-45 -45h-225v45l-45 45l45 45h90l-45 45v45h-45zM225 520v90h45l45 45l-45 45h45l45 -45l-45 -45v-45h45v-45h-135z" />
    <glyph glyph-name="acute" unicode="&#xb4;" horiz-adv-x="450" 
d="M45 585v90h45v90h135v-45h-90v-90h90v45h90l45 45v45l45 -45l-45 -45v-45h-90l-45 -45h-180z" />
    <glyph glyph-name="uni00B5" unicode="&#xb5;" horiz-adv-x="699" 
d="M630 405v90l45 -45v-45h-45zM630 315v90l45 -45v-45h-45zM630 225v90l45 -45v-45h-45zM630 135v90l45 -45v-45h-45zM315 135v45l-45 45v270h45v-270l45 -45v315h45v-315l-45 -45h-45zM630 45v90l45 -45v-45h-45zM90 -180h180v225h360l45 -45h-360v-180l-45 -45h-225v720
h45v-675z" />
    <glyph glyph-name="paragraph" unicode="&#xb6;" horiz-adv-x="709" 
d="M630 585v45l45 -45h-45zM630 495v45l45 -45h-45zM630 405v45l45 -45h-45zM630 315v45l45 -45h-45zM135 270v45h-45l-45 45v45l-45 45v180h45l45 45h45l-45 -45v-45h-45v-135l45 -45v-45h45l45 -45h45v-45h-90zM630 225v45l45 -45h-45zM630 135v45l45 -45h-45zM630 45v45
l45 -45h-45zM630 -45v45l45 -45h-45zM180 -90v360l45 -45v-270h45v-45h90v630l45 45h90v-675h135l45 -45h-180l-45 45v630h-45v-675h-135l-45 45h-45z" />
    <glyph glyph-name="periodcentered" unicode="&#xb7;" horiz-adv-x="330" 
d="M90 180l-45 45h-45v180h45l45 45v45h90l45 -45h90v-180l-45 -45v-45h-180zM45 270h45v-45h135l45 45v135h-90v45h-45l-45 -45v-45h-45v-90z" />
    <glyph glyph-name="cedilla" unicode="&#xb8;" horiz-adv-x="282" 
d="M90 0v-90h90l-45 45v45h-45zM45 -225v270h90l45 -45v-45l45 -45h45v-45h-45l45 -45h-45l-45 -45h-135z" />
    <glyph glyph-name="uni00B9" unicode="&#xb9;" horiz-adv-x="325" 
d="M225 610v90l45 -45v-45h-45zM225 520v90l45 -45v-45h-45zM225 520l45 -45v-45h-45v90zM0 520v90l45 45v45h135v-45h-90l-45 -45v-45h90v-180h90v45l45 -45l-45 -45h-135v180h-90z" />
    <glyph glyph-name="ordmasculine" unicode="&#xba;" horiz-adv-x="350" 
d="M315 585v45l45 -45h-45zM90 405l-45 45h-45v180l45 45v45h225l45 -45v-45h-45v45h-180l-45 -45v-135h45v-45h180v90h45l45 -45h-45v-90h-225zM180 495l-45 45v90h45l45 -45v-90h-45z" />
    <glyph glyph-name="guillemotright" unicode="&#xbb;" horiz-adv-x="632" 
d="M45 45v270h45v45l-45 45v180h45v-180l45 -45v-90h-45v-135h45l45 45v45h45l45 45v45h45v45l-45 45h-45v45l-45 45h-45v45l-45 45v45h45v-45l45 -45h45v-45l45 -45h45v135l45 45h45v-45l45 -45h45v-45l45 -45h45v-45l45 -45v-45h-45v45l-45 45h-45v45l-45 45h-45v45
l-45 45v-180l45 -45h45v-90h-45l-45 -45v-135h45v45h45l45 45v45h45l45 45v45l45 -45l-45 -45v-45h-45l-45 -45v-45h-45l-45 -45h-90v180l45 45h-45l-45 -45v-45h-45l-45 -45v-45h-45l-45 -45h-45z" />
    <glyph glyph-name="onequarter" unicode="&#xbc;" horiz-adv-x="905" 
d="M225 610v90l45 -45v-45h-45zM225 520v90l45 -45v-45h-45zM225 520l45 -45v-45h-45v90zM0 520v90l45 45v45h135v-45h-90l-45 -45v-45h90v-180h90v45l45 -45l-45 -45h-135v180h-90zM325 45h-45l-45 -45v90h45l45 45v45l45 45v45h45l45 45v45l45 45v45h45l45 45v45l45 45v45
h45l45 45h-90l-45 -45v-45h-45l-45 -45v-45l-45 -45v-45h-45l-45 -45v-45l-45 -45v-45h-45l-45 -45v-45l-45 -45v-45h45l-45 -45h-90v90h45l45 45v45l45 45v45h45l45 45v45l45 45v45h45l45 45v45l45 45v45h45l45 45v45h135l45 -45l-45 -45v-45h-45l-45 -45v-45l-45 -45v-45
h-45l-45 -45v-45l-45 -45v-45h-45l-45 -45v-45l-45 -45v-45zM821 260v45l-45 45h45l45 -45v-45h-45zM506 170l45 45v45h45l45 45v45h90v-45h-45l-45 -45v-45h-45l-45 -45v-90h-45v90zM821 170v90l45 -45v-45h-45zM551 35v45h135l45 -45h90v45l45 -45l-45 -45h-135v45h-135z
M641 170l45 45h45v-90h-45z" />
    <glyph glyph-name="onehalf" unicode="&#xbd;" horiz-adv-x="875" 
d="M225 610v90l45 -45v-45h-45zM225 520v90l45 -45v-45h-45zM225 520l45 -45v-45h-45v90zM0 520v90l45 45v45h135v-45h-90l-45 -45v-45h90v-180h90v45l45 -45l-45 -45h-135v180h-90zM325 45h-45l-45 -45v90h45l45 45v45l45 45v45h45l45 45v45l45 45v45h45l45 45v45l45 45v45
h45l45 45h-90l-45 -45v-45h-45l-45 -45v-45l-45 -45v-45h-45l-45 -45v-45l-45 -45v-45h-45l-45 -45v-45l-45 -45v-45h45l-45 -45h-90v90h45l45 45v45l45 45v45h45l45 45v45l45 45v45h45l45 45v45l45 45v45h45l45 45v45h135l45 -45l-45 -45v-45h-45l-45 -45v-45l-45 -45v-45
h-45l-45 -45v-45l-45 -45v-45h-45l-45 -45v-45l-45 -45v-45zM506 215v90h45l45 45h90l-45 -45h-45v-45h135v-90h-45l-45 -45h-45v-45h-45v-45h270v45h-45l-45 45l45 45v45h45v45l-45 45h-45v45h90v-45l45 -45v-90h-45l-45 -45h45l45 -45v-90h-315l-45 45v90h45l45 45h45v45
h-135z" />
    <glyph glyph-name="threequarters" unicode="&#xbe;" horiz-adv-x="945" 
d="M315 520l45 -45v-45h-45v90zM45 565l-45 45v90h90v-45h-45v-45h45l45 -45v-45h45l45 -45l-45 -45h-135l45 -45h180v45h45l45 -45h-45l-45 -45h-225v45l-45 45l45 45h90l-45 45v45h-45zM225 520v90h45l45 45l-45 45h45l45 -45l-45 -45v-45h45v-45h-135zM365 45h-45
l-45 -45v90h45l45 45v45l45 45v45h45l45 45v45l45 45v45h45l45 45v45l45 45v45h45l45 45h-90l-45 -45v-45h-45l-45 -45v-45l-45 -45v-45h-45l-45 -45v-45l-45 -45v-45h-45l-45 -45v-45l-45 -45v-45h45l-45 -45h-90v90h45l45 45v45l45 45v45h45l45 45v45l45 45v45h45l45 45
v45l45 45v45h45l45 45v45h135l45 -45l-45 -45v-45h-45l-45 -45v-45l-45 -45v-45h-45l-45 -45v-45l-45 -45v-45h-45l-45 -45v-45l-45 -45v-45zM861 260v45l-45 45h45l45 -45v-45h-45zM546 170l45 45v45h45l45 45v45h90v-45h-45l-45 -45v-45h-45l-45 -45v-90h-45v90zM861 170
v90l45 -45v-45h-45zM591 35v45h135l45 -45h90v45l45 -45l-45 -45h-135v45h-135zM681 170l45 45h45v-90h-45z" />
    <glyph glyph-name="questiondown" unicode="&#xbf;" horiz-adv-x="649" 
d="M585 45l45 -45v-45h-45v90zM0 45l45 45v45l45 45v45h45l45 45h45l-45 45v180h45v-180h180v180h45v-315l-45 -45v-45h-45l-45 -45h45l45 45h225v-45h-225v-45h-90l-45 45l45 45v45h45l45 45v45h-225v-45h-45l-45 -45v-45l-45 -45v-90l45 -45h45v-45h45l45 -45h180v45h90
l45 45v45h45l45 -45h-45l-45 -45v-45h-90l-45 -45h-225v45h-45l-45 45h-45v45l-45 45v90z" />
    <glyph glyph-name="Agrave" unicode="&#xc0;" horiz-adv-x="755" 
d="M360 315h45v45h-45v-45zM0 0v180h45v90l45 45v135h45v90l45 45v45l45 45v45h270l45 -45h45v-135l45 -45v-90h45v-135l45 -45v-90h45v-45h-90v135l-45 45v90h-45v135l-45 45v90h-45v45h-225l-45 -45v-45l-45 -45v-135h-45v-90l-45 -45v-135h-45v-90h180v45l45 45h225v-45
l45 -45h180v45l45 -45l-45 -45h-225v45l-45 45h-180v-45l-45 -45h-225zM315 270v180l45 -45v45l45 -45h45v-90l-45 -45h-90zM389 810v45l-45 45h45l45 -45h45v-45h-90zM254 720v45l-45 45h-45v45l-45 45h45l45 -45h45v-45l45 -45h180v-45h-225z" />
    <glyph glyph-name="Aacute" unicode="&#xc1;" horiz-adv-x="755" 
d="M360 315h45v45h-45v-45zM0 0v180h45v90l45 45v135h45v90l45 45v45l45 45v45h270l45 -45h45v-135l45 -45v-90h45v-135l45 -45v-90h45v-45h-90v135l-45 45v90h-45v135l-45 45v90h-45v45h-225l-45 -45v-45l-45 -45v-135h-45v-90l-45 -45v-135h-45v-90h180v45l45 45h225v-45
l45 -45h180v45l45 -45l-45 -45h-225v45l-45 45h-180v-45l-45 -45h-225zM315 270v180l45 -45v45l45 -45h45v-90l-45 -45h-90zM279 720l-45 45l45 45v45h45l45 45h45l-45 -45v-45h-45l-45 -45h180l45 45v45h90v-45h-45l-45 -45v-45h-225z" />
    <glyph glyph-name="Acircumflex" unicode="&#xc2;" horiz-adv-x="755" 
d="M360 315h45v45h-45v-45zM0 0v180h45v90l45 45v135h45v90l45 45v45l45 45v45h270l45 -45h45v-135l45 -45v-90h45v-135l45 -45v-90h45v-45h-90v135l-45 45v90h-45v135l-45 45v90h-45v45h-225l-45 -45v-45l-45 -45v-135h-45v-90l-45 -45v-135h-45v-90h180v45l45 45h225v-45
l45 -45h180v45l45 -45l-45 -45h-225v45l-45 45h-180v-45l-45 -45h-225zM315 270v180l45 -45v45l45 -45h45v-90l-45 -45h-90zM148 720v90l45 45v45h90v-45h-45l-45 -45v-45h90v45h135l45 -45h90v45l45 -45l-45 -45h-135v45h-90l-45 -45h-135zM508 810v45l-45 45h45l45 -45h45
v-45h-90z" />
    <glyph glyph-name="Atilde" unicode="&#xc3;" horiz-adv-x="755" 
d="M360 315h45v45h-45v-45zM0 0v180h45v90l45 45v135h45v90l45 45v45l45 45v45h270l45 -45h45v-135l45 -45v-90h45v-135l45 -45v-90h45v-45h-90v135l-45 45v90h-45v135l-45 45v90h-45v45h-225l-45 -45v-45l-45 -45v-135h-45v-90l-45 -45v-135h-45v-90h180v45l45 45h225v-45
l45 -45h180v45l45 -45l-45 -45h-225v45l-45 45h-180v-45l-45 -45h-225zM315 270v180l45 -45v45l45 -45h45v-90l-45 -45h-90zM394 855l-45 45h135v-45h-90zM169 720v180h90v-45h-45v-90h45v45h90l45 -45h90v45h45l45 45v45l45 -45l-45 -45v-45h-45l-45 -45h-135v45h-45
l-45 -45h-90z" />
    <glyph glyph-name="Adieresis" unicode="&#xc4;" horiz-adv-x="755" 
d="M360 315h45v45h-45v-45zM0 0v180h45v90l45 45v135h45v90l45 45v45l45 45v45h270l45 -45h45v-135l45 -45v-90h45v-135l45 -45v-90h45v-45h-90v135l-45 45v90h-45v135l-45 45v90h-45v45h-225l-45 -45v-45l-45 -45v-135h-45v-90l-45 -45v-135h-45v-90h180v45l45 45h225v-45
l45 -45h180v45l45 -45l-45 -45h-225v45l-45 45h-180v-45l-45 -45h-225zM315 270v180l45 -45v45l45 -45h45v-90l-45 -45h-90zM558 810v90l45 -45v-45h-45zM423 720v180h45v-135h90v45l45 -45l-45 -45h-135zM153 720v180h45v-135h90v135h45v-135l-45 -45h-135z" />
    <glyph glyph-name="Aring" unicode="&#xc5;" horiz-adv-x="755" 
d="M360 315h45v45h-45v-45zM0 0v180h45v90l45 45v135h45v90l45 45v45l45 45v45h270l45 -45h45v-135l45 -45v-90h45v-135l45 -45v-90h45v-45h-90v135l-45 45v90h-45v135l-45 45v90h-45v45h-225l-45 -45v-45l-45 -45v-135h-45v-90l-45 -45v-135h-45v-90h180v45l45 45h225v-45
l45 -45h180v45l45 -45l-45 -45h-225v45l-45 45h-180v-45l-45 -45h-225zM315 270v180l45 -45v45l45 -45h45v-90l-45 -45h-90zM273 720v180l45 45h135v-45l45 -45v-45h-45v45l-45 45h-45l45 -45l-45 -45h-45v-45h90v45h45l45 -45h-45l-45 -45h-135z" />
    <glyph glyph-name="AE" unicode="&#xc6;" horiz-adv-x="1005" 
d="M675 675v45h270l45 -45v-45h-45v45h-270zM945 540v90l45 -45v-45h-45zM0 0v180h45v90l45 45v45l45 45v135h45v90l45 45v45h405l45 -45h-405l-45 -45v-135h-45v-90l-45 -45v-45l-45 -45v-135h-45v-90h180v45h45l45 45h135v-90h495v45l45 -45l-45 -45h-540v90h-90v-45h-45
l-45 -45h-225zM315 270v90l45 45v135h45l45 -45v-180l-45 -45h-90zM945 90v90l45 -45v-45h-45zM360 315h45v90l-45 -45v-45zM630 180v90h270v135h-225l-45 45v90h315l45 -45h-315v-45h225l45 -45v-180h45v-45h-360z" />
    <glyph glyph-name="Ccedilla" unicode="&#xc7;" horiz-adv-x="733" 
d="M675 495v45l45 -45h-45zM270 180v270l45 45v45h90l45 -45h45v-45h180l45 -45h-225l-45 45h-45v45h-45l-45 -45v-225h90v45h270l45 -45h-270l-45 -45h-135zM675 135v45l45 -45h-45zM45 90v90h-45v360h45v90h45l45 45h45v45h360l45 -45h45v-45l45 -45v-45h-45v45l-45 45
h-45v45h-315l-45 -45h-45v-45h-45v-90h-45v-270h45v-90h45v-45l45 -45h90v-45l45 -45v-45h45l45 -45l-45 -45h45l45 45v45h-45v90h45l45 45h90v45h45l45 45v-90h-45l-45 -45h-90v-135l-45 -45v-45h-135l-45 45l45 45l-45 45v45l-45 45h-90v45l-45 45h-45z" />
    <glyph glyph-name="Egrave" unicode="&#xc8;" horiz-adv-x="667" 
d="M585 720l45 -45v-45h-45v45h-495v-630h45l-45 -45h-45v720h540zM630 540h-45v90l45 -45v-45zM585 540l45 -45h-315v-45h270l45 -45v-45h-45v45h-270l-45 45v90h315zM630 270h-45v90l45 -45v-45zM585 270l45 -45v-45h-360v90h315zM225 0h-90v45h135zM270 0v45h360l-45 -45
h-315zM345 810v45l-45 45h45l45 -45h45v-45h-90zM210 720v45l-45 45h-45v45l-45 45h45l45 -45h45v-45l45 -45h180v-45h-225z" />
    <glyph glyph-name="Eacute" unicode="&#xc9;" horiz-adv-x="667" 
d="M585 720l45 -45v-45h-45v45h-495v-630h45l-45 -45h-45v720h540zM630 540h-45v90l45 -45v-45zM585 540l45 -45h-315v-45h270l45 -45v-45h-45v45h-270l-45 45v90h315zM630 270h-45v90l45 -45v-45zM585 270l45 -45v-45h-360v90h315zM225 0h-90v45h135zM270 0v45h360l-45 -45
h-315zM235 720l-45 45l45 45v45h45l45 45h45l-45 -45v-45h-45l-45 -45h180l45 45v45h90v-45h-45l-45 -45v-45h-225z" />
    <glyph glyph-name="Ecircumflex" unicode="&#xca;" horiz-adv-x="667" 
d="M585 720l45 -45v-45h-45v45h-495v-630h45l-45 -45h-45v720h540zM630 540h-45v90l45 -45v-45zM585 540l45 -45h-315v-45h270l45 -45v-45h-45v45h-270l-45 45v90h315zM630 270h-45v90l45 -45v-45zM585 270l45 -45v-45h-360v90h315zM225 0h-90v45h135zM270 0v45h360l-45 -45
h-315zM104 720v90l45 45v45h90v-45h-45l-45 -45v-45h90v45h135l45 -45h90v45l45 -45l-45 -45h-135v45h-90l-45 -45h-135zM464 810v45l-45 45h45l45 -45h45v-45h-90z" />
    <glyph glyph-name="Edieresis" unicode="&#xcb;" horiz-adv-x="667" 
d="M585 720l45 -45v-45h-45v45h-495v-630h45l-45 -45h-45v720h540zM630 540h-45v90l45 -45v-45zM585 540l45 -45h-315v-45h270l45 -45v-45h-45v45h-270l-45 45v90h315zM630 270h-45v90l45 -45v-45zM585 270l45 -45v-45h-360v90h315zM225 0h-90v45h135zM270 0v45h360l-45 -45
h-315zM514 810v90l45 -45v-45h-45zM379 720v180h45v-135h90v45l45 -45l-45 -45h-135zM109 720v180h45v-135h90v135h45v-135l-45 -45h-135z" />
    <glyph glyph-name="Igrave" unicode="&#xcc;" horiz-adv-x="368" 
d="M270 540v90l45 -45v-45h-45zM270 450v90l45 -45v-45h-45zM45 450v270h225l45 -45v-45h-45v45h-180v-180zM270 360v90l45 -45v-45h-45zM270 270v90l45 -45v-45h-45zM270 180v90l45 -45v-45h-45zM270 90v90l45 -45v-45h-45zM45 0v450l45 -45v-360h180v45l45 -45l-45 -45
h-225zM195 810v45l-45 45h45l45 -45h45v-45h-90zM60 720v45l-45 45h-45v45l-45 45h45l45 -45h45v-45l45 -45h180v-45h-225z" />
    <glyph glyph-name="Iacute" unicode="&#xcd;" horiz-adv-x="368" 
d="M270 540v90l45 -45v-45h-45zM270 450v90l45 -45v-45h-45zM45 450v270h225l45 -45v-45h-45v45h-180v-180zM270 360v90l45 -45v-45h-45zM270 270v90l45 -45v-45h-45zM270 180v90l45 -45v-45h-45zM270 90v90l45 -45v-45h-45zM45 0v450l45 -45v-360h180v45l45 -45l-45 -45
h-225zM85 720l-45 45l45 45v45h45l45 45h45l-45 -45v-45h-45l-45 -45h180l45 45v45h90v-45h-45l-45 -45v-45h-225z" />
    <glyph glyph-name="Icircumflex" unicode="&#xce;" horiz-adv-x="368" 
d="M270 540v90l45 -45v-45h-45zM270 450v90l45 -45v-45h-45zM45 450v270h225l45 -45v-45h-45v45h-180v-180zM270 360v90l45 -45v-45h-45zM270 270v90l45 -45v-45h-45zM270 180v90l45 -45v-45h-45zM270 90v90l45 -45v-45h-45zM45 0v450l45 -45v-360h180v45l45 -45l-45 -45
h-225zM-46 720v90l45 45v45h90v-45h-45l-45 -45v-45h90v45h135l45 -45h90v45l45 -45l-45 -45h-135v45h-90l-45 -45h-135zM314 810v45l-45 45h45l45 -45h45v-45h-90z" />
    <glyph glyph-name="Idieresis" unicode="&#xcf;" horiz-adv-x="368" 
d="M270 540v90l45 -45v-45h-45zM270 450v90l45 -45v-45h-45zM45 450v270h225l45 -45v-45h-45v45h-180v-180zM270 360v90l45 -45v-45h-45zM270 270v90l45 -45v-45h-45zM270 180v90l45 -45v-45h-45zM270 90v90l45 -45v-45h-45zM45 0v450l45 -45v-360h180v45l45 -45l-45 -45
h-225zM364 810v90l45 -45v-45h-45zM229 720v180h45v-135h90v45l45 -45l-45 -45h-135zM-41 720v180h45v-135h90v135h45v-135l-45 -45h-135z" />
    <glyph glyph-name="Eth" unicode="&#xd0;" horiz-adv-x="766" 
d="M405 450v45h-45v-45h45l45 -45v45h-45zM360 225h90v90l-45 -45h-45v-45zM675 180l45 45v-45h-45zM45 0v270h-45v180h45v270h495l45 -45h90v-45l45 -45v-45h-45v45l-45 45h-90v45h-450v-270h-45v-90h45v-270h495v45h45l45 45v45l45 -45l-45 -45v-45h-45l-45 -45h-540z
M315 180v90l45 45h45v90h-45l-45 45v90h90l45 -45h45v-270l-45 -45h-135z" />
    <glyph glyph-name="Ntilde" unicode="&#xd1;" horiz-adv-x="740" 
d="M45 180v360l45 -45v-270zM45 0v180h45v-135h180v225h45l45 -45v-45l45 -45h45v-90h225v-45h-270v90h-45v45l-45 45v-135l-45 -45h-225zM45 540v180h225l45 -45v-45l45 -45h45v-90h45v225h180l45 -45h-180v-270l-45 -45h-45v90h-45v90h-45v45l-45 45v45h-180v-135h-45z
M386 855l-45 45h135v-45h-90zM161 720v180h90v-45h-45v-90h45v45h90l45 -45h90v45h45l45 45v45l45 -45l-45 -45v-45h-45l-45 -45h-135v45h-45l-45 -45h-90z" />
    <glyph glyph-name="Ograve" unicode="&#xd2;" horiz-adv-x="742" 
d="M540 630v45h90v-45l45 -45v-45h-45v45l-45 45h-45zM675 495v45l45 -45h-45zM675 405v45l45 -45h-45zM675 315v45l45 -45h-45zM675 225v45l45 -45h-45zM270 180v270l45 45v45h90l45 -45v-270l-45 -45h-135zM45 90v90h-45v360h45v90h45l45 45h90l-45 -45h-45v-45h-45v-90
h-45v-270h45v-90h45v-45l45 -45h90v-45h180l45 45h90v45h45v90h45l45 -45h-45v-90h-45l-45 -45h-90v-45h-225l-45 45h-90v45l-45 45h-45zM405 225v270h-45l-45 -45v-225h90zM382 810v45l-45 45h45l45 -45h45v-45h-90zM247 720v45l-45 45h-45v45l-45 45h45l45 -45h45v-45
l45 -45h180v-45h-225z" />
    <glyph glyph-name="Oacute" unicode="&#xd3;" horiz-adv-x="742" 
d="M540 630v45h90v-45l45 -45v-45h-45v45l-45 45h-45zM675 495v45l45 -45h-45zM675 405v45l45 -45h-45zM675 315v45l45 -45h-45zM675 225v45l45 -45h-45zM270 180v270l45 45v45h90l45 -45v-270l-45 -45h-135zM45 90v90h-45v360h45v90h45l45 45h90l-45 -45h-45v-45h-45v-90
h-45v-270h45v-90h45v-45l45 -45h90v-45h180l45 45h90v45h45v90h45l45 -45h-45v-90h-45l-45 -45h-90v-45h-225l-45 45h-90v45l-45 45h-45zM405 225v270h-45l-45 -45v-225h90zM272 720l-45 45l45 45v45h45l45 45h45l-45 -45v-45h-45l-45 -45h180l45 45v45h90v-45h-45l-45 -45
v-45h-225z" />
    <glyph glyph-name="Ocircumflex" unicode="&#xd4;" horiz-adv-x="742" 
d="M540 630v45h90v-45l45 -45v-45h-45v45l-45 45h-45zM675 495v45l45 -45h-45zM675 405v45l45 -45h-45zM675 315v45l45 -45h-45zM675 225v45l45 -45h-45zM270 180v270l45 45v45h90l45 -45v-270l-45 -45h-135zM45 90v90h-45v360h45v90h45l45 45h90l-45 -45h-45v-45h-45v-90
h-45v-270h45v-90h45v-45l45 -45h90v-45h180l45 45h90v45h45v90h45l45 -45h-45v-90h-45l-45 -45h-90v-45h-225l-45 45h-90v45l-45 45h-45zM405 225v270h-45l-45 -45v-225h90zM141 720v90l45 45v45h90v-45h-45l-45 -45v-45h90v45h135l45 -45h90v45l45 -45l-45 -45h-135v45h-90
l-45 -45h-135zM501 810v45l-45 45h45l45 -45h45v-45h-90z" />
    <glyph glyph-name="Otilde" unicode="&#xd5;" horiz-adv-x="742" 
d="M540 630v45h90v-45l45 -45v-45h-45v45l-45 45h-45zM675 495v45l45 -45h-45zM675 405v45l45 -45h-45zM675 315v45l45 -45h-45zM675 225v45l45 -45h-45zM270 180v270l45 45v45h90l45 -45v-270l-45 -45h-135zM45 90v90h-45v360h45v90h45l45 45h90l-45 -45h-45v-45h-45v-90
h-45v-270h45v-90h45v-45l45 -45h90v-45h180l45 45h90v45h45v90h45l45 -45h-45v-90h-45l-45 -45h-90v-45h-225l-45 45h-90v45l-45 45h-45zM405 225v270h-45l-45 -45v-225h90zM387 855l-45 45h135v-45h-90zM162 720v180h90v-45h-45v-90h45v45h90l45 -45h90v45h45l45 45v45
l45 -45l-45 -45v-45h-45l-45 -45h-135v45h-45l-45 -45h-90z" />
    <glyph glyph-name="Odieresis" unicode="&#xd6;" horiz-adv-x="742" 
d="M540 630v45h90v-45l45 -45v-45h-45v45l-45 45h-45zM675 495v45l45 -45h-45zM675 405v45l45 -45h-45zM675 315v45l45 -45h-45zM675 225v45l45 -45h-45zM270 180v270l45 45v45h90l45 -45v-270l-45 -45h-135zM45 90v90h-45v360h45v90h45l45 45h90l-45 -45h-45v-45h-45v-90
h-45v-270h45v-90h45v-45l45 -45h90v-45h180l45 45h90v45h45v90h45l45 -45h-45v-90h-45l-45 -45h-90v-45h-225l-45 45h-90v45l-45 45h-45zM405 225v270h-45l-45 -45v-225h90zM551 810v90l45 -45v-45h-45zM416 720v180h45v-135h90v45l45 -45l-45 -45h-135zM146 720v180h45
v-135h90v135h45v-135l-45 -45h-135z" />
    <glyph glyph-name="multiply" unicode="&#xd7;" horiz-adv-x="639" 
d="M225 495v45l-45 45h45l45 -45h45v-45l45 45v45h135l45 -45h45v-45l45 -45h-45l-45 45h-45v45h-90l-45 -45v-45h-45l-45 45h-45zM495 225v45l-45 45l45 45v45h45l45 45v-90h-45l-45 -45l45 -45h45v-45l45 -45h-45l-45 45h-45zM90 45v45l-45 45h-45v90h45l45 45v90l-45 45
h-45v90h45l45 45v45h90v-45h-45l-45 -45v-90l45 -45v-45h45v-45h-45l-45 -45v-90l45 -45h45v-45l45 45v45h45l45 45h45v-45l45 -45h45v-45h45l45 45v45h45l45 -45h-45l-45 -45v-45h-90l-45 45h-45v45l-45 45v-45h-45l-45 -45v-45h-45l-45 45h-45z" />
    <glyph glyph-name="Oslash" unicode="&#xd8;" horiz-adv-x="742" 
d="M540 720v45h90v-45h-45l-45 -45h-315v-45h-90l-45 -45v-45l-45 -45v-270l45 -45v-45l45 -45v-45h90l45 -45h180v45h135l45 45v45l45 45v-90l-45 -45v-45h-135l-45 -45h-225v45h-45v-90h-90l-45 45v90h45v45l-45 45v45l-45 45v270l45 45v45l45 45v45h90l45 45h315z
M630 765h45l45 -45h-45zM675 585l45 -45h-45l-45 45h-45v90h45l45 45v-135zM450 450h-45v-90h-45l-45 -45h-45v180h45l45 45h90v-90zM720 450h-45v45zM315 450v-45h45v45h-45zM720 360h-45v45zM315 225l45 45v45l45 45h45v-180h-90zM720 270h-45v45zM360 225h45v45zM675 180
v45l45 -45h-45zM90 -45h45v45h-45v-45z" />
    <glyph glyph-name="Ugrave" unicode="&#xd9;" horiz-adv-x="746" 
d="M675 585v90l45 -45v-45h-45zM675 495v90l45 -45v-45h-45zM675 405v90l45 -45v-45h-45zM675 315v90l45 -45v-45h-45zM270 225v450h45v-450h90v450h45v-495h-135zM675 225v90l45 -45v-45h-45zM45 225v450h45v-405zM90 45v45l-45 45v90h45v-90l45 -45h45v-45h45l45 -45h180
v45h135l45 45v45l45 45v45l45 -45l-45 -45v-45l-45 -45v-45h-135l-45 -45h-225v45h-45l-45 45h-45zM384 810v45l-45 45h45l45 -45h45v-45h-90zM249 720v45l-45 45h-45v45l-45 45h45l45 -45h45v-45l45 -45h180v-45h-225z" />
    <glyph glyph-name="Uacute" unicode="&#xda;" horiz-adv-x="746" 
d="M675 585v90l45 -45v-45h-45zM675 495v90l45 -45v-45h-45zM675 405v90l45 -45v-45h-45zM675 315v90l45 -45v-45h-45zM270 225v450h45v-450h90v450h45v-495h-135zM675 225v90l45 -45v-45h-45zM45 225v450h45v-405zM90 45v45l-45 45v90h45v-90l45 -45h45v-45h45l45 -45h180
v45h135l45 45v45l45 45v45l45 -45l-45 -45v-45l-45 -45v-45h-135l-45 -45h-225v45h-45l-45 45h-45zM274 720l-45 45l45 45v45h45l45 45h45l-45 -45v-45h-45l-45 -45h180l45 45v45h90v-45h-45l-45 -45v-45h-225z" />
    <glyph glyph-name="Ucircumflex" unicode="&#xdb;" horiz-adv-x="746" 
d="M675 585v90l45 -45v-45h-45zM675 495v90l45 -45v-45h-45zM675 405v90l45 -45v-45h-45zM675 315v90l45 -45v-45h-45zM270 225v450h45v-450h90v450h45v-495h-135zM675 225v90l45 -45v-45h-45zM45 225v450h45v-405zM90 45v45l-45 45v90h45v-90l45 -45h45v-45h45l45 -45h180
v45h135l45 45v45l45 45v45l45 -45l-45 -45v-45l-45 -45v-45h-135l-45 -45h-225v45h-45l-45 45h-45zM143 720v90l45 45v45h90v-45h-45l-45 -45v-45h90v45h135l45 -45h90v45l45 -45l-45 -45h-135v45h-90l-45 -45h-135zM503 810v45l-45 45h45l45 -45h45v-45h-90z" />
    <glyph glyph-name="Udieresis" unicode="&#xdc;" horiz-adv-x="746" 
d="M675 585v90l45 -45v-45h-45zM675 495v90l45 -45v-45h-45zM675 405v90l45 -45v-45h-45zM675 315v90l45 -45v-45h-45zM270 225v450h45v-450h90v450h45v-495h-135zM675 225v90l45 -45v-45h-45zM45 225v450h45v-405zM90 45v45l-45 45v90h45v-90l45 -45h45v-45h45l45 -45h180
v45h135l45 45v45l45 45v45l45 -45l-45 -45v-45l-45 -45v-45h-135l-45 -45h-225v45h-45l-45 45h-45zM553 810v90l45 -45v-45h-45zM418 720v180h45v-135h90v45l45 -45l-45 -45h-135zM148 720v180h45v-135h90v135h45v-135l-45 -45h-135z" />
    <glyph glyph-name="Yacute" unicode="&#xdd;" horiz-adv-x="710" 
d="M225 90v135l-45 45v45l-45 45v45l-45 45v45l-45 45v45l-45 45v90h225l45 -45h45v-90h45v-45l45 45v45l45 45v45h225l45 -45v-45h-45v45h-180l-45 -45v-45l-45 -45v-45l-45 -45h-45v90h-45v90h-45v45h-180v-45l45 -45v-45l45 -45v-45l45 -45v-45l45 -45v-45l45 -45v-90z
M360 0v45h90v225h45v90h45v90h45v90h45v90h45l45 -45h-45v-90h-45v-90h-45v-90h-45v-90h-45v-180l-45 -45h-90zM225 0v90h45v-45h90l-45 -45h-90zM256 720l-45 45l45 45v45h45l45 45h45l-45 -45v-45h-45l-45 -45h180l45 45v45h90v-45h-45l-45 -45v-45h-225z" />
    <glyph glyph-name="Thorn" unicode="&#xde;" horiz-adv-x="705" 
d="M315 315h90v90h-90v-90zM45 0v720h225l45 -45h45v-45h135l45 -45h90v-45l45 -45v-45l45 -45v-45h-45v45l-45 45v45l-45 45h-90v45h-135l-45 45h-45v45h-180v-630h225v45l45 45h135v45h90l45 45v45l45 45v45l45 -45l-45 -45v-45l-45 -45v-45h-90l-45 -45h-135v-45l-45 -45
h-270zM270 270v180h135l45 -45v-90l-45 -45h-135z" />
    <glyph glyph-name="germandbls" unicode="&#xdf;" horiz-adv-x="682" 
d="M45 450v180h45l45 45v45h360l45 -45h45v-45l45 -45v-225l45 -45v-45h-45v45l-45 45v225l-45 45h-45v45h-315l-45 -45v-45h-45v-90zM360 450v45h-45v-45h45zM630 180v90l45 -45v-45h-45zM360 180l45 45l-45 45h-45v-90h45zM45 0v450h45v-405h180l-45 -45h-180zM270 0v45
h270v45h45l45 45v45l45 -45l-45 -45v-45h-45l-45 -45h-270zM315 405l-45 45v90h90l45 -45v-90h-90zM270 180v90l45 45h90v-45l45 -45l-45 -45v-45h-90z" />
    <glyph glyph-name="agrave" unicode="&#xe0;" horiz-adv-x="622" 
d="M495 405v45l-45 45h45l45 -45h45v-45h-90zM540 315v90l45 -45v-45h-45zM540 225v90l45 -45v-45h-45zM540 135v90l45 -45v-45h-45zM540 45v90l45 -45v-45h-45zM0 45v180l45 45v225h135v-45h-90v-90h135v45h90l45 -45h-45v-45h-90v-45h-135l-45 -45v-135h45v-45h45l45 -45
h90v45h270l45 -45h-270l-45 -45h-135v45h-45l-45 45h-45zM225 135v90h90l45 -45l-45 -45h-90zM189 585v45h-45l-45 45h-45v90h45v-45h45v-45h45l45 -45h135l-45 45v45h-45l-45 45h90l45 -45v-45l45 -45l-45 -45h-180z" />
    <glyph glyph-name="aacute" unicode="&#xe1;" horiz-adv-x="622" 
d="M495 405v45l-45 45h45l45 -45h45v-45h-90zM540 315v90l45 -45v-45h-45zM540 225v90l45 -45v-45h-45zM540 135v90l45 -45v-45h-45zM540 45v90l45 -45v-45h-45zM0 45v180l45 45v225h135v-45h-90v-90h135v45h90l45 -45h-45v-45h-90v-45h-135l-45 -45v-135h45v-45h45l45 -45
h90v45h270l45 -45h-270l-45 -45h-135v45h-45l-45 45h-45zM225 135v90h90l45 -45l-45 -45h-90zM204 585v90h45v90h135v-45h-90v-90h90v45h90l45 45v45l45 -45l-45 -45v-45h-90l-45 -45h-180z" />
    <glyph glyph-name="acircumflex" unicode="&#xe2;" horiz-adv-x="622" 
d="M495 405v45l-45 45h45l45 -45h45v-45h-90zM540 315v90l45 -45v-45h-45zM540 225v90l45 -45v-45h-45zM540 135v90l45 -45v-45h-45zM540 45v90l45 -45v-45h-45zM0 45v180l45 45v225h135v-45h-90v-90h135v45h90l45 -45h-45v-45h-90v-45h-135l-45 -45v-135h45v-45h45l45 -45
h90v45h270l45 -45h-270l-45 -45h-135v45h-45l-45 45h-45zM225 135v90h90l45 -45l-45 -45h-90zM91 585v90h45l45 45v45h90v-45h-45l-45 -45v-45h90v45h45l45 -45h135l-45 45h-45v45l-45 45h45l45 -45h45v-45l45 -45l-45 -45h-180v45l-45 -45h-180z" />
    <glyph glyph-name="atilde" unicode="&#xe3;" horiz-adv-x="622" 
d="M495 405v45l-45 45h45l45 -45h45v-45h-90zM540 315v90l45 -45v-45h-45zM540 225v90l45 -45v-45h-45zM540 135v90l45 -45v-45h-45zM540 45v90l45 -45v-45h-45zM0 45v180l45 45v225h135v-45h-90v-90h135v45h90l45 -45h-45v-45h-90v-45h-135l-45 -45v-135h45v-45h45l45 -45
h90v45h270l45 -45h-270l-45 -45h-135v45h-45l-45 45h-45zM225 135v90h90l45 -45l-45 -45h-90zM506 720l-45 45h45v-45zM281 720l-45 45h180v-45h-135zM101 585v180h135v-45h-90v-90h315v45l45 45v-90l-45 -45h-360z" />
    <glyph glyph-name="adieresis" unicode="&#xe4;" horiz-adv-x="622" 
d="M495 405v45l-45 45h45l45 -45h45v-45h-90zM540 315v90l45 -45v-45h-45zM540 225v90l45 -45v-45h-45zM540 135v90l45 -45v-45h-45zM540 45v90l45 -45v-45h-45zM0 45v180l45 45v225h135v-45h-90v-90h135v45h90l45 -45h-45v-45h-90v-45h-135l-45 -45v-135h45v-45h45l45 -45
h90v45h270l45 -45h-270l-45 -45h-135v45h-45l-45 45h-45zM225 135v90h90l45 -45l-45 -45h-90zM505 675v45l-45 45h45l45 -45v-45h-45zM100 585v180h45v-135h90v135h45v-135l-45 -45h-135zM325 585v180h45v-135h135v45l45 -45l-45 -45h-180z" />
    <glyph glyph-name="aring" unicode="&#xe5;" horiz-adv-x="622" 
d="M495 405v45l-45 45h45l45 -45h45v-45h-90zM540 315v90l45 -45v-45h-45zM540 225v90l45 -45v-45h-45zM540 135v90l45 -45v-45h-45zM540 45v90l45 -45v-45h-45zM0 45v180l45 45v225h135v-45h-90v-90h135v45h90l45 -45h-45v-45h-90v-45h-135l-45 -45v-135h45v-45h45l45 -45
h90v45h270l45 -45h-270l-45 -45h-135v45h-45l-45 45h-45zM225 135v90h90l45 -45l-45 -45h-90zM205 585v180h45l45 45h90v-45l45 -45v-45h-45v45l-45 45h-45v-45h-45v-90h45l-45 45l45 45h45v-90h45v45l45 -45l-45 -45h-180z" />
    <glyph glyph-name="ae" unicode="&#xe6;" horiz-adv-x="935" 
d="M810 405v45l-45 45h45l45 -45h45v-45h-90zM855 315v90l45 -45v-45h-45zM585 315v90h45l45 -45l-45 -45h-45zM0 45v180l45 45v225h135v-45h-90v-90h135v45h90l45 -45l-45 -45h-90v-45h-135l-45 -45v-135h45v-45h45l45 -45h135v45h180l45 -45h135v45h135l45 45v45l45 -45
l-45 -45v-45h-135l-45 -45h-180v45h-135l-45 -45h-180v45h-45l-45 45h-45zM225 135v90h90l45 -45l-45 -45h-90zM540 135v90h315l45 -45v-45h-360z" />
    <glyph glyph-name="ccedilla" unicode="&#xe7;" horiz-adv-x="622" 
d="M585 315v45l45 -45h-45zM270 180v180h90l45 -45h180v-45h-225v45h-45v-135l45 45h225v-45h-225v-45h-45zM585 135v45l45 -45h-45zM90 0v45l-45 45v45l-45 45v180l45 45v45h45l45 45v45h315l45 -45h45v-45l45 -45v-45h-45v45l-45 45h-45v45h-270l-45 -45v-45h-45l-45 -45
v-180l45 -45v-45l45 -45h90v-45l45 -45v-45h45l45 -45l-45 -45h45l45 45l-45 45h-45v90h45l45 45h90v45h45l45 45v-90h-45l-45 -45h-90v-90l45 -45l-45 -45v-45h-135l-45 45l45 45l-45 45v45l-45 45h-90z" />
    <glyph glyph-name="egrave" unicode="&#xe8;" horiz-adv-x="623" 
d="M450 450v45h90v-45l45 -45v-45l45 -45h-45l-45 45v45l-45 45h-45zM90 0v45l-45 45v45l-45 45v180l45 45v45h45l45 45h45l-45 -45v-45h-45l-45 -45v-180l45 -45v-45l45 -45h90v-45h-135zM315 315l-45 45l45 45h45v-90h-45zM585 225v45l45 -45h-45zM225 -45v45h180l45 45
h45v45h45v45h-225l-45 45l45 45h270v-45h-45l45 -45v-90h-45l-45 -45h-45v-45h-225zM191 585v45h-45l-45 45h-45v90h45v-45h45v-45h45l45 -45h135l-45 45v45h-45l-45 45h90l45 -45v-45l45 -45l-45 -45h-180z" />
    <glyph glyph-name="eacute" unicode="&#xe9;" horiz-adv-x="623" 
d="M450 450v45h90v-45l45 -45v-45l45 -45h-45l-45 45v45l-45 45h-45zM90 0v45l-45 45v45l-45 45v180l45 45v45h45l45 45h45l-45 -45v-45h-45l-45 -45v-180l45 -45v-45l45 -45h90v-45h-135zM315 315l-45 45l45 45h45v-90h-45zM585 225v45l45 -45h-45zM225 -45v45h180l45 45
h45v45h45v45h-225l-45 45l45 45h270v-45h-45l45 -45v-90h-45l-45 -45h-45v-45h-225zM206 585v90h45v90h135v-45h-90v-90h90v45h90l45 45v45l45 -45l-45 -45v-45h-90l-45 -45h-180z" />
    <glyph glyph-name="ecircumflex" unicode="&#xea;" horiz-adv-x="623" 
d="M450 450v45h90v-45l45 -45v-45l45 -45h-45l-45 45v45l-45 45h-45zM90 0v45l-45 45v45l-45 45v180l45 45v45h45l45 45h45l-45 -45v-45h-45l-45 -45v-180l45 -45v-45l45 -45h90v-45h-135zM315 315l-45 45l45 45h45v-90h-45zM585 225v45l45 -45h-45zM225 -45v45h180l45 45
h45v45h45v45h-225l-45 45l45 45h270v-45h-45l45 -45v-90h-45l-45 -45h-45v-45h-225zM93 585v90h45l45 45v45h90v-45h-45l-45 -45v-45h90v45h45l45 -45h135l-45 45h-45v45l-45 45h45l45 -45h45v-45l45 -45l-45 -45h-180v45l-45 -45h-180z" />
    <glyph glyph-name="edieresis" unicode="&#xeb;" horiz-adv-x="623" 
d="M450 450v45h90v-45l45 -45v-45l45 -45h-45l-45 45v45l-45 45h-45zM90 0v45l-45 45v45l-45 45v180l45 45v45h45l45 45h45l-45 -45v-45h-45l-45 -45v-180l45 -45v-45l45 -45h90v-45h-135zM315 315l-45 45l45 45h45v-90h-45zM585 225v45l45 -45h-45zM225 -45v45h180l45 45
h45v45h45v45h-225l-45 45l45 45h270v-45h-45l45 -45v-90h-45l-45 -45h-45v-45h-225zM507 675v45l-45 45h45l45 -45v-45h-45zM102 585v180h45v-135h90v135h45v-135l-45 -45h-135zM327 585v180h45v-135h135v45l45 -45l-45 -45h-180z" />
    <glyph glyph-name="igrave" unicode="&#xec;" horiz-adv-x="323" 
d="M270 360v90l45 -45v-45h-45zM270 270v90l45 -45zM270 180v90l45 -45v-45h-45zM270 90v90l45 -45v-45h-45zM45 0v540h225l45 -45v-45h-45v45h-180v-450h180v45l45 -45l-45 -45h-225zM41 585v45h-45l-45 45h-45v90h45v-45h45v-45h45l45 -45h135l-45 45v45h-45l-45 45h90
l45 -45v-45l45 -45l-45 -45h-180z" />
    <glyph glyph-name="iacute" unicode="&#xed;" horiz-adv-x="323" 
d="M270 360v90l45 -45v-45h-45zM270 270v90l45 -45zM270 180v90l45 -45v-45h-45zM270 90v90l45 -45v-45h-45zM45 0v540h225l45 -45v-45h-45v45h-180v-450h180v45l45 -45l-45 -45h-225zM56 585v90h45v90h135v-45h-90v-90h90v45h90l45 45v45l45 -45l-45 -45v-45h-90l-45 -45
h-180z" />
    <glyph glyph-name="icircumflex" unicode="&#xee;" horiz-adv-x="323" 
d="M270 360v90l45 -45v-45h-45zM270 270v90l45 -45zM270 180v90l45 -45v-45h-45zM270 90v90l45 -45v-45h-45zM45 0v540h225l45 -45v-45h-45v45h-180v-450h180v45l45 -45l-45 -45h-225zM-57 585v90h45l45 45v45h90v-45h-45l-45 -45v-45h90v45h45l45 -45h135l-45 45h-45v45
l-45 45h45l45 -45h45v-45l45 -45l-45 -45h-180v45l-45 -45h-180z" />
    <glyph glyph-name="idieresis" unicode="&#xef;" horiz-adv-x="323" 
d="M270 360v90l45 -45v-45h-45zM270 270v90l45 -45zM270 180v90l45 -45v-45h-45zM270 90v90l45 -45v-45h-45zM45 0v540h225l45 -45v-45h-45v45h-180v-450h180v45l45 -45l-45 -45h-225zM357 675v45l-45 45h45l45 -45v-45h-45zM-48 585v180h45v-135h90v135h45v-135l-45 -45
h-135zM177 585v180h45v-135h135v45l45 -45l-45 -45h-180z" />
    <glyph glyph-name="eth" unicode="&#xf0;" horiz-adv-x="638" 
d="M405 630v45h90l-45 -45h-45zM540 450v45l-45 45v90h45v45h45v-90h-45v-45l45 -45v-45l45 -45h-45zM585 315v45l45 -45h-45zM585 225v45l45 -45h-45zM315 180l45 45l-45 45v-90zM585 135v45l45 -45h-45zM0 90v270h45l45 45v45h45v90l45 45h45l-45 45h-45v45h90v-45l45 -45
l-45 -45h-45v-45h45v45h90l45 -45l-45 -45h-90v-45h-90l-45 -45v-45h-45v-180h45v-45l45 -45h90v-45h180l45 45h45v45h45l45 45v-90h-45l-45 -45h-45v-45h-225l-45 45h-90v45l-45 45h-45zM270 180v90l45 45h45v-45l45 -45l-45 -45v-45h-45z" />
    <glyph glyph-name="ntilde" unicode="&#xf1;" horiz-adv-x="674" 
d="M630 180v90l45 -45v-45h-45zM630 90v90l45 -45v-45h-45zM45 0v540h225l45 -45v45h225l45 -45h45v-135l45 -45v-45h-45v45l-45 45v90h-45v45h-180l-45 -45h-45v45h-180v-450h180v315h90l45 -45v-270h225v45l45 -45l-45 -45h-270v315h-45v-270l-45 -45h-225zM536 720
l-45 45h45v-45zM311 720l-45 45h180v-45h-135zM131 585v180h135v-45h-90v-90h315v45l45 45v-90l-45 -45h-360z" />
    <glyph glyph-name="ograve" unicode="&#xf2;" horiz-adv-x="642" 
d="M450 450v45h135v-45l45 -45h-45l-45 45h-90zM585 315v45l45 -45h-45zM360 180v135l-45 45v-180h45zM90 0v45l-45 45v45l-45 45v180l45 45v45l45 45h90l-45 -45h-45v-45l-45 -45v-180l45 -45v-45l45 -45h90v-45h180l45 45h45v45h45l45 45v-90h-45l-45 -45h-45v-45h-225
l-45 45h-90zM585 225v45l45 -45h-45zM585 135v45l45 -45h-45zM270 180v180l45 45h45v-45l45 -45v-180h-90zM200 585v45h-45l-45 45h-45v90h45v-45h45v-45h45l45 -45h135l-45 45v45h-45l-45 45h90l45 -45v-45l45 -45l-45 -45h-180z" />
    <glyph glyph-name="oacute" unicode="&#xf3;" horiz-adv-x="642" 
d="M450 450v45h135v-45l45 -45h-45l-45 45h-90zM585 315v45l45 -45h-45zM360 180v135l-45 45v-180h45zM90 0v45l-45 45v45l-45 45v180l45 45v45l45 45h90l-45 -45h-45v-45l-45 -45v-180l45 -45v-45l45 -45h90v-45h180l45 45h45v45h45l45 45v-90h-45l-45 -45h-45v-45h-225
l-45 45h-90zM585 225v45l45 -45h-45zM585 135v45l45 -45h-45zM270 180v180l45 45h45v-45l45 -45v-180h-90zM215 585v90h45v90h135v-45h-90v-90h90v45h90l45 45v45l45 -45l-45 -45v-45h-90l-45 -45h-180z" />
    <glyph glyph-name="ocircumflex" unicode="&#xf4;" horiz-adv-x="642" 
d="M450 450v45h135v-45l45 -45h-45l-45 45h-90zM585 315v45l45 -45h-45zM360 180v135l-45 45v-180h45zM90 0v45l-45 45v45l-45 45v180l45 45v45l45 45h90l-45 -45h-45v-45l-45 -45v-180l45 -45v-45l45 -45h90v-45h180l45 45h45v45h45l45 45v-90h-45l-45 -45h-45v-45h-225
l-45 45h-90zM585 225v45l45 -45h-45zM585 135v45l45 -45h-45zM270 180v180l45 45h45v-45l45 -45v-180h-90zM102 585v90h45l45 45v45h90v-45h-45l-45 -45v-45h90v45h45l45 -45h135l-45 45h-45v45l-45 45h45l45 -45h45v-45l45 -45l-45 -45h-180v45l-45 -45h-180z" />
    <glyph glyph-name="otilde" unicode="&#xf5;" horiz-adv-x="642" 
d="M450 450v45h135v-45l45 -45h-45l-45 45h-90zM585 315v45l45 -45h-45zM360 180v135l-45 45v-180h45zM90 0v45l-45 45v45l-45 45v180l45 45v45l45 45h90l-45 -45h-45v-45l-45 -45v-180l45 -45v-45l45 -45h90v-45h180l45 45h45v45h45l45 45v-90h-45l-45 -45h-45v-45h-225
l-45 45h-90zM585 225v45l45 -45h-45zM585 135v45l45 -45h-45zM270 180v180l45 45h45v-45l45 -45v-180h-90zM517 720l-45 45h45v-45zM292 720l-45 45h180v-45h-135zM112 585v180h135v-45h-90v-90h315v45l45 45v-90l-45 -45h-360z" />
    <glyph glyph-name="odieresis" unicode="&#xf6;" horiz-adv-x="642" 
d="M450 450v45h135v-45l45 -45h-45l-45 45h-90zM585 315v45l45 -45h-45zM360 180v135l-45 45v-180h45zM90 0v45l-45 45v45l-45 45v180l45 45v45l45 45h90l-45 -45h-45v-45l-45 -45v-180l45 -45v-45l45 -45h90v-45h180l45 45h45v45h45l45 45v-90h-45l-45 -45h-45v-45h-225
l-45 45h-90zM585 225v45l45 -45h-45zM585 135v45l45 -45h-45zM270 180v180l45 45h45v-45l45 -45v-180h-90zM516 675v45l-45 45h45l45 -45v-45h-45zM111 585v180h45v-135h90v135h45v-135l-45 -45h-135zM336 585v180h45v-135h135v45l45 -45l-45 -45h-180z" />
    <glyph glyph-name="divide" unicode="&#xf7;" horiz-adv-x="517" 
d="M180 450h135v90h-135v-90zM450 180v45l45 -45h-45zM135 45v135h-90l-45 45v180h135v180h180l45 -45v-90l-45 -45h135l45 -45v-135h-45v135h-405v-135h90l45 -45v-135h135v180h90l45 -45h-90v-180h-180z" />
    <glyph glyph-name="oslash" unicode="&#xf8;" horiz-adv-x="642" 
d="M585 315v45l45 -45h-45zM585 225v45l45 -45h-45zM0 0l45 45v90l-45 45v180l45 45v45l45 45h45v45h450l45 -45h-45v-45l45 -45h-45l-45 45v45h-360l-45 -45h-45v-45l-45 -45v-180l45 -45v-90l-45 -45h45l45 45h90v-45h180l45 45h45v45h45l45 45v-90h-45l-45 -45h-45v-45
h-225l-45 45h-45v-45h-90zM315 180h45v45zM585 135v45l45 -45h-45zM270 270v90l45 45h45v-90l-45 -45h-45zM270 180l45 45v45h45l45 -45v-90h-90z" />
    <glyph glyph-name="ugrave" unicode="&#xf9;" horiz-adv-x="674" 
d="M270 180v315h45v-315h45v315h45v-360h-90zM90 0v45l-45 45v45l-45 45v315h45v-315l45 -45v-45l45 -45h45v-45h90l45 45h270v450h45v-450l-45 -45h-270v-45h-135l-45 45h-45zM216 585v45h-45l-45 45h-45v90h45v-45h45v-45h45l45 -45h135l-45 45v45h-45l-45 45h90l45 -45
v-45l45 -45l-45 -45h-180z" />
    <glyph glyph-name="uacute" unicode="&#xfa;" horiz-adv-x="674" 
d="M270 180v315h45v-315h45v315h45v-360h-90zM90 0v45l-45 45v45l-45 45v315h45v-315l45 -45v-45l45 -45h45v-45h90l45 45h270v450h45v-450l-45 -45h-270v-45h-135l-45 45h-45zM231 585v90h45v90h135v-45h-90v-90h90v45h90l45 45v45l45 -45l-45 -45v-45h-90l-45 -45h-180z
" />
    <glyph glyph-name="ucircumflex" unicode="&#xfb;" horiz-adv-x="674" 
d="M270 180v315h45v-315h45v315h45v-360h-90zM90 0v45l-45 45v45l-45 45v315h45v-315l45 -45v-45l45 -45h45v-45h90l45 45h270v450h45v-450l-45 -45h-270v-45h-135l-45 45h-45zM118 585v90h45l45 45v45h90v-45h-45l-45 -45v-45h90v45h45l45 -45h135l-45 45h-45v45l-45 45h45
l45 -45h45v-45l45 -45l-45 -45h-180v45l-45 -45h-180z" />
    <glyph glyph-name="udieresis" unicode="&#xfc;" horiz-adv-x="674" 
d="M270 180v315h45v-315h45v315h45v-360h-90zM90 0v45l-45 45v45l-45 45v315h45v-315l45 -45v-45l45 -45h45v-45h90l45 45h270v450h45v-450l-45 -45h-270v-45h-135l-45 45h-45zM532 675v45l-45 45h45l45 -45v-45h-45zM127 585v180h45v-135h90v135h45v-135l-45 -45h-135z
M352 585v180h45v-135h135v45l45 -45l-45 -45h-180z" />
    <glyph glyph-name="yacute" unicode="&#xfd;" horiz-adv-x="636" 
d="M585 405v90l45 -45v-45h-45zM270 315v90h-45v90h45v-45h45v-45h45v90h90v-45h-45v-90h-45v-90h-45zM135 -45l45 45v90l-45 45v45l-45 45v45l-45 45v90h-45v90h45v-45h45v-135l45 -45v-45l45 -45v-45l45 -45v-90l-45 -45v-135h135v45h45v90l45 45v45l45 45v45l45 45v135
h45v90h45l45 -45h-45v-90h-45v-90l-45 -45v-45l-45 -45v-45l-45 -45v-135h-45l-45 -45h-180v180zM217 585v90h45v90h135v-45h-90v-90h90v45h90l45 45v45l45 -45l-45 -45v-45h-90l-45 -45h-180z" />
    <glyph glyph-name="thorn" unicode="&#xfe;" horiz-adv-x="662" 
d="M270 495v180h45v-135h270v-90l-45 45h-270zM585 405v45h45v-45h-45zM585 315v90l45 -45v-45h-45zM585 135v90l45 -45v-45h-45zM270 135v180l45 45h90v-180l-45 -45h-90zM90 -180h180v225h45l45 -45h90v-45h-135v-135l-45 -45h-225v900h45v-855zM450 0v45h90l45 45v45
l45 -45l-45 -45v-45h-135zM360 180v135h-45v-135h45z" />
    <glyph glyph-name="ydieresis" unicode="&#xff;" horiz-adv-x="636" 
d="M585 405v90l45 -45v-45h-45zM270 315v90h-45v90h45v-45h45v-45h45v90h90v-45h-45v-90h-45v-90h-45zM135 -45l45 45v90l-45 45v45l-45 45v45l-45 45v90h-45v90h45v-45h45v-135l45 -45v-45l45 -45v-45l45 -45v-90l-45 -45v-135h135v45h45v90l45 45v45l45 45v45l45 45v135
h45v90h45l45 -45h-45v-90h-45v-90l-45 -45v-45l-45 -45v-45l-45 -45v-135h-45l-45 -45h-180v180zM518 675v45l-45 45h45l45 -45v-45h-45zM113 585v180h45v-135h90v135h45v-135l-45 -45h-135zM338 585v180h45v-135h135v45l45 -45l-45 -45h-180z" />
    <glyph glyph-name="Amacron" unicode="&#x100;" horiz-adv-x="755" 
d="M360 315h45v45h-45v-45zM0 0v180h45v90l45 45v135h45v90l45 45v45l45 45v45h270l45 -45h45v-135l45 -45v-90h45v-135l45 -45v-90h45v-45h-90v135l-45 45v90h-45v135l-45 45v90h-45v45h-225l-45 -45v-45l-45 -45v-135h-45v-90l-45 -45v-135h-45v-90h180v45l45 45h225v-45
l45 -45h180v45l45 -45l-45 -45h-225v45l-45 45h-180v-45l-45 -45h-225zM315 270v180l45 -45v45l45 -45h45v-90l-45 -45h-90zM566 810v90l45 -45v-45h-45zM161 720v180h45v-135h360v45l45 -45l-45 -45h-405z" />
    <glyph glyph-name="amacron" unicode="&#x101;" horiz-adv-x="622" 
d="M495 405v45l-45 45h45l45 -45h45v-45h-90zM540 315v90l45 -45v-45h-45zM540 225v90l45 -45v-45h-45zM540 135v90l45 -45v-45h-45zM540 45v90l45 -45v-45h-45zM0 45v180l45 45v225h135v-45h-90v-90h135v45h90l45 -45h-45v-45h-90v-45h-135l-45 -45v-135h45v-45h45l45 -45
h90v45h270l45 -45h-270l-45 -45h-135v45h-45l-45 45h-45zM225 135v90h90l45 -45l-45 -45h-90zM118 585v180h360l45 -45v-45h-45v45h-315v-90h315v45l45 -45l-45 -45h-360z" />
    <glyph glyph-name="Abreve" unicode="&#x102;" horiz-adv-x="755" 
d="M360 315h45v45h-45v-45zM0 0v180h45v90l45 45v135h45v90l45 45v45l45 45v45h270l45 -45h45v-135l45 -45v-90h45v-135l45 -45v-90h45v-45h-90v135l-45 45v90h-45v135l-45 45v90h-45v45h-225l-45 -45v-45l-45 -45v-135h-45v-90l-45 -45v-135h-45v-90h180v45l45 45h225v-45
l45 -45h180v45l45 -45l-45 -45h-225v45l-45 45h-180v-45l-45 -45h-225zM315 270v180l45 -45v45l45 -45h45v-90l-45 -45h-90zM511 810v90l45 -45v-45h-45zM331 810v90h90v-45l-45 -45h-45zM241 720v45l-45 45v90h45v-90l45 -45h180v45h45l45 -45h-45l-45 -45h-225z" />
    <glyph glyph-name="abreve" unicode="&#x103;" horiz-adv-x="622" 
d="M495 405v45l-45 45h45l45 -45h45v-45h-90zM540 315v90l45 -45v-45h-45zM540 225v90l45 -45v-45h-45zM540 135v90l45 -45v-45h-45zM540 45v90l45 -45v-45h-45zM0 45v180l45 45v225h135v-45h-90v-90h135v45h90l45 -45h-45v-45h-90v-45h-135l-45 -45v-135h45v-45h45l45 -45
h90v45h270l45 -45h-270l-45 -45h-135v45h-45l-45 45h-45zM225 135v90h90l45 -45l-45 -45h-90zM448 675v90l45 -45v-45h-45zM268 675v45l-45 45h45l45 -45v45h90v-45h-45l-45 -45h-45zM178 585v45l-45 45v90h45v-90l45 -45h180v45h45l45 -45h-45l-45 -45h-225z" />
    <glyph glyph-name="Aogonek" unicode="&#x104;" horiz-adv-x="755" 
d="M630 225v90l45 -45h45v-135l45 -45v-45h-45v45l-45 45v90h-45zM315 315v90l45 45h45v-45l45 -45v-90h-90zM630 -45l45 45v45h45l45 -45h-45l-45 -45l45 -45h45v-45h-90v45zM0 45v90l45 45v135h45v90l45 45v135h45v90h45l45 45h270v-45l45 -45v-90h45v-135l45 -45v-45h-45
v45l-45 45v90h-45v135l-45 45h-225v-45h-45v-90h-45v-90l-45 -45v-135h-45v-90l-45 -45v-90h180v90h225l45 -45h45v-180h45v-90h135v45l45 -45l-45 -45h-180v90h-45v180h-45v45h-180v-90h-225zM405 315v45l-45 45v-90h45z" />
    <glyph glyph-name="aogonek" unicode="&#x105;" horiz-adv-x="622" 
d="M540 315v90l45 -45v-45h-45zM540 225v90l45 -45v-45h-45zM540 135v90l45 -45v-45h-45zM540 45v90l45 -45v-45h-45zM0 45v180l45 45v225h90l45 45h315v-45l45 -45h45v-45h-90v45l-45 45h-270v-45h-90v-90h135v45h90l45 -45l-45 -45h-90v-45h-135l-45 -45v-135h45v-45h45
l45 -45h90v45h90l45 -45v-135l45 -45h90v45l45 -45l-45 -45h-135v45l-45 45v135h-45l-45 -45h-135v45h-45l-45 45h-45zM495 -135v180h45l45 -45h-45v-90h45v-45h-90zM225 135v90h90l45 -45l-45 -45h-90z" />
    <glyph glyph-name="Cacute" unicode="&#x106;" horiz-adv-x="733" 
d="M540 630v45h90v-45l45 -45v-45h-45v45l-45 45h-45zM675 495v45l45 -45h-45zM270 180v270l45 45v45h90l45 -45h45v-45h180l45 -45h-225l-45 45h-45v45h-45l-45 -45v-225h90v45h270l45 -45h-270l-45 -45h-135zM675 135v45l45 -45h-45zM45 90v90h-45v360h45v90h45l45 45h90
l-45 -45h-45v-45h-45v-90h-45v-270h45v-90h45v-45l45 -45h90v-45h180l45 45h90v45h45l45 45v-90h-45l-45 -45h-90v-45h-225l-45 45h-90v45l-45 45h-45zM268 720l-45 45l45 45v45h45l45 45h45l-45 -45v-45h-45l-45 -45h180l45 45v45h90v-45h-45l-45 -45v-45h-225z" />
    <glyph glyph-name="cacute" unicode="&#x107;" horiz-adv-x="622" 
d="M450 450v45h90v-45l45 -45v-45h-45v45l-45 45h-45zM585 315v45l45 -45h-45zM270 180v180h90l45 -45h180v-45h-225v45h-45v-135l45 45h225v-45h-225v-45h-45zM90 0v45l-45 45v45l-45 45v180l45 45v45h45l45 45h45l-45 -45v-45h-45l-45 -45v-180l45 -45v-45l45 -45h90v-45
h135l45 45h90v45h45l45 45v-90h-45l-45 -45h-90v-45h-180l-45 45h-90zM585 135v45l45 -45h-45zM205 585v90h45v90h135v-45h-90v-90h90v45h90l45 45v45l45 -45l-45 -45v-45h-90l-45 -45h-180z" />
    <glyph glyph-name="Ccircumflex" unicode="&#x108;" horiz-adv-x="733" 
d="M540 630v45h90v-45l45 -45v-45h-45v45l-45 45h-45zM675 495v45l45 -45h-45zM270 180v270l45 45v45h90l45 -45h45v-45h180l45 -45h-225l-45 45h-45v45h-45l-45 -45v-225h90v45h270l45 -45h-270l-45 -45h-135zM675 135v45l45 -45h-45zM45 90v90h-45v360h45v90h45l45 45h90
l-45 -45h-45v-45h-45v-90h-45v-270h45v-90h45v-45l45 -45h90v-45h180l45 45h90v45h45l45 45v-90h-45l-45 -45h-90v-45h-225l-45 45h-90v45l-45 45h-45zM137 720v90l45 45v45h90v-45h-45l-45 -45v-45h90v45h135l45 -45h90v45l45 -45l-45 -45h-135v45h-90l-45 -45h-135z
M497 810v45l-45 45h45l45 -45h45v-45h-90z" />
    <glyph glyph-name="ccircumflex" unicode="&#x109;" horiz-adv-x="622" 
d="M450 450v45h90v-45l45 -45v-45h-45v45l-45 45h-45zM585 315v45l45 -45h-45zM270 180v180h90l45 -45h180v-45h-225v45h-45v-135l45 45h225v-45h-225v-45h-45zM90 0v45l-45 45v45l-45 45v180l45 45v45h45l45 45h45l-45 -45v-45h-45l-45 -45v-180l45 -45v-45l45 -45h90v-45
h135l45 45h90v45h45l45 45v-90h-45l-45 -45h-90v-45h-180l-45 45h-90zM585 135v45l45 -45h-45zM92 585v90h45l45 45v45h90v-45h-45l-45 -45v-45h90v45h45l45 -45h135l-45 45h-45v45l-45 45h45l45 -45h45v-45l45 -45l-45 -45h-180v45l-45 -45h-180z" />
    <glyph glyph-name="Cdotaccent" unicode="&#x10a;" horiz-adv-x="733" 
d="M540 630v45h90v-45l45 -45v-45h-45v45l-45 45h-45zM675 495v45l45 -45h-45zM270 180v270l45 45v45h90l45 -45h45v-45h180l45 -45h-225l-45 45h-45v45h-45l-45 -45v-225h90v45h270l45 -45h-270l-45 -45h-135zM675 135v45l45 -45h-45zM45 90v90h-45v360h45v90h45l45 45h90
l-45 -45h-45v-45h-45v-90h-45v-270h45v-90h45v-45l45 -45h90v-45h180l45 45h90v45h45l45 45v-90h-45l-45 -45h-90v-45h-225l-45 45h-90v45l-45 45h-45zM451 810v90l45 -45v-45h-45zM271 720v180l45 45h180v-45h-180v-135h90v45h45l45 -45h-45l-45 -45h-135z" />
    <glyph glyph-name="cdotaccent" unicode="&#x10b;" horiz-adv-x="622" 
d="M450 450v45h90v-45l45 -45v-45h-45v45l-45 45h-45zM585 315v45l45 -45h-45zM270 180v180h90l45 -45h180v-45h-225v45h-45v-135l45 45h225v-45h-225v-45h-45zM90 0v45l-45 45v45l-45 45v180l45 45v45h45l45 45h45l-45 -45v-45h-45l-45 -45v-180l45 -45v-45l45 -45h90v-45
h135l45 45h90v45h45l45 45v-90h-45l-45 -45h-90v-45h-180l-45 45h-90zM585 135v45l45 -45h-45zM217 585v180h45v-135h135v-45h-180z" />
    <glyph glyph-name="Ccaron" unicode="&#x10c;" horiz-adv-x="733" 
d="M540 630v45h90v-45l45 -45v-45h-45v45l-45 45h-45zM675 495v45l45 -45h-45zM270 180v270l45 45v45h90l45 -45h45v-45h180l45 -45h-225l-45 45h-45v45h-45l-45 -45v-225h90v45h270l45 -45h-270l-45 -45h-135zM675 135v45l45 -45h-45zM45 90v90h-45v360h45v90h45l45 45h90
l-45 -45h-45v-45h-45v-90h-45v-270h45v-90h45v-45l45 -45h90v-45h180l45 45h90v45h45l45 45v-90h-45l-45 -45h-90v-45h-225l-45 45h-90v45l-45 45h-45zM317 855l-45 45h180v-45h-135zM227 720v90h-45v45l-45 45h45l45 -45h45v-90h180v45h45l45 45v45l45 -45l-45 -45v-45h-45
l-45 -45h-225z" />
    <glyph glyph-name="ccaron" unicode="&#x10d;" horiz-adv-x="622" 
d="M450 450v45h90v-45l45 -45v-45h-45v45l-45 45h-45zM585 315v45l45 -45h-45zM270 180v180h90l45 -45h180v-45h-225v45h-45v-135l45 45h225v-45h-225v-45h-45zM90 0v45l-45 45v45l-45 45v180l45 45v45h45l45 45h45l-45 -45v-45h-45l-45 -45v-180l45 -45v-45l45 -45h90v-45
h135l45 45h90v45h45l45 45v-90h-45l-45 -45h-90v-45h-180l-45 45h-90zM585 135v45l45 -45h-45zM182 585v45l-45 45h-45v90h45v-45h45v-45l45 -45h180v45h45l45 45v45l45 -45l-45 -45v-45h-45l-45 -45h-225zM272 675v45h-90l-45 45h135l45 -45v45h135v-45h-90l-45 -45h-45z
" />
    <glyph glyph-name="Dcaron" unicode="&#x10e;" horiz-adv-x="740" 
d="M675 450v90l45 -45v-45h-45zM675 360v90l45 -45v-45h-45zM675 270v90l45 -45v-45h-45zM675 180v90l45 -45v-45h-45zM315 225h90v45l45 45v90l-45 45v45h-90v-270zM45 0v720h450l45 -45h90v-45l45 -45h45v-45h-90v45l-45 45h-90v45h-405v-630h450v45h90v90h45l45 -45h-45
v-90h-90l-45 -45h-495zM270 180v360h135l45 -45v-45l45 -45v-90l-45 -45v-45l-45 -45h-135zM314 855l-45 45h180v-45h-135zM224 720v90h-45v45l-45 45h45l45 -45h45v-90h180v45h45l45 45v45l45 -45l-45 -45v-45h-45l-45 -45h-225z" />
    <glyph glyph-name="dcaron" unicode="&#x10f;" horiz-adv-x="814" 
d="M585 585v45l45 -45h-45zM585 495v45l45 -45h-45zM45 450l45 45v45h270v135h45v-180h-270l-45 -45h-45zM585 405v45l45 -45h-45zM90 0v45l-45 45v45l-45 45v180l45 45v45l45 -45l-45 -45v-180l45 -45v-45l45 -45h45v-45h90l45 45h270v-45h-270v-45h-135l-45 45h-45z
M315 180l45 45v90h-45v-135zM585 315v45l45 -45h-45zM585 225v45l45 -45h-45zM585 135v45l45 -45h-45zM585 45v45l45 -45h-45zM270 180v180h90l45 -45v-90l-45 -45v-45h-45zM708 535h90v45h45v90h-135v-135zM663 490v180l45 45h225v-45h-45l45 -45h-45v-90h-45l-45 -45h-135
z" />
    <glyph glyph-name="Dcroat" unicode="&#x110;" horiz-adv-x="764" 
d="M675 450v90l45 -45v-45h-45zM405 450v45h-45v-45h45l45 -45v45h-45zM45 0v270h-45v180h45v270h495l45 -45h45v-45l45 -45h45v-45h-90v45l-45 45h-45v45h-450v-270h-45v-90h45v-270h225l-45 -45h-225zM360 270v-45h90v90l-45 -45h-45zM675 180l45 45v-45h-45zM315 0v45h45
zM360 0v45h225v45h45l45 45v45l45 -45l-45 -45v-45h-45l-45 -45h-225zM315 180v90l45 45h45v90h-45l-45 45v90h90l45 -45h45v-270l-45 -45h-135z" />
    <glyph glyph-name="dcroat" unicode="&#x111;" horiz-adv-x="662" 
d="M90 0v45l-45 45v45l-45 45v180l45 45v45l45 45v45h225v90l45 45h45l-45 -45v-45h45v-90h-270l-45 -45v-45l-45 -45v-180l45 -45v-45l45 -45h45v-45h-90zM315 180l45 45v90h-45v-135zM180 -45v45l45 -45h-45zM225 -45v45h45l45 45h270v495l45 45v45h-45v45h90v-90l-45 -45
v-495l-45 -45h-270v-45h-90zM270 180v180h90l45 -45v-90l-45 -45v-45h-45z" />
    <glyph glyph-name="Emacron" unicode="&#x112;" horiz-adv-x="667" 
d="M585 720l45 -45v-45h-45v45h-495v-630h45l-45 -45h-45v720h540zM630 540h-45v90l45 -45v-45zM585 540l45 -45h-315v-45h270l45 -45v-45h-45v45h-270l-45 45v90h315zM630 270h-45v90l45 -45v-45zM585 270l45 -45v-45h-360v90h315zM225 0h-90v45h135zM270 0v45h360l-45 -45
h-315zM522 810v90l45 -45v-45h-45zM117 720v180h45v-135h360v45l45 -45l-45 -45h-405z" />
    <glyph glyph-name="emacron" unicode="&#x113;" horiz-adv-x="623" 
d="M450 450v45h90v-45l45 -45v-45l45 -45h-45l-45 45v45l-45 45h-45zM90 0v45l-45 45v45l-45 45v180l45 45v45h45l45 45h45l-45 -45v-45h-45l-45 -45v-180l45 -45v-45l45 -45h90v-45h-135zM315 315l-45 45l45 45h45v-90h-45zM585 225v45l45 -45h-45zM225 -45v45h180l45 45
h45v45h45v45h-225l-45 45l45 45h270v-45h-45l45 -45v-90h-45l-45 -45h-45v-45h-225zM120 585v180h360l45 -45v-45h-45v45h-315v-90h315v45l45 -45l-45 -45h-360z" />
    <glyph glyph-name="Ebreve" unicode="&#x114;" horiz-adv-x="667" 
d="M585 720l45 -45v-45h-45v45h-495v-630h45l-45 -45h-45v720h540zM630 540h-45v90l45 -45v-45zM585 540l45 -45h-315v-45h270l45 -45v-45h-45v45h-270l-45 45v90h315zM630 270h-45v90l45 -45v-45zM585 270l45 -45v-45h-360v90h315zM225 0h-90v45h135zM270 0v45h360l-45 -45
h-315zM467 810v90l45 -45v-45h-45zM287 810v90h90v-45l-45 -45h-45zM197 720v45l-45 45v90h45v-90l45 -45h180v45h45l45 -45h-45l-45 -45h-225z" />
    <glyph glyph-name="ebreve" unicode="&#x115;" horiz-adv-x="623" 
d="M450 450v45h90v-45l45 -45v-45l45 -45h-45l-45 45v45l-45 45h-45zM90 0v45l-45 45v45l-45 45v180l45 45v45h45l45 45h45l-45 -45v-45h-45l-45 -45v-180l45 -45v-45l45 -45h90v-45h-135zM315 315l-45 45l45 45h45v-90h-45zM585 225v45l45 -45h-45zM225 -45v45h180l45 45
h45v45h45v45h-225l-45 45l45 45h270v-45h-45l45 -45v-90h-45l-45 -45h-45v-45h-225zM450 675v90l45 -45v-45h-45zM270 675v45l-45 45h45l45 -45v45h90v-45h-45l-45 -45h-45zM180 585v45l-45 45v90h45v-90l45 -45h180v45h45l45 -45h-45l-45 -45h-225z" />
    <glyph glyph-name="Edotaccent" unicode="&#x116;" horiz-adv-x="667" 
d="M585 720l45 -45v-45h-45v45h-495v-630h45l-45 -45h-45v720h540zM630 540h-45v90l45 -45v-45zM585 540l45 -45h-315v-45h270l45 -45v-45h-45v45h-270l-45 45v90h315zM630 270h-45v90l45 -45v-45zM585 270l45 -45v-45h-360v90h315zM225 0h-90v45h135zM270 0v45h360l-45 -45
h-315zM418 810v90l45 -45v-45h-45zM238 720v180l45 45h180v-45h-180v-135h90v45h45l45 -45h-45l-45 -45h-135z" />
    <glyph glyph-name="edotaccent" unicode="&#x117;" horiz-adv-x="623" 
d="M450 450v45h90v-45l45 -45v-45l45 -45h-45l-45 45v45l-45 45h-45zM90 0v45l-45 45v45l-45 45v180l45 45v45h45l45 45h45l-45 -45v-45h-45l-45 -45v-180l45 -45v-45l45 -45h90v-45h-135zM315 315l-45 45l45 45h45v-90h-45zM585 225v45l45 -45h-45zM225 -45v45h180l45 45
h45v45h45v45h-225l-45 45l45 45h270v-45h-45l45 -45v-90h-45l-45 -45h-45v-45h-225zM218 585v180h45v-135h135v-45h-180z" />
    <glyph glyph-name="Eogonek" unicode="&#x118;" horiz-adv-x="667" 
d="M495 675v45h135v-45h-135zM405 675v45h90l-45 -45h-45zM585 585v90l45 -45v-45h-45zM270 405v90l45 45h270v45l45 -45l-45 -45h-270v-45h315v-45h-360zM585 315v90l45 -45v-45h-45zM540 -45l45 45v45l45 -45l-45 -45v-45h45v-45h-90v90zM45 45v630l45 45h315l-45 -45
h-270v-630h315l45 -45v-90l-45 -45v135h-315zM450 -180l-45 45h45v-45zM450 -225v45h180v-45h-180zM270 225l45 45h270v45l45 -45l-45 -45l45 -45v-45h-45v45h-270z" />
    <glyph glyph-name="eogonek" unicode="&#x119;" horiz-adv-x="623" 
d="M315 315l-45 45l45 45h45v-90h-45zM585 225v45l45 -45h-45zM90 0v45l-45 45v45l-45 45v180l45 45v45h45l45 45v45h315l45 -45h45v-45l45 -45v-45l45 -45h-45l-45 45v45l-45 45h-45v45h-270l-45 -45v-45h-45l-45 -45v-180l45 -45v-45l45 -45h90v-180h45v-45h135v45h-45
l-45 45v90h90l45 45h45v45h45v45h-225l-45 45l45 45h270v-45h-45l45 -45v-90h-45l-45 -45h-45v-45h-90v-45h45l45 -45v-90h-180l-45 45h-45v180h-90z" />
    <glyph glyph-name="Ecaron" unicode="&#x11a;" horiz-adv-x="667" 
d="M585 720l45 -45v-45h-45v45h-495v-630h45l-45 -45h-45v720h540zM630 540h-45v90l45 -45v-45zM585 540l45 -45h-315v-45h270l45 -45v-45h-45v45h-270l-45 45v90h315zM630 270h-45v90l45 -45v-45zM585 270l45 -45v-45h-360v90h315zM225 0h-90v45h135zM270 0v45h360l-45 -45
h-315zM284 855l-45 45h180v-45h-135zM194 720v90h-45v45l-45 45h45l45 -45h45v-90h180v45h45l45 45v45l45 -45l-45 -45v-45h-45l-45 -45h-225z" />
    <glyph glyph-name="ecaron" unicode="&#x11b;" horiz-adv-x="623" 
d="M450 450v45h90v-45l45 -45v-45l45 -45h-45l-45 45v45l-45 45h-45zM90 0v45l-45 45v45l-45 45v180l45 45v45h45l45 45h45l-45 -45v-45h-45l-45 -45v-180l45 -45v-45l45 -45h90v-45h-135zM315 315l-45 45l45 45h45v-90h-45zM585 225v45l45 -45h-45zM225 -45v45h180l45 45
h45v45h45v45h-225l-45 45l45 45h270v-45h-45l45 -45v-90h-45l-45 -45h-45v-45h-225zM183 585v45l-45 45h-45v90h45v-45h45v-45l45 -45h180v45h45l45 45v45l45 -45l-45 -45v-45h-45l-45 -45h-225zM273 675v45h-90l-45 45h135l45 -45v45h135v-45h-90l-45 -45h-45z" />
    <glyph glyph-name="Gcircumflex" unicode="&#x11c;" horiz-adv-x="753" 
d="M45 90v90h-45v360h45v90h45l45 45h90l-45 -45h-45v-45h-45v-90h-45v-270h45v-90h45v-45l45 -45h90v-45h180l45 45h90v45h45l45 45v270h-270v-135h45l45 -45l-45 -45h-180v270l45 45v45h90l45 -45h225v90l-45 45h-90v45h135v-45l45 -45v-90l-45 -45l45 -45v-270l-45 -45
v-45h-45l-45 -45h-90v-45h-225l-45 45h-90v45l-45 45h-45zM315 225h90l-45 45v180h45v45h-45l-45 -45v-225zM147 720v90l45 45v45h90v-45h-45l-45 -45v-45h90v45h135l45 -45h90v45l45 -45l-45 -45h-135v45h-90l-45 -45h-135zM507 810v45l-45 45h45l45 -45h45v-45h-90z" />
    <glyph glyph-name="gcircumflex" unicode="&#x11d;" horiz-adv-x="666" 
d="M315 225h45v90h-45v-90zM585 -135v315l45 -45v-270h-45zM270 0l45 -45h45v90l-45 -45h-45zM90 0v45l-45 45v45l-45 45v180l45 45v45l45 45v45h225l45 -45v45h225l45 -45v-315h-45v315h-180l-45 -45h-45v45h-180l-45 -45v-45l-45 -45v-180l45 -45v-45l45 -45h180v45h45
l45 -45v-90l-45 -45h-90v45h-180v-45l45 -45h45v-45h315l45 45v45l45 -45l-45 -45v-45h-360l-45 45h-45v45l-45 45h-45v90h90zM270 180v180h90l45 -45v-90l-45 -45h-90zM108 585v90h45l45 45v45h90v-45h-45l-45 -45v-45h90v45h45l45 -45h135l-45 45h-45v45l-45 45h45l45 -45
h45v-45l45 -45l-45 -45h-180v45l-45 -45h-180z" />
    <glyph glyph-name="Gbreve" unicode="&#x11e;" horiz-adv-x="753" 
d="M45 90v90h-45v360h45v90h45l45 45h90l-45 -45h-45v-45h-45v-90h-45v-270h45v-90h45v-45l45 -45h90v-45h180l45 45h90v45h45l45 45v270h-270v-135h45l45 -45l-45 -45h-180v270l45 45v45h90l45 -45h225v90l-45 45h-90v45h135v-45l45 -45v-90l-45 -45l45 -45v-270l-45 -45
v-45h-45l-45 -45h-90v-45h-225l-45 45h-90v45l-45 45h-45zM315 225h90l-45 45v180h45v45h-45l-45 -45v-225zM510 810v90l45 -45v-45h-45zM330 810v90h90v-45l-45 -45h-45zM240 720v45l-45 45v90h45v-90l45 -45h180v45h45l45 -45h-45l-45 -45h-225z" />
    <glyph glyph-name="gbreve" unicode="&#x11f;" horiz-adv-x="666" 
d="M315 225h45v90h-45v-90zM585 -135v315l45 -45v-270h-45zM270 0l45 -45h45v90l-45 -45h-45zM90 0v45l-45 45v45l-45 45v180l45 45v45l45 45v45h225l45 -45v45h225l45 -45v-315h-45v315h-180l-45 -45h-45v45h-180l-45 -45v-45l-45 -45v-180l45 -45v-45l45 -45h180v45h45
l45 -45v-90l-45 -45h-90v45h-180v-45l45 -45h45v-45h315l45 45v45l45 -45l-45 -45v-45h-360l-45 45h-45v45l-45 45h-45v90h90zM270 180v180h90l45 -45v-90l-45 -45h-90zM465 675v90l45 -45v-45h-45zM285 675v45l-45 45h45l45 -45v45h90v-45h-45l-45 -45h-45zM195 585v45
l-45 45v90h45v-90l45 -45h180v45h45l45 -45h-45l-45 -45h-225z" />
    <glyph glyph-name="Gdotaccent" unicode="&#x120;" horiz-adv-x="753" 
d="M45 90v90h-45v360h45v90h45l45 45h90l-45 -45h-45v-45h-45v-90h-45v-270h45v-90h45v-45l45 -45h90v-45h180l45 45h90v45h45l45 45v270h-270v-135h45l45 -45l-45 -45h-180v270l45 45v45h90l45 -45h225v90l-45 45h-90v45h135v-45l45 -45v-90l-45 -45l45 -45v-270l-45 -45
v-45h-45l-45 -45h-90v-45h-225l-45 45h-90v45l-45 45h-45zM315 225h90l-45 45v180h45v45h-45l-45 -45v-225zM461 810v90l45 -45v-45h-45zM281 720v180l45 45h180v-45h-180v-135h90v45h45l45 -45h-45l-45 -45h-135z" />
    <glyph glyph-name="gdotaccent" unicode="&#x121;" horiz-adv-x="666" 
d="M315 225h45v90h-45v-90zM585 -135v315l45 -45v-270h-45zM270 0l45 -45h45v90l-45 -45h-45zM90 0v45l-45 45v45l-45 45v180l45 45v45l45 45v45h225l45 -45v45h225l45 -45v-315h-45v315h-180l-45 -45h-45v45h-180l-45 -45v-45l-45 -45v-180l45 -45v-45l45 -45h180v45h45
l45 -45v-90l-45 -45h-90v45h-180v-45l45 -45h45v-45h315l45 45v45l45 -45l-45 -45v-45h-360l-45 45h-45v45l-45 45h-45v90h90zM270 180v180h90l45 -45v-90l-45 -45h-90zM233 585v180h45v-135h135v-45h-180z" />
    <glyph glyph-name="uni0122" unicode="&#x122;" horiz-adv-x="753" 
d="M45 90v90h-45v360h45v90h45l45 45h90l-45 -45h-45v-45h-45v-90h-45v-270h45v-90h45v-45l45 -45h90v-45h180l45 45h90v45h45l45 45v270h-270v-135h45l45 -45l-45 -45h-180v270l45 45v45h90l45 -45h225v90l-45 45h-90v45h135v-45l45 -45v-90l-45 -45l45 -45v-270l-45 -45
v-45h-45l-45 -45h-90v-45h-225l-45 45h-90v45l-45 45h-45zM315 225h90l-45 45v180h45v45h-45l-45 -45v-225zM239 -90l45 45h225v-45h-45l45 -45h-45v-90l-45 -45h-180v180zM284 -90v-135h135v135h-135z" />
    <glyph glyph-name="uni0123" unicode="&#x123;" horiz-adv-x="666" 
d="M315 225h45v90h-45v-90zM585 -135v315l45 -45v-270h-45zM270 0l45 -45h45v90l-45 -45h-45zM90 0v45l-45 45v45l-45 45v180l45 45v45l45 45v45h225l45 -45v45h225l45 -45v-315h-45v315h-180l-45 -45h-45v45h-180l-45 -45v-45l-45 -45v-180l45 -45v-45l45 -45h180v45h45
l45 -45v-90l-45 -45h-90v45h-180v-45l45 -45h45v-45h315l45 45v45l45 -45l-45 -45v-45h-360l-45 45h-45v45l-45 45h-45v90h90zM270 180v180h90l45 -45v-90l-45 -45h-90zM440 675v90l45 -45v-45h-45zM215 585v90l45 45v45l45 45h180v-45h-180v-45l-45 -45v-45h135v45h45
l45 -45h-45l-45 -45h-180z" />
    <glyph glyph-name="Hcircumflex" unicode="&#x124;" horiz-adv-x="772" 
d="M675 540v90l45 -45v-45h-45zM675 450v90l45 -45v-45h-45zM45 270v450h225l45 -45v-180h135v225h225l45 -45v-45h-45v45h-180v-180l-45 -45h-180v225h-180v-360zM675 360v90l45 -45v-45h-45zM675 270v90l45 -45v-45h-45zM675 180v90l45 -45v-45h-45zM675 90v90l45 -45v-45
h-45zM45 0v270h45v-225h180v225h180l45 -45v-180h135l-45 -45h-135v225h-135v-180l-45 -45h-225zM675 45v45l45 -45h-45zM630 0v45h45v-45h-45zM156 720v90l45 45v45h90v-45h-45l-45 -45v-45h90v45h135l45 -45h90v45l45 -45l-45 -45h-135v45h-90l-45 -45h-135zM516 810v45
l-45 45h45l45 -45h45v-45h-90z" />
    <glyph glyph-name="hcircumflex" unicode="&#x125;" horiz-adv-x="685" 
d="M630 270v90l45 -45v-45h-45zM630 180v90l45 -45v-45h-45zM630 90v90l45 -45v-45h-45zM45 0v720h225l45 -45v-135h225l45 -45h45v-90h45v-45h-90v90h-45v45h-180l-45 -45h-45v225h-180v-630h180v315h90l45 -45v-270h225v45l45 -45l-45 -45h-270v315h-45v-270l-45 -45h-225
zM124 741v90h45l45 45v45h90v-45h-45l-45 -45v-45h90v45h45l45 -45h135l-45 45h-45v45l-45 45h45l45 -45h45v-45l45 -45l-45 -45h-180v45l-45 -45h-180z" />
    <glyph glyph-name="Hbar" unicode="&#x126;" horiz-adv-x="772" 
d="M675 540v90l45 -45v-45h-45zM675 450v90l45 -45v-45h-45zM675 360v90l45 -45v-45h-45zM675 270v90l45 -45v-45h-45zM675 180v90l45 -45v-45h-45zM675 90v90l45 -45v-45h-45zM450 0v180l45 -45v-90h180v45l45 -45l-45 -45h-225zM45 0v720h225l45 -45h135v45h225l45 -45
v-45h-45v45h-180l-45 -45h-180v45h-180v-630h180v225h180l45 -45v-45h-45v45h-135v-180l-45 -45h-225zM270 450v90h180l45 -45l-45 -45h-180z" />
    <glyph glyph-name="hbar" unicode="&#x127;" horiz-adv-x="685" 
d="M630 270v45l45 -45h-45zM630 180v45l45 -45h-45zM630 90v45l45 -45h-45zM45 45v450h-45v45l-45 45v90h90l45 45h225v-45l45 -45v-90h225v-45l45 -45v-45l45 -45h-45l-45 45v45l-45 45h-180v-45h-45l-45 45l45 45v90l-45 45h-180v-45h-90v-45l45 -45h45v-495h180v270
l45 45h90v-315h225l45 -45h-270l-45 45v270h-45v-315h-225z" />
    <glyph glyph-name="Itilde" unicode="&#x128;" horiz-adv-x="368" 
d="M270 540v90l45 -45v-45h-45zM270 450v90l45 -45v-45h-45zM45 450v270h225l45 -45v-45h-45v45h-180v-180zM270 360v90l45 -45v-45h-45zM270 270v90l45 -45v-45h-45zM270 180v90l45 -45v-45h-45zM270 90v90l45 -45v-45h-45zM45 0v450l45 -45v-360h180v45l45 -45l-45 -45
h-225zM200 855l-45 45h135v-45h-90zM-25 720v180h90v-45h-45v-90h45v45h90l45 -45h90v45h45l45 45v45l45 -45l-45 -45v-45h-45l-45 -45h-135v45h-45l-45 -45h-90z" />
    <glyph glyph-name="itilde" unicode="&#x129;" horiz-adv-x="323" 
d="M270 360v90l45 -45v-45h-45zM270 270v90l45 -45zM270 180v90l45 -45v-45h-45zM270 90v90l45 -45v-45h-45zM45 0v540h225l45 -45v-45h-45v45h-180v-450h180v45l45 -45l-45 -45h-225zM358 720l-45 45h45v-45zM133 720l-45 45h180v-45h-135zM-47 585v180h135v-45h-90v-90
h315v45l45 45v-90l-45 -45h-360z" />
    <glyph glyph-name="Imacron" unicode="&#x12a;" horiz-adv-x="368" 
d="M270 540v90l45 -45v-45h-45zM270 450v90l45 -45v-45h-45zM45 450v270h225l45 -45v-45h-45v45h-180v-180zM270 360v90l45 -45v-45h-45zM270 270v90l45 -45v-45h-45zM270 180v90l45 -45v-45h-45zM270 90v90l45 -45v-45h-45zM45 0v450l45 -45v-360h180v45l45 -45l-45 -45
h-225zM372 810v90l45 -45v-45h-45zM-33 720v180h45v-135h360v45l45 -45l-45 -45h-405z" />
    <glyph glyph-name="imacron" unicode="&#x12b;" horiz-adv-x="323" 
d="M270 360v90l45 -45v-45h-45zM270 270v90l45 -45zM270 180v90l45 -45v-45h-45zM270 90v90l45 -45v-45h-45zM45 0v540h225l45 -45v-45h-45v45h-180v-450h180v45l45 -45l-45 -45h-225zM-30 585v180h360l45 -45v-45h-45v45h-315v-90h315v45l45 -45l-45 -45h-360z" />
    <glyph glyph-name="Ibreve" unicode="&#x12c;" horiz-adv-x="368" 
d="M270 540v90l45 -45v-45h-45zM270 450v90l45 -45v-45h-45zM45 450v270h225l45 -45v-45h-45v45h-180v-180zM270 360v90l45 -45v-45h-45zM270 270v90l45 -45v-45h-45zM270 180v90l45 -45v-45h-45zM270 90v90l45 -45v-45h-45zM45 0v450l45 -45v-360h180v45l45 -45l-45 -45
h-225zM317 810v90l45 -45v-45h-45zM137 810v90h90v-45l-45 -45h-45zM47 720v45l-45 45v90h45v-90l45 -45h180v45h45l45 -45h-45l-45 -45h-225z" />
    <glyph glyph-name="ibreve" unicode="&#x12d;" horiz-adv-x="323" 
d="M270 360v90l45 -45v-45h-45zM270 270v90l45 -45zM270 180v90l45 -45v-45h-45zM270 90v90l45 -45v-45h-45zM45 0v540h225l45 -45v-45h-45v45h-180v-450h180v45l45 -45l-45 -45h-225zM300 675v90l45 -45v-45h-45zM120 675v45l-45 45h45l45 -45v45h90v-45h-45l-45 -45h-45z
M30 585v45l-45 45v90h45v-90l45 -45h180v45h45l45 -45h-45l-45 -45h-225z" />
    <glyph glyph-name="Iogonek" unicode="&#x12e;" horiz-adv-x="368" 
d="M90 675v45h225v-45h-225zM270 585v90l45 -45v-45h-45zM270 495v90l45 -45zM270 405v90l45 -45v-45h-45zM270 315v90l45 -45v-45h-45zM270 225v90l45 -45v-45h-45zM270 135v90l45 -45v-45h-45zM270 45v90l45 -45v-45h-45zM225 -45l45 45v45l45 -45l-45 -45v-45h45v-45h-90
v90zM45 45v630l45 -45v-585l45 -45v-135l45 -45h90v45l45 -45l-45 -45h-135v45l-45 45v135z" />
    <glyph glyph-name="iogonek" unicode="&#x12f;" horiz-adv-x="323" 
d="M270 675v45h45v-45h-45zM270 405v90l45 -45v-45h-45zM270 315v90l45 -45v-45h-45zM270 225v90l45 -45v-45h-45zM270 135v90l45 -45v-45h-45zM270 45v90l45 -45v-45h-45zM90 -90h45v-45l45 -45h90v45l45 -45l-45 -45h-135v45l-45 45h-45v630l45 45l-45 45v135h45v-135h135
l45 45v45l45 -45l-45 -45v-45h45v-45h-225v-585zM180 -45l45 45v45h45l45 -45h-45l-45 -45h45l45 -45v-45h-45v45h-45z" />
    <glyph glyph-name="Idotaccent" unicode="&#x130;" horiz-adv-x="368" 
d="M270 540v90l45 -45v-45h-45zM270 450v90l45 -45v-45h-45zM45 450v270h225l45 -45v-45h-45v45h-180v-180zM270 360v90l45 -45v-45h-45zM270 270v90l45 -45v-45h-45zM270 180v90l45 -45v-45h-45zM270 90v90l45 -45v-45h-45zM45 0v450l45 -45v-360h180v45l45 -45l-45 -45
h-225zM268 810v90l45 -45v-45h-45zM88 720v180l45 45h180v-45h-180v-135h90v45h45l45 -45h-45l-45 -45h-135z" />
    <glyph glyph-name="dotlessi" unicode="&#x131;" horiz-adv-x="323" 
d="M270 360v90l45 -45v-45h-45zM270 270v90l45 -45zM270 180v90l45 -45v-45h-45zM270 90v90l45 -45v-45h-45zM45 0v540h225l45 -45v-45h-45v45h-180v-450h180v45l45 -45l-45 -45h-225z" />
    <glyph glyph-name="IJ" unicode="&#x132;" horiz-adv-x="807" 
d="M720 585v90l45 -45v-45h-45zM720 495v90l45 -45v-45h-45zM720 405v90l45 -45v-45h-45zM720 315v90l45 -45v-45h-45zM720 225v90l45 -45v-45h-45zM45 45v630h45v-630h180v630h45v-675h-225zM720 135v90l45 -45v-45h-45zM360 -45v270h90l45 45v405h45v-405l-45 -45v-45h-90
v-180h135v45h90l45 45v45h45l45 -45h-45l-45 -45v-45h-90l-45 -45h-180z" />
    <glyph glyph-name="ij" unicode="&#x133;" horiz-adv-x="712" 
d="M270 630v90l45 -45v-45h-45zM270 360v90l45 -45v-45h-45zM270 270v90l45 -45v-45h-45zM270 180v90l45 -45v-45h-45zM270 90v90l45 -45v-45h-45zM45 0v720l45 45h225v-45h-225v-135h135v45h45l45 -45h-45l-45 -45h45l45 -45v-45h-45v45h-180v-450h180v45l45 -45l-45 -45
h-225zM637 675v45h45v-45h-45zM637 585v90l45 -45v-45h-45zM637 405v90l45 -45v-45h-45zM637 315v90l45 -45v-45h-45zM412 225v270l45 45l-45 45v135h45v-135h180l45 -45v-45h-225v-270h-45zM637 225v90l45 -45v-45h-45zM637 135v90l45 -45v-45h-45zM637 45v90l45 -45v-45
h-45zM637 45l45 -45v-45h-45v90zM412 0v225l45 -45v-180l-45 -45h-90v-135h135v45h135v90h45l45 -45h-45v-90h-135l-45 -45h-180v180l45 45h90z" />
    <glyph glyph-name="Jcircumflex" unicode="&#x134;" horiz-adv-x="702" 
d="M630 585v90l45 -45v-45h-45zM630 495v90l45 -45v-45h-45zM630 405v90l45 -45v-45h-45zM630 315v90l45 -45v-45h-45zM630 225v90l45 -45v-45h-45zM45 45v45l-45 45v90l45 45h270v-45h45v270h-315v180h45v-135h315v-360h-90l-45 45h-225v-90l45 -45h45v-45h90l45 -45h135
v45h135l45 45v45l45 45v45l45 -45l-45 -45v-45l-45 -45v-45h-135l-45 -45h-180v45h-90l-45 45h-45zM141 720v90l45 45v45h90v-45h-45l-45 -45v-45h90v45h135l45 -45h90v45l45 -45l-45 -45h-135v45h-90l-45 -45h-135zM501 810v45l-45 45h45l45 -45h45v-45h-90z" />
    <glyph glyph-name="jcircumflex" unicode="&#x135;" horiz-adv-x="482" 
d="M405 405v90l45 -45v-45h-45zM405 315v90l45 -45v-45h-45zM405 225v90l45 -45v-45h-45zM405 135v90l45 -45v-45h-45zM405 45v90l45 -45v-45h-45zM405 45l45 -45v-45h-45v90zM45 0v-180h180v45h90l45 45v45h45l45 -45h-45l-45 -45v-45h-90l-45 -45h-225v270h180v270h-180
v180h45v-135h180v-360h-180zM22 585v90h45l45 45v45h90v-45h-45l-45 -45v-45h90v45h45l45 -45h135l-45 45h-45v45l-45 45h45l45 -45h45v-45l45 -45l-45 -45h-180v45l-45 -45h-180z" />
    <glyph glyph-name="uni0136" unicode="&#x136;" horiz-adv-x="715" 
d="M540 270v90l45 -45zM540 270h45l45 -45v-45l45 -45h45v-45h-90v45l-45 45v45zM45 0v720h225l45 -45v-135l45 45v45l45 45v45h270l45 -45l-45 -45v-45l-45 -45v-45l-45 -45v-45h-45v-45h-45v90h45l45 45v45l45 45v45l45 45h-225l-45 -45v-45l-45 -45v-45h-45l-45 45v135
h-180v-630h180v135l45 45h45v-90h45v-45l45 -45h225v45l45 -45l-45 -45h-270v45l-45 45h-45v-45l-45 -45h-225zM220 -90l45 45h225v-45h-45l45 -45h-45v-90l-45 -45h-180v180zM265 -90v-135h135v135h-135z" />
    <glyph glyph-name="uni0137" unicode="&#x137;" horiz-adv-x="643" 
d="M90 45h180v45l45 45h45v-90h270l-45 45h-45v90h-45v45l-45 45l45 45v45l45 45v45h45v45h-225v-90h-45l-45 45v225h-180v-630zM45 0v720h225l45 -45v-135h270l45 -45v-90h-45l-45 -45v-45l-45 -45l45 -45h45v-90h45v-45l45 -45l-45 -45h-315v45l-45 -45h-225zM235 -90
v-135h90v45h45v90h-135zM190 -90l45 45h225v-45h-45l45 -45h-45v-90h-45l-45 -45h-135v180z" />
    <glyph glyph-name="kgreenlandic" unicode="&#x138;" horiz-adv-x="643" 
d="M90 45h180v45l45 45h45v-90h270l-45 45h-45v90h-45v45l-45 45l45 45v45h45v90h45v45h-180l-45 -45v-45l-45 -45h-45v135h-180v-450zM45 0v540h225l45 -45v-45l45 45v45h225l45 -45v-90h-45v-90h-45l-45 -45l45 -45h45v-90h45v-45l45 -45l-45 -45h-315v45l-45 -45h-225z
" />
    <glyph glyph-name="Lacute" unicode="&#x139;" horiz-adv-x="626" 
d="M45 0v720h225l45 -45v-450h135l-45 -45h-135v495h-180v-630zM450 180v45h90l-45 -45h-45zM540 180v45h90v-45h-90zM585 90v90l45 -45v-45h-45zM90 0v45h495v45l45 -45l-45 -45h-495zM74 720l-45 45l45 45v45h45l45 45h45l-45 -45v-45h-45l-45 -45h180l45 45v45h90v-45
h-45l-45 -45v-45h-225z" />
    <glyph glyph-name="lacute" unicode="&#x13a;" horiz-adv-x="323" 
d="M270 540v90l45 -45v-45h-45zM270 450v90l45 -45v-45h-45zM45 270v450h225l45 -45v-45h-45v45h-180v-360zM270 360v90l45 -45v-45h-45zM270 270v90l45 -45v-45h-45zM270 180v90l45 -45v-45h-45zM270 90v90l45 -45v-45h-45zM45 0v270h45v-225h180v45l45 -45l-45 -45h-225z
M56 740v90h45v90h135v-45h-90v-90h90v45h90l45 45v45l45 -45l-45 -45v-45h-90l-45 -45h-180z" />
    <glyph glyph-name="uni013B" unicode="&#x13b;" horiz-adv-x="626" 
d="M45 0v720h225l45 -45v-450h135l-45 -45h-135v495h-180v-630zM450 180v45h90l-45 -45h-45zM540 180v45h90v-45h-90zM585 90v90l45 -45v-45h-45zM90 0v45h495v45l45 -45l-45 -45h-495zM175 -90l45 45h225v-45h-45l45 -45h-45v-90l-45 -45h-180v180zM220 -90v-135h135v135
h-135z" />
    <glyph glyph-name="uni013C" unicode="&#x13c;" horiz-adv-x="323" 
d="M270 540v90l45 -45v-45h-45zM270 450v90l45 -45v-45h-45zM45 270v450h225l45 -45v-45h-45v45h-180v-360zM270 360v90l45 -45v-45h-45zM270 270v90l45 -45v-45h-45zM270 180v90l45 -45v-45h-45zM270 90v90l45 -45v-45h-45zM45 0v270h45v-225h180v45l45 -45l-45 -45h-225z
M75 -90v-135h90v45h45v90h-135zM30 -90l45 45h225v-45h-45l45 -45h-45v-90h-45l-45 -45h-135v180z" />
    <glyph glyph-name="Lcaron" unicode="&#x13d;" horiz-adv-x="626" 
d="M45 0v720h225l45 -45v-450h135l-45 -45h-135v495h-180v-630zM450 180v45h90l-45 -45h-45zM540 180v45h90v-45h-90zM585 90v90l45 -45v-45h-45zM90 0v45h495v45l45 -45l-45 -45h-495zM413 474h90v45h45v90h-135v-135zM368 429v180l45 45h225v-45h-45l45 -45h-45v-90h-45
l-45 -45h-135z" />
    <glyph glyph-name="lcaron" unicode="&#x13e;" horiz-adv-x="473" 
d="M270 540v90l45 -45v-45h-45zM270 450v90l45 -45v-45h-45zM45 270v450h225l45 -45v-45h-45v45h-180v-360zM270 360v90l45 -45v-45h-45zM270 270v90l45 -45v-45h-45zM270 180v90l45 -45v-45h-45zM270 90v90l45 -45v-45h-45zM45 0v270h45v-225h180v45l45 -45l-45 -45h-225z
M367 535h90v45h45v90h-135v-135zM322 490v180l45 45h225v-45h-45l45 -45h-45v-90h-45l-45 -45h-135z" />
    <glyph glyph-name="Ldot" unicode="&#x13f;" horiz-adv-x="629" 
d="M45 0v720h225l45 -45v-450h135l-45 -45h-135v495h-180v-630zM450 180v45h90l-45 -45h-45zM540 180v45h90v-45h-90zM585 90v90l45 -45v-45h-45zM90 0v45h495v45l45 -45l-45 -45h-495zM536 270h-135v180h45v-135h90v45l45 -45z" />
    <glyph glyph-name="ldot" unicode="&#x140;" horiz-adv-x="500" 
d="M270 540v90l45 -45v-45h-45zM270 450v90l45 -45v-45h-45zM45 270v450h225l45 -45v-45h-45v45h-180v-360zM270 360v90l45 -45v-45h-45zM270 270v90l45 -45v-45h-45zM270 180v90l45 -45v-45h-45zM270 90v90l45 -45v-45h-45zM45 0v270h45v-225h180v45l45 -45l-45 -45h-225z
M458 360v90l45 -45v-45h-45zM323 270v180h45v-135h90v45l45 -45l-45 -45h-135z" />
    <glyph glyph-name="Lslash" unicode="&#x141;" horiz-adv-x="634" 
d="M0 180v180l45 45v315h270l45 -45v-135h45l45 45h45v-180l-45 -45v-45h-90v-90h225v-45h-270v180h90l45 45v90h-90l-45 45v135h-225v-270l-45 -45v-135h45v-45h-90zM585 90v90l45 -45v-45h-45zM45 0v180l45 -45v-90h495v45l45 -45l-45 -45h-540z" />
    <glyph glyph-name="lslash" unicode="&#x142;" horiz-adv-x="400" 
d="M45 675l45 45v-45h-45zM360 450l-45 45v180h-225l45 45h225v-225l45 -45h-45zM360 360v45l45 -45h-45zM45 45v135l-45 45v180h45v270l45 -45v-270h-45v-135l45 -45v-135h225v270l45 45v-360h-270z" />
    <glyph glyph-name="Nacute" unicode="&#x143;" horiz-adv-x="740" 
d="M45 180v360l45 -45v-270zM45 0v180h45v-135h180v225h45l45 -45v-45l45 -45h45v-90h225v-45h-270v90h-45v45l-45 45v-135l-45 -45h-225zM45 540v180h225l45 -45v-45l45 -45h45v-90h45v225h180l45 -45h-180v-270l-45 -45h-45v90h-45v90h-45v45l-45 45v45h-180v-135h-45z
M271 720l-45 45l45 45v45h45l45 45h45l-45 -45v-45h-45l-45 -45h180l45 45v45h90v-45h-45l-45 -45v-45h-225z" />
    <glyph glyph-name="nacute" unicode="&#x144;" horiz-adv-x="674" 
d="M630 180v90l45 -45v-45h-45zM630 90v90l45 -45v-45h-45zM45 0v540h225l45 -45v45h225l45 -45h45v-135l45 -45v-45h-45v45l-45 45v90h-45v45h-180l-45 -45h-45v45h-180v-450h180v315h90l45 -45v-270h225v45l45 -45l-45 -45h-270v315h-45v-270l-45 -45h-225zM234 585v90h45
v90h135v-45h-90v-90h90v45h90l45 45v45l45 -45l-45 -45v-45h-90l-45 -45h-180z" />
    <glyph glyph-name="uni0145" unicode="&#x145;" horiz-adv-x="740" 
d="M45 180v360l45 -45v-270zM45 0v180h45v-135h180v225h45l45 -45v-45l45 -45h45v-90h225v-45h-270v90h-45v45l-45 45v-135l-45 -45h-225zM45 540v180h225l45 -45v-45l45 -45h45v-90h45v225h180l45 -45h-180v-270l-45 -45h-45v90h-45v90h-45v45l-45 45v45h-180v-135h-45z
M236 -90l45 45h225v-45h-45l45 -45h-45v-90l-45 -45h-180v180zM281 -90v-135h135v135h-135z" />
    <glyph glyph-name="uni0146" unicode="&#x146;" horiz-adv-x="674" 
d="M630 180v90l45 -45v-45h-45zM630 90v90l45 -45v-45h-45zM45 0v540h225l45 -45v45h225l45 -45h45v-135l45 -45v-45h-45v45l-45 45v90h-45v45h-180l-45 -45h-45v45h-180v-450h180v315h90l45 -45v-270h225v45l45 -45l-45 -45h-270v315h-45v-270l-45 -45h-225zM256 -90v-135
h90v45h45v90h-135zM211 -90l45 45h225v-45h-45l45 -45h-45v-90h-45l-45 -45h-135v180z" />
    <glyph glyph-name="Ncaron" unicode="&#x147;" horiz-adv-x="740" 
d="M45 180v360l45 -45v-270zM45 0v180h45v-135h180v225h45l45 -45v-45l45 -45h45v-90h225v-45h-270v90h-45v45l-45 45v-135l-45 -45h-225zM45 540v180h225l45 -45v-45l45 -45h45v-90h45v225h180l45 -45h-180v-270l-45 -45h-45v90h-45v90h-45v45l-45 45v45h-180v-135h-45z
M320 855l-45 45h180v-45h-135zM230 720v90h-45v45l-45 45h45l45 -45h45v-90h180v45h45l45 45v45l45 -45l-45 -45v-45h-45l-45 -45h-225z" />
    <glyph glyph-name="ncaron" unicode="&#x148;" horiz-adv-x="674" 
d="M630 180v90l45 -45v-45h-45zM630 90v90l45 -45v-45h-45zM45 0v540h225l45 -45v45h225l45 -45h45v-135l45 -45v-45h-45v45l-45 45v90h-45v45h-180l-45 -45h-45v45h-180v-450h180v315h90l45 -45v-270h225v45l45 -45l-45 -45h-270v315h-45v-270l-45 -45h-225zM211 585v45
l-45 45h-45v90h45v-45h45v-45l45 -45h180v45h45l45 45v45l45 -45l-45 -45v-45h-45l-45 -45h-225zM301 675v45h-90l-45 45h135l45 -45v45h135v-45h-90l-45 -45h-45z" />
    <glyph glyph-name="napostrophe" unicode="&#x149;" horiz-adv-x="674" 
d="M45 585l45 45v90h-135v-90l-45 -45h135zM630 180v90l45 -45v-45h-45zM630 90v90l45 -45v-45h-45zM45 0v540h-135l-45 45l45 45v135h180l45 -45v-90l-45 -45v-45h180l45 -45v45h225l45 -45h45v-135l45 -45v-45h-45v45l-45 45v90h-45v45h-180l-45 -45h-45v45h-180v-450h180
v315h90l45 -45v-270h225v45l45 -45l-45 -45h-270v315h-45v-270l-45 -45h-225z" />
    <glyph glyph-name="Eng" unicode="&#x14a;" horiz-adv-x="740" 
d="M45 45v270l45 -45v-225h180v180l45 45h45v-90h45v-45l45 -45v-90l-45 -45h-45v-135h180v45h45l45 45v45l45 -45l-45 -45v-45h-45l-45 -45h-225v180l45 45h45v90l-45 45h-45v-135h-225zM45 315v360l45 45h225v-90h45v-45l45 -45v-45l45 -45v225l45 45h180v-45h-180v-315
h-45l-45 45v45l-45 45v45l-45 45h-45v90h-180v-360h-45z" />
    <glyph glyph-name="eng" unicode="&#x14b;" horiz-adv-x="674" 
d="M630 225v90l45 -45v-45h-45zM630 135v90l45 -45v-45h-45zM630 45v90l45 -45v-45h-45zM360 0v315h-45v-315h45zM45 45v450l45 45h225v-45l45 45h225v-45l45 -45v-90h45v-45h-90v135l-45 45h-180v-45h-45l-45 45h-180v-450h180v270l45 45h90v-360l-45 -45h-90v-135h225v45
h45l45 45v45l45 45v45l45 -45l-45 -45v-45l-45 -45v-45h-45l-45 -45h-270v180l45 45h-180z" />
    <glyph glyph-name="Omacron" unicode="&#x14c;" horiz-adv-x="742" 
d="M540 630v45h90v-45l45 -45v-45h-45v45l-45 45h-45zM675 495v45l45 -45h-45zM675 405v45l45 -45h-45zM675 315v45l45 -45h-45zM675 225v45l45 -45h-45zM270 180v270l45 45v45h90l45 -45v-270l-45 -45h-135zM45 90v90h-45v360h45v90h45l45 45h90l-45 -45h-45v-45h-45v-90
h-45v-270h45v-90h45v-45l45 -45h90v-45h180l45 45h90v45h45v90h45l45 -45h-45v-90h-45l-45 -45h-90v-45h-225l-45 45h-90v45l-45 45h-45zM405 225v270h-45l-45 -45v-225h90zM559 810v90l45 -45v-45h-45zM154 720v180h45v-135h360v45l45 -45l-45 -45h-405z" />
    <glyph glyph-name="omacron" unicode="&#x14d;" horiz-adv-x="642" 
d="M450 450v45h135v-45l45 -45h-45l-45 45h-90zM585 315v45l45 -45h-45zM360 180v135l-45 45v-180h45zM90 0v45l-45 45v45l-45 45v180l45 45v45l45 45h90l-45 -45h-45v-45l-45 -45v-180l45 -45v-45l45 -45h90v-45h180l45 45h45v45h45l45 45v-90h-45l-45 -45h-45v-45h-225
l-45 45h-90zM585 225v45l45 -45h-45zM585 135v45l45 -45h-45zM270 180v180l45 45h45v-45l45 -45v-180h-90zM129 585v180h360l45 -45v-45h-45v45h-315v-90h315v45l45 -45l-45 -45h-360z" />
    <glyph glyph-name="Obreve" unicode="&#x14e;" horiz-adv-x="742" 
d="M540 630v45h90v-45l45 -45v-45h-45v45l-45 45h-45zM675 495v45l45 -45h-45zM675 405v45l45 -45h-45zM675 315v45l45 -45h-45zM675 225v45l45 -45h-45zM270 180v270l45 45v45h90l45 -45v-270l-45 -45h-135zM45 90v90h-45v360h45v90h45l45 45h90l-45 -45h-45v-45h-45v-90
h-45v-270h45v-90h45v-45l45 -45h90v-45h180l45 45h90v45h45v90h45l45 -45h-45v-90h-45l-45 -45h-90v-45h-225l-45 45h-90v45l-45 45h-45zM405 225v270h-45l-45 -45v-225h90zM504 810v90l45 -45v-45h-45zM324 810v90h90v-45l-45 -45h-45zM234 720v45l-45 45v90h45v-90l45 -45
h180v45h45l45 -45h-45l-45 -45h-225z" />
    <glyph glyph-name="obreve" unicode="&#x14f;" horiz-adv-x="642" 
d="M450 450v45h135v-45l45 -45h-45l-45 45h-90zM585 315v45l45 -45h-45zM360 180v135l-45 45v-180h45zM90 0v45l-45 45v45l-45 45v180l45 45v45l45 45h90l-45 -45h-45v-45l-45 -45v-180l45 -45v-45l45 -45h90v-45h180l45 45h45v45h45l45 45v-90h-45l-45 -45h-45v-45h-225
l-45 45h-90zM585 225v45l45 -45h-45zM585 135v45l45 -45h-45zM270 180v180l45 45h45v-45l45 -45v-180h-90zM459 675v90l45 -45v-45h-45zM279 675v45l-45 45h45l45 -45v45h90v-45h-45l-45 -45h-45zM189 585v45l-45 45v90h45v-90l45 -45h180v45h45l45 -45h-45l-45 -45h-225z
" />
    <glyph glyph-name="Ohungarumlaut" unicode="&#x150;" horiz-adv-x="742" 
d="M540 630v45h90v-45l45 -45v-45h-45v45l-45 45h-45zM675 495v45l45 -45h-45zM675 405v45l45 -45h-45zM675 315v45l45 -45h-45zM675 225v45l45 -45h-45zM270 180v270l45 45v45h90l45 -45v-270l-45 -45h-135zM45 90v90h-45v360h45v90h45l45 45h90l-45 -45h-45v-45h-45v-90
h-45v-270h45v-90h45v-45l45 -45h90v-45h180l45 45h90v45h45v90h45l45 -45h-45v-90h-45l-45 -45h-90v-45h-225l-45 45h-90v45l-45 45h-45zM405 225v270h-45l-45 -45v-225h90zM177 720v180h90v-45h-45v-90h90v45h45l45 45v45h45l45 -45l-45 -45v-45h90v45h45l45 45v45h45
l45 -45h-45l-45 -45v-45h-45l-45 -45h-135v45h-45l-45 -45h-135z" />
    <glyph glyph-name="ohungarumlaut" unicode="&#x151;" horiz-adv-x="642" 
d="M450 450v45h135v-45l45 -45h-45l-45 45h-90zM585 315v45l45 -45h-45zM360 180v135l-45 45v-180h45zM90 0v45l-45 45v45l-45 45v180l45 45v45l45 45h90l-45 -45h-45v-45l-45 -45v-180l45 -45v-45l45 -45h90v-45h180l45 45h45v45h45l45 45v-90h-45l-45 -45h-45v-45h-225
l-45 45h-90zM585 225v45l45 -45h-45zM585 135v45l45 -45h-45zM270 180v180l45 45h45v-45l45 -45v-180h-90zM149 675v90h90v-45h-45zM329 675h45v45zM104 585v90h45v-45h90v45h45l45 45v45h135v-45h-45v-90h90v45h45l45 45v45l45 -45l-45 -45v-45h-45l-45 -45h-180v45h-45
l-45 -45h-135z" />
    <glyph glyph-name="OE" unicode="&#x152;" horiz-adv-x="1002" 
d="M945 630v45l45 -45h-45zM945 540v45l45 -45h-45zM270 225v270h45l45 45h90v-360h-135zM945 90v45l45 -45h-45zM90 45v45l-45 45v45l-45 45v270h45v90h45l45 45v45h45l45 45h720v-45h-720v-45h-45l-45 -45v-45h-45v-90h-45v-225l45 -45v-45l45 -45h45v-45h765l45 -45h-810
l-45 45h-45zM405 225v270h-45v-45h-45v-225h90zM630 225l45 45h225v135h-270v90l45 45h270v-45h-270v-45h270v-180l-45 -45h45l45 -45h-315z" />
    <glyph glyph-name="oe" unicode="&#x153;" horiz-adv-x="963" 
d="M450 450v45h90l-45 -45h-45zM315 135l-45 45h90v135l-45 45v-135h-45v135l45 45h45v-45l45 -45v-180h-90zM90 0v45l-45 45v45l-45 45v180l45 45v45l45 45h90l-45 -45h-45v-45l-45 -45v-180l45 -45v-45l45 -45h90v-45h180l45 45h135v-45h135l45 45h45v45h90v45h-270
l-45 45l45 45h90v-45l45 45v-45l45 45h90v180l-45 45h-90v45h135v-45l45 -45v-180l-45 -45l45 -45v-90h-90l-45 -45h-45v-45h-180l-45 45h-90v-45h-225l-45 45h-90zM585 360l45 45h90v-90h-90z" />
    <glyph glyph-name="Racute" unicode="&#x154;" horiz-adv-x="722" 
d="M315 495v-45h90v45h-90zM585 270l45 45v45l45 45v45l45 -45l-45 -45v-45l-45 -45h-45zM585 180v90l45 -45v-90zM45 0v720h450l45 -45h90v-45l45 -45v-45l45 -45v-45h-45v45l-45 45v45l-45 45h-90v45h-405v-630h180v135l45 45h90v-135l45 -45h225l-45 45v45h45v-45l45 -45
l-45 -45h-270v45l-45 45v90h-45v-135l-45 -45h-225zM315 405l-45 45v90h135l45 -45v-90h-135zM242 720l-45 45l45 45v45h45l45 45h45l-45 -45v-45h-45l-45 -45h180l45 45v45h90v-45h-45l-45 -45v-45h-225z" />
    <glyph glyph-name="racute" unicode="&#x155;" horiz-adv-x="518" 
d="M495 360v90l45 -45v-45h-45zM45 0v540h225l45 -45v45h180l45 -45v-45h-45v45h-135l-45 -45h-45v45h-180v-450h180v225l45 45h135v45h45l45 -45h-45l-45 -45h-135v-225l-45 -45h-225zM171 585v90h45v90h135v-45h-90v-90h90v45h90l45 45v45l45 -45l-45 -45v-45h-90l-45 -45
h-180z" />
    <glyph glyph-name="uni0156" unicode="&#x156;" horiz-adv-x="722" 
d="M315 495v-45h90v45h-90zM585 270l45 45v45l45 45v45l45 -45l-45 -45v-45l-45 -45h-45zM585 180v90l45 -45v-90zM45 0v720h450l45 -45h90v-45l45 -45v-45l45 -45v-45h-45v45l-45 45v45l-45 45h-90v45h-405v-630h180v135l45 45h90v-135l45 -45h225l-45 45v45h45v-45l45 -45
l-45 -45h-270v45l-45 45v90h-45v-135l-45 -45h-225zM315 405l-45 45v90h135l45 -45v-90h-135zM231 -90l45 45h225v-45h-45l45 -45h-45v-90l-45 -45h-180v180zM276 -90v-135h135v135h-135z" />
    <glyph glyph-name="uni0157" unicode="&#x157;" horiz-adv-x="518" 
d="M495 360v90l45 -45v-45h-45zM45 0v540h225l45 -45v45h180l45 -45v-45h-45v45h-135l-45 -45h-45v45h-180v-450h180v225l45 45h135v45h45l45 -45h-45l-45 -45h-135v-225l-45 -45h-225zM77 -90v-135h90v45h45v90h-135zM32 -90l45 45h225v-45h-45l45 -45h-45v-90h-45l-45 -45
h-135v180z" />
    <glyph glyph-name="Rcaron" unicode="&#x158;" horiz-adv-x="722" 
d="M315 495v-45h90v45h-90zM585 270l45 45v45l45 45v45l45 -45l-45 -45v-45l-45 -45h-45zM585 180v90l45 -45v-90zM45 0v720h450l45 -45h90v-45l45 -45v-45l45 -45v-45h-45v45l-45 45v45l-45 45h-90v45h-405v-630h180v135l45 45h90v-135l45 -45h225l-45 45v45h45v-45l45 -45
l-45 -45h-270v45l-45 45v90h-45v-135l-45 -45h-225zM315 405l-45 45v90h135l45 -45v-90h-135zM291 855l-45 45h180v-45h-135zM201 720v90h-45v45l-45 45h45l45 -45h45v-90h180v45h45l45 45v45l45 -45l-45 -45v-45h-45l-45 -45h-225z" />
    <glyph glyph-name="rcaron" unicode="&#x159;" horiz-adv-x="518" 
d="M495 360v90l45 -45v-45h-45zM45 0v540h225l45 -45v45h180l45 -45v-45h-45v45h-135l-45 -45h-45v45h-180v-450h180v225l45 45h135v45h45l45 -45h-45l-45 -45h-135v-225l-45 -45h-225zM148 585v45l-45 45h-45v90h45v-45h45v-45l45 -45h180v45h45l45 45v45l45 -45l-45 -45
v-45h-45l-45 -45h-225zM238 675v45h-90l-45 45h135l45 -45v45h135v-45h-90l-45 -45h-45z" />
    <glyph glyph-name="Sacute" unicode="&#x15a;" horiz-adv-x="697" 
d="M540 585v45l-45 45h45l45 -45h45v-45l45 -45v-45h-45v45l-45 45h-45zM360 405v45h-45l-45 45l45 45h90v-45h225l45 -45h-90v-45h45l45 -45v-45h-45v45h-45l-45 45h-180zM630 135v90l45 -45v-45h-45zM45 45v45l-45 45v90l45 45h90l-45 45h-45v90h-45v180h45l45 45v45h90
v-45h-45l-45 -45v-45h-45v-90h45v-90h45v-45h90l45 -45h180v-90h-180l-45 45h-180v-90l45 -45h45v-45h90l45 -45h180v45h90l45 45v45h45l45 -45h-45l-45 -45v-45h-90l-45 -45h-225v45h-90l-45 45h-45zM250 720l-45 45l45 45v45h45l45 45h45l-45 -45v-45h-45l-45 -45h180
l45 45v45h90v-45h-45l-45 -45v-45h-225z" />
    <glyph glyph-name="sacute" unicode="&#x15b;" horiz-adv-x="590" 
d="M270 315v90h225v45h-45l-45 45h90l45 -45h45v-45h-45l45 -45h-135v-45h45l45 -45h45v-45h-90v45h-45l-45 45h-135zM540 135v90l45 -45v-45h-45zM540 90v45l45 -45h-45zM0 45v90l45 45h90l-45 45h-45v45l-45 45v90l45 45v45h90v-45h-45l-45 -45v-90l45 -45h45v-45h135
l45 -45l-45 -45h-225v-45h45v-45h90l45 -45h135v45h135l45 45v-90h-135l-45 -45h-180v45h-90l-45 45h-45zM189 585v90h45v90h135v-45h-90v-90h90v45h90l45 45v45l45 -45l-45 -45v-45h-90l-45 -45h-180z" />
    <glyph glyph-name="Scircumflex" unicode="&#x15c;" horiz-adv-x="697" 
d="M540 585v45l-45 45h45l45 -45h45v-45l45 -45v-45h-45v45l-45 45h-45zM360 405v45h-45l-45 45l45 45h90v-45h225l45 -45h-90v-45h45l45 -45v-45h-45v45h-45l-45 45h-180zM630 135v90l45 -45v-45h-45zM45 45v45l-45 45v90l45 45h90l-45 45h-45v90h-45v180h45l45 45v45h90
v-45h-45l-45 -45v-45h-45v-90h45v-90h45v-45h90l45 -45h180v-90h-180l-45 45h-180v-90l45 -45h45v-45h90l45 -45h180v45h90l45 45v45h45l45 -45h-45l-45 -45v-45h-90l-45 -45h-225v45h-90l-45 45h-45zM119 720v90l45 45v45h90v-45h-45l-45 -45v-45h90v45h135l45 -45h90v45
l45 -45l-45 -45h-135v45h-90l-45 -45h-135zM479 810v45l-45 45h45l45 -45h45v-45h-90z" />
    <glyph glyph-name="scircumflex" unicode="&#x15d;" horiz-adv-x="590" 
d="M270 315v90h225v45h-45l-45 45h90l45 -45h45v-45h-45l45 -45h-135v-45h45l45 -45h45v-45h-90v45h-45l-45 45h-135zM540 135v90l45 -45v-45h-45zM540 90v45l45 -45h-45zM0 45v90l45 45h90l-45 45h-45v45l-45 45v90l45 45v45h90v-45h-45l-45 -45v-90l45 -45h45v-45h135
l45 -45l-45 -45h-225v-45h45v-45h90l45 -45h135v45h135l45 45v-90h-135l-45 -45h-180v45h-90l-45 45h-45zM76 585v90h45l45 45v45h90v-45h-45l-45 -45v-45h90v45h45l45 -45h135l-45 45h-45v45l-45 45h45l45 -45h45v-45l45 -45l-45 -45h-180v45l-45 -45h-180z" />
    <glyph glyph-name="Scedilla" unicode="&#x15e;" horiz-adv-x="697" 
d="M360 405v45h-45l-45 45l45 45h90v-45h225l45 -45h-90v-45h45l45 -45v-45h-45v45h-45l-45 45h-180zM630 135v90l45 -45v-45h-45zM45 45v45l-45 45v90l45 45h90l-45 45h-45v90h-45v180h45l45 45v45h45l45 45h360v-45l45 -45h45v-45l45 -45v-45h-45v45l-45 45h-45v45l-45 45
h-315v-45h-45l-45 -45v-45h-45v-90h45v-90h45v-45h90l45 -45h180v-90h-180l-45 45h-180v-90l45 -45h45v-45h90l45 -45h45v-90h90l-45 45l45 45h45v45h90l45 45v45h45l45 -45h-45l-45 -45v-45h-90l-45 -45h-45l45 -45v-90l-45 -45h-180v90h45v90h-45v45h-90l-45 45h-45z" />
    <glyph glyph-name="scedilla" unicode="&#x15f;" horiz-adv-x="590" 
d="M540 135v90l45 -45v-45h-45zM0 45v90l45 45h90l-45 45h-45v45l-45 45v90l45 45v45h45l45 45h315v-45h45l45 -45h45v-45h-45l45 -45h-135v-45h45l45 -45h45v-45h-90v45h-45l-45 45h-135v90h225v45h-45l-45 45h-270v-45h-45l-45 -45v-90l45 -45h45v-45h135l45 -45l-45 -45
h-225v-45h45v-45h90l45 -45h45v-90h90l-45 45l45 45v45h135l45 45v45l45 -45l-45 -45v-45h-135l-45 -45l45 -45v-90l-45 -45h-180v90h45v90h-45v45h-90l-45 45h-45z" />
    <glyph glyph-name="Scaron" unicode="&#x160;" horiz-adv-x="697" 
d="M540 585v45l-45 45h45l45 -45h45v-45l45 -45v-45h-45v45l-45 45h-45zM360 405v45h-45l-45 45l45 45h90v-45h225l45 -45h-90v-45h45l45 -45v-45h-45v45h-45l-45 45h-180zM630 135v90l45 -45v-45h-45zM45 45v45l-45 45v90l45 45h90l-45 45h-45v90h-45v180h45l45 45v45h90
v-45h-45l-45 -45v-45h-45v-90h45v-90h45v-45h90l45 -45h180v-90h-180l-45 45h-180v-90l45 -45h45v-45h90l45 -45h180v45h90l45 45v45h45l45 -45h-45l-45 -45v-45h-90l-45 -45h-225v45h-90l-45 45h-45zM299 855l-45 45h180v-45h-135zM209 720v90h-45v45l-45 45h45l45 -45h45
v-90h180v45h45l45 45v45l45 -45l-45 -45v-45h-45l-45 -45h-225z" />
    <glyph glyph-name="scaron" unicode="&#x161;" horiz-adv-x="590" 
d="M270 315v90h225v45h-45l-45 45h90l45 -45h45v-45h-45l45 -45h-135v-45h45l45 -45h45v-45h-90v45h-45l-45 45h-135zM540 135v90l45 -45v-45h-45zM540 90v45l45 -45h-45zM0 45v90l45 45h90l-45 45h-45v45l-45 45v90l45 45v45h90v-45h-45l-45 -45v-90l45 -45h45v-45h135
l45 -45l-45 -45h-225v-45h45v-45h90l45 -45h135v45h135l45 45v-90h-135l-45 -45h-180v45h-90l-45 45h-45zM166 585v45l-45 45h-45v90h45v-45h45v-45l45 -45h180v45h45l45 45v45l45 -45l-45 -45v-45h-45l-45 -45h-225zM256 675v45h-90l-45 45h135l45 -45v45h135v-45h-90
l-45 -45h-45z" />
    <glyph glyph-name="Tcaron" unicode="&#x164;" horiz-adv-x="674" 
d="M630 540v90l45 -45v-45h-45zM180 0v450h-180v270h630l45 -45v-45h-45v45h-585v-180h180v-450h225v405l45 45h135v45l45 -45l-45 -45h-135v-405l-45 -45h-270zM287 855l-45 45h180v-45h-135zM197 720v90h-45v45l-45 45h45l45 -45h45v-90h180v45h45l45 45v45l45 -45
l-45 -45v-45h-45l-45 -45h-225z" />
    <glyph glyph-name="tcaron" unicode="&#x165;" horiz-adv-x="532" 
d="M315 180v180h135l45 45v45l45 -45l-45 -45v-45h-135v-90h135v-45l45 -45l-45 -45v45l-45 45h-135zM495 0v90l45 -45zM90 90v225h-45l-45 45v180h90v180h225l45 -45v-135h135l45 -45v-45h-45v45h-135l-45 45v135h-180v-180h-90v-135h45l45 -45v-180h45v-45l45 -45h270
l-45 -45h-270v45l-45 45h-45zM439 635h90v45h45v90h-135v-135zM394 590v180l45 45h225v-45h-45l45 -45h-45v-90h-45l-45 -45h-135z" />
    <glyph glyph-name="Tbar" unicode="&#x166;" horiz-adv-x="682" 
d="M630 540v90l45 -45v-45h-45zM90 270v90l45 45h45v45h-180v270h630l45 -45v-45h-45v45h-585v-180h180v-90l-45 -45h-45v-45zM180 0v225h-45l-45 45h90l45 -45v-180h225v225h90l45 45l-45 45h-90v90l45 45h135v45l45 -45l-45 -45h-135v-45h90v-45l45 -45l-45 -45v-45h-90
v-180l-45 -45h-270z" />
    <glyph glyph-name="tbar" unicode="&#x167;" horiz-adv-x="533" 
d="M315 180v45h45v45h90l45 45l-45 45h-135v90h180l45 -45h-45v-45l45 -45l-45 -45v-90l45 -45v-45h-45v45l-45 45h-135zM90 90v135h-45l-45 45v90l45 45l-45 45v90h90v180h225l45 -45v-135h135l45 -45v-45h-45v45h-135l-45 45v135h-180v-180h-90v-45h45l45 -45l-45 -45h-45
v-90h45l45 -45v-90h45v-45l45 -45h270v45l45 -45l-45 -45h-315v45l-45 45h-45z" />
    <glyph glyph-name="Utilde" unicode="&#x168;" horiz-adv-x="746" 
d="M675 585v90l45 -45v-45h-45zM675 495v90l45 -45v-45h-45zM675 405v90l45 -45v-45h-45zM675 315v90l45 -45v-45h-45zM270 225v450h45v-450h90v450h45v-495h-135zM675 225v90l45 -45v-45h-45zM45 225v450h45v-405zM90 45v45l-45 45v90h45v-90l45 -45h45v-45h45l45 -45h180
v45h135l45 45v45l45 45v45l45 -45l-45 -45v-45l-45 -45v-45h-135l-45 -45h-225v45h-45l-45 45h-45zM389 855l-45 45h135v-45h-90zM164 720v180h90v-45h-45v-90h45v45h90l45 -45h90v45h45l45 45v45l45 -45l-45 -45v-45h-45l-45 -45h-135v45h-45l-45 -45h-90z" />
    <glyph glyph-name="utilde" unicode="&#x169;" horiz-adv-x="674" 
d="M270 180v315h45v-315h45v315h45v-360h-90zM90 0v45l-45 45v45l-45 45v315h45v-315l45 -45v-45l45 -45h45v-45h90l45 45h270v450h45v-450l-45 -45h-270v-45h-135l-45 45h-45zM533 720l-45 45h45v-45zM308 720l-45 45h180v-45h-135zM128 585v180h135v-45h-90v-90h315v45
l45 45v-90l-45 -45h-360z" />
    <glyph glyph-name="Umacron" unicode="&#x16a;" horiz-adv-x="746" 
d="M675 585v90l45 -45v-45h-45zM675 495v90l45 -45v-45h-45zM675 405v90l45 -45v-45h-45zM675 315v90l45 -45v-45h-45zM270 225v450h45v-450h90v450h45v-495h-135zM675 225v90l45 -45v-45h-45zM45 225v450h45v-405zM90 45v45l-45 45v90h45v-90l45 -45h45v-45h45l45 -45h180
v45h135l45 45v45l45 45v45l45 -45l-45 -45v-45l-45 -45v-45h-135l-45 -45h-225v45h-45l-45 45h-45zM561 810v90l45 -45v-45h-45zM156 720v180h45v-135h360v45l45 -45l-45 -45h-405z" />
    <glyph glyph-name="umacron" unicode="&#x16b;" horiz-adv-x="674" 
d="M270 180v315h45v-315h45v315h45v-360h-90zM90 0v45l-45 45v45l-45 45v315h45v-315l45 -45v-45l45 -45h45v-45h90l45 45h270v450h45v-450l-45 -45h-270v-45h-135l-45 45h-45zM145 585v180h360l45 -45v-45h-45v45h-315v-90h315v45l45 -45l-45 -45h-360z" />
    <glyph glyph-name="Ubreve" unicode="&#x16c;" horiz-adv-x="746" 
d="M675 585v90l45 -45v-45h-45zM675 495v90l45 -45v-45h-45zM675 405v90l45 -45v-45h-45zM675 315v90l45 -45v-45h-45zM270 225v450h45v-450h90v450h45v-495h-135zM675 225v90l45 -45v-45h-45zM45 225v450h45v-405zM90 45v45l-45 45v90h45v-90l45 -45h45v-45h45l45 -45h180
v45h135l45 45v45l45 45v45l45 -45l-45 -45v-45l-45 -45v-45h-135l-45 -45h-225v45h-45l-45 45h-45zM506 810v90l45 -45v-45h-45zM326 810v90h90v-45l-45 -45h-45zM236 720v45l-45 45v90h45v-90l45 -45h180v45h45l45 -45h-45l-45 -45h-225z" />
    <glyph glyph-name="ubreve" unicode="&#x16d;" horiz-adv-x="674" 
d="M270 180v315h45v-315h45v315h45v-360h-90zM90 0v45l-45 45v45l-45 45v315h45v-315l45 -45v-45l45 -45h45v-45h90l45 45h270v450h45v-450l-45 -45h-270v-45h-135l-45 45h-45zM475 675v90l45 -45v-45h-45zM295 675v45l-45 45h45l45 -45v45h90v-45h-45l-45 -45h-45zM205 585
v45l-45 45v90h45v-90l45 -45h180v45h45l45 -45h-45l-45 -45h-225z" />
    <glyph glyph-name="Uring" unicode="&#x16e;" horiz-adv-x="746" 
d="M675 585v90l45 -45v-45h-45zM675 495v90l45 -45v-45h-45zM675 405v90l45 -45v-45h-45zM675 315v90l45 -45v-45h-45zM270 225v450h45v-450h90v450h45v-495h-135zM675 225v90l45 -45v-45h-45zM45 225v450h45v-405zM90 45v45l-45 45v90h45v-90l45 -45h45v-45h45l45 -45h180
v45h135l45 45v45l45 45v45l45 -45l-45 -45v-45l-45 -45v-45h-135l-45 -45h-225v45h-45l-45 45h-45zM268 720v180l45 45h135v-45l45 -45v-45h-45v45l-45 45h-45l45 -45l-45 -45h-45v-45h90v45h45l45 -45h-45l-45 -45h-135z" />
    <glyph glyph-name="uring" unicode="&#x16f;" horiz-adv-x="674" 
d="M270 180v315h45v-315h45v315h45v-360h-90zM90 0v45l-45 45v45l-45 45v315h45v-315l45 -45v-45l45 -45h45v-45h90l45 45h270v450h45v-450l-45 -45h-270v-45h-135l-45 45h-45zM232 585v180h45l45 45h90v-45l45 -45v-45h-45v45l-45 45h-45v-45h-45v-90h45l-45 45l45 45h45
v-90h45v45l45 -45l-45 -45h-180z" />
    <glyph glyph-name="Uhungarumlaut" unicode="&#x170;" horiz-adv-x="746" 
d="M675 585v90l45 -45v-45h-45zM675 495v90l45 -45v-45h-45zM675 405v90l45 -45v-45h-45zM675 315v90l45 -45v-45h-45zM270 225v450h45v-450h90v450h45v-495h-135zM675 225v90l45 -45v-45h-45zM45 225v450h45v-405zM90 45v45l-45 45v90h45v-90l45 -45h45v-45h45l45 -45h180
v45h135l45 45v45l45 45v45l45 -45l-45 -45v-45l-45 -45v-45h-135l-45 -45h-225v45h-45l-45 45h-45zM179 720v180h90v-45h-45v-90h90v45h45l45 45v45h45l45 -45l-45 -45v-45h90v45h45l45 45v45h45l45 -45h-45l-45 -45v-45h-45l-45 -45h-135v45h-45l-45 -45h-135z" />
    <glyph glyph-name="uhungarumlaut" unicode="&#x171;" horiz-adv-x="674" 
d="M270 180v315h45v-315h45v315h45v-360h-90zM90 0v45l-45 45v45l-45 45v315h45v-315l45 -45v-45l45 -45h45v-45h90l45 45h270v450h45v-450l-45 -45h-270v-45h-135l-45 45h-45zM165 675v90h90v-45h-45zM345 675h45v45zM120 585v90h45v-45h90v45h45l45 45v45h135v-45h-45v-90
h90v45h45l45 45v45l45 -45l-45 -45v-45h-45l-45 -45h-180v45h-45l-45 -45h-135z" />
    <glyph glyph-name="Uogonek" unicode="&#x172;" horiz-adv-x="746" 
d="M675 585v90l45 -45v-45h-45zM675 495v90l45 -45v-45h-45zM675 405v90l45 -45v-45h-45zM675 315v90l45 -45v-45h-45zM675 225v90l45 -45v-45h-45zM90 45v45l-45 45v540l45 45h225v-495h90v450l45 45h270v-45h-270v-495h-135l-45 45v450h-180v-540l45 -45h45v-45h90l45 -45
v-135l45 -45h135v45h-90v90l45 45v45h135l45 45v45l45 45v45l45 -45l-45 -45v-45l-45 -45v-45h-135l-45 -45v-45h90v-90l-45 -45h-180v45l-45 45v135h-90l-45 45h-45z" />
    <glyph glyph-name="uogonek" unicode="&#x173;" horiz-adv-x="674" 
d="M90 0v45l-45 45v45l-45 45v360h270l45 -45v-315h90v-45h-90l-45 45v315h-225v-315l45 -45v-45l45 -45h45v-45h90l45 45h135v-180h45v-45h90v45l-45 45v90h45v495h-180v-270h-45v315h225l45 -45v-540h-45v-45l45 -45v-90h-135l-45 45h-45v180h-90v-45h-135l-45 45h-45z
" />
    <glyph glyph-name="Wcircumflex" unicode="&#x174;" horiz-adv-x="856" 
d="M810 630v45l45 -45h-45zM810 540v45l45 -45h-45zM90 45v135l-45 45v270h-45v180l45 45h225v-45l45 -45v-135l45 45v45h90l45 -45h45v135h45l45 45h180v-45h-180v-45h-45v-180l-45 -45h-45v90h-45v45h-45l-45 -45v-45l-45 -45h-45v225l-45 45h-180v-135h45v-315l45 -45
v-135h180l45 45v45l45 45h90v-90h45v-45h180v180h45v270l45 45v-360h-45v-180h-225l-45 45h-45v90h-45v-45l-45 -45v-45h-225zM198 720v90l45 45v45h90v-45h-45l-45 -45v-45h90v45h135l45 -45h90v45l45 -45l-45 -45h-135v45h-90l-45 -45h-135zM558 810v45l-45 45h45l45 -45
h45v-45h-90z" />
    <glyph glyph-name="wcircumflex" unicode="&#x175;" horiz-adv-x="869" 
d="M810 360v90l45 -45v-45h-45zM675 0v90h45v90l45 45v135h45l45 -45h-45v-90l-45 -45v-135h-45zM90 90v135l-45 45v90h-45v180h225l45 -45v-135l45 45v135h180l45 -45v-45l45 -45v45l45 45v45h180l45 -45v-45h-45v45h-135l-45 -45v-135l-45 -45h-45v135l-45 45v45h-135v-90
l-45 -45v-45h-45l-45 45v135h-180v-90h45v-135l45 -45v-90h45v-90h180v135h45l45 45h45v-135l45 -45h135l-45 -45h-135v45l-45 45v45h-45v-90l-45 -45h-225v90h-45zM216 585v90h45l45 45v45h90v-45h-45l-45 -45v-45h90v45h45l45 -45h135l-45 45h-45v45l-45 45h45l45 -45h45
v-45l45 -45l-45 -45h-180v45l-45 -45h-180z" />
    <glyph glyph-name="Ycircumflex" unicode="&#x176;" horiz-adv-x="710" 
d="M225 90v135l-45 45v45l-45 45v45l-45 45v45l-45 45v45l-45 45v90h225l45 -45h45v-90h45v-45l45 45v45l45 45v45h225l45 -45v-45h-45v45h-180l-45 -45v-45l-45 -45v-45l-45 -45h-45v90h-45v90h-45v45h-180v-45l45 -45v-45l45 -45v-45l45 -45v-45l45 -45v-45l45 -45v-90z
M360 0v45h90v225h45v90h45v90h45v90h45v90h45l45 -45h-45v-90h-45v-90h-45v-90h-45v-90h-45v-180l-45 -45h-90zM225 0v90h45v-45h90l-45 -45h-90zM125 720v90l45 45v45h90v-45h-45l-45 -45v-45h90v45h135l45 -45h90v45l45 -45l-45 -45h-135v45h-90l-45 -45h-135zM485 810v45
l-45 45h45l45 -45h45v-45h-90z" />
    <glyph glyph-name="ycircumflex" unicode="&#x177;" horiz-adv-x="636" 
d="M585 405v90l45 -45v-45h-45zM270 315v90h-45v90h45v-45h45v-45h45v90h90v-45h-45v-90h-45v-90h-45zM135 -45l45 45v90l-45 45v45l-45 45v45l-45 45v90h-45v90h45v-45h45v-135l45 -45v-45l45 -45v-45l45 -45v-90l-45 -45v-135h135v45h45v90l45 45v45l45 45v45l45 45v135
h45v90h45l45 -45h-45v-90h-45v-90l-45 -45v-45l-45 -45v-45l-45 -45v-135h-45l-45 -45h-180v180zM104 585v90h45l45 45v45h90v-45h-45l-45 -45v-45h90v45h45l45 -45h135l-45 45h-45v45l-45 45h45l45 -45h45v-45l45 -45l-45 -45h-180v45l-45 -45h-180z" />
    <glyph glyph-name="Ydieresis" unicode="&#x178;" horiz-adv-x="710" 
d="M225 90v135l-45 45v45l-45 45v45l-45 45v45l-45 45v45l-45 45v90h225l45 -45h45v-90h45v-45l45 45v45l45 45v45h225l45 -45v-45h-45v45h-180l-45 -45v-45l-45 -45v-45l-45 -45h-45v90h-45v90h-45v45h-180v-45l45 -45v-45l45 -45v-45l45 -45v-45l45 -45v-45l45 -45v-90z
M360 0v45h90v225h45v90h45v90h45v90h45v90h45l45 -45h-45v-90h-45v-90h-45v-90h-45v-90h-45v-180l-45 -45h-90zM225 0v90h45v-45h90l-45 -45h-90zM535 810v90l45 -45v-45h-45zM400 720v180h45v-135h90v45l45 -45l-45 -45h-135zM130 720v180h45v-135h90v135h45v-135l-45 -45
h-135z" />
    <glyph glyph-name="Zacute" unicode="&#x179;" horiz-adv-x="693" 
d="M585 675l45 45v-45h-45zM630 630v45l45 -45h-45zM630 540v45l45 -45h-45zM540 360v45l45 45v45h45l45 -45h-45l-45 -45v-45h-45zM360 225l45 45v45h45l45 45h45l-45 -45v-45h-45l-45 -45h225l45 -45h-270zM0 45v180h45l45 45v45h45l45 45v45h45l45 45v45h-225v180l45 45
h495v-45h-495v-135h270v-90h-45l-45 -45v-45h-45l-45 -45v-45h-45l-45 -45v-45h-45v-135h585l45 -45h-630zM630 90v45l45 -45h-45zM238 720l-45 45l45 45v45h45l45 45h45l-45 -45v-45h-45l-45 -45h180l45 45v45h90v-45h-45l-45 -45v-45h-225z" />
    <glyph glyph-name="zacute" unicode="&#x17a;" horiz-adv-x="590" 
d="M540 90v45l45 -45h-45zM270 0v45h270l45 -45h-315zM0 45v90l45 45v45h45l45 45v45h-90v45l-45 45v90l45 45h495v-270h-90l-45 -45v-45h135v-45h-225v90h45l45 45v45h90v180h-450v-90l45 -45h135v-90h-45l-45 -45v-45h-45l-45 -45v-90h180l45 -45h-225zM191 585v90h45v90
h135v-45h-90v-90h90v45h90l45 45v45l45 -45l-45 -45v-45h-90l-45 -45h-180z" />
    <glyph glyph-name="Zdotaccent" unicode="&#x17b;" horiz-adv-x="693" 
d="M585 675l45 45v-45h-45zM630 630v45l45 -45h-45zM630 540v45l45 -45h-45zM540 360v45l45 45v45h45l45 -45h-45l-45 -45v-45h-45zM360 225l45 45v45h45l45 45h45l-45 -45v-45h-45l-45 -45h225l45 -45h-270zM0 45v180h45l45 45v45h45l45 45v45h45l45 45v45h-225v180l45 45
h495v-45h-495v-135h270v-90h-45l-45 -45v-45h-45l-45 -45v-45h-45l-45 -45v-45h-45v-135h585l45 -45h-630zM630 90v45l45 -45h-45zM421 810v90l45 -45v-45h-45zM241 720v180l45 45h180v-45h-180v-135h90v45h45l45 -45h-45l-45 -45h-135z" />
    <glyph glyph-name="zdotaccent" unicode="&#x17c;" horiz-adv-x="590" 
d="M540 90v45l45 -45h-45zM270 0v45h270l45 -45h-315zM0 45v90l45 45v45h45l45 45v45h-90v45l-45 45v90l45 45h495v-270h-90l-45 -45v-45h135v-45h-225v90h45l45 45v45h90v180h-450v-90l45 -45h135v-90h-45l-45 -45v-45h-45l-45 -45v-90h180l45 -45h-225zM203 585v180h45
v-135h135v-45h-180z" />
    <glyph glyph-name="Zcaron" unicode="&#x17d;" horiz-adv-x="693" 
d="M585 675l45 45v-45h-45zM630 630v45l45 -45h-45zM630 540v45l45 -45h-45zM540 360v45l45 45v45h45l45 -45h-45l-45 -45v-45h-45zM360 225l45 45v45h45l45 45h45l-45 -45v-45h-45l-45 -45h225l45 -45h-270zM0 45v180h45l45 45v45h45l45 45v45h45l45 45v45h-225v180l45 45
h495v-45h-495v-135h270v-90h-45l-45 -45v-45h-45l-45 -45v-45h-45l-45 -45v-45h-45v-135h585l45 -45h-630zM630 90v45l45 -45h-45zM287 855l-45 45h180v-45h-135zM197 720v90h-45v45l-45 45h45l45 -45h45v-90h180v45h45l45 45v45l45 -45l-45 -45v-45h-45l-45 -45h-225z" />
    <glyph glyph-name="zcaron" unicode="&#x17e;" horiz-adv-x="590" 
d="M540 90v45l45 -45h-45zM270 0v45h270l45 -45h-315zM0 45v90l45 45v45h45l45 45v45h-90v45l-45 45v90l45 45h495v-270h-90l-45 -45v-45h135v-45h-225v90h45l45 45v45h90v180h-450v-90l45 -45h135v-90h-45l-45 -45v-45h-45l-45 -45v-90h180l45 -45h-225zM168 585v45l-45 45
h-45v90h45v-45h45v-45l45 -45h180v45h45l45 45v45l45 -45l-45 -45v-45h-45l-45 -45h-225zM258 675v45h-90l-45 45h135l45 -45v45h135v-45h-90l-45 -45h-45z" />
    <glyph glyph-name="longs" unicode="&#x17f;" horiz-adv-x="387" 
d="M450 630v90l45 -45v-45h-45zM90 0v315h-45l-45 45v180h90v90l45 45v45h90l45 45h225v-45h-225v-45h-90l-45 -45v-135h-90v-135h45l45 -45v-270h180v495l45 45h90v45l45 -45l-45 -45h-90v-495l-45 -45h-225z" />
    <glyph glyph-name="florin" unicode="&#x192;" horiz-adv-x="522" 
d="M270 720l45 45h180v-45h-225zM495 675v45l45 -45h-45zM495 585v45l45 -45h-45zM0 405v135h90v90h45v90h90l45 45v-90h-90v-90h-45v-90h-90v-90h-45zM0 360l45 45v-45h-45zM0 -45v-135h225l45 45v45h45v450h135v135h-90l-45 45l45 45h135v-45h-45l45 -45v-180h-135v-450
h-45l-45 -45v-45h-270l-45 45v180h135v315h-45v45h45l45 -45v-360h-135z" />
    <glyph glyph-name="AEacute" unicode="&#x1fc;" horiz-adv-x="1005" 
d="M675 675v45h270l45 -45v-45h-45v45h-270zM945 540v90l45 -45v-45h-45zM0 0v180h45v90l45 45v45l45 45v135h45v90l45 45v45h405l45 -45h-405l-45 -45v-135h-45v-90l-45 -45v-45l-45 -45v-135h-45v-90h180v45h45l45 45h135v-90h495v45l45 -45l-45 -45h-540v90h-90v-45h-45
l-45 -45h-225zM315 270v90l45 45v135h45l45 -45v-180l-45 -45h-90zM945 90v90l45 -45v-45h-45zM360 315h45v90l-45 -45v-45zM630 180v90h270v135h-225l-45 45v90h315l45 -45h-315v-45h225l45 -45v-180h45v-45h-360zM404 720l-45 45l45 45v45h45l45 45h45l-45 -45v-45h-45
l-45 -45h180l45 45v45h90v-45h-45l-45 -45v-45h-225z" />
    <glyph glyph-name="aeacute" unicode="&#x1fd;" horiz-adv-x="935" 
d="M810 405v45l-45 45h45l45 -45h45v-45h-90zM855 315v90l45 -45v-45h-45zM585 315v90h45l45 -45l-45 -45h-45zM0 45v180l45 45v225h135v-45h-90v-90h135v45h90l45 -45l-45 -45h-90v-45h-135l-45 -45v-135h45v-45h45l45 -45h135v45h180l45 -45h135v45h135l45 45v45l45 -45
l-45 -45v-45h-135l-45 -45h-180v45h-135l-45 -45h-180v45h-45l-45 45h-45zM225 135v90h90l45 -45l-45 -45h-90zM540 135v90h315l45 -45v-45h-360zM362 585v90h45v90h135v-45h-90v-90h90v45h90l45 45v45l45 -45l-45 -45v-45h-90l-45 -45h-180z" />
    <glyph glyph-name="Oslashacute" unicode="&#x1fe;" horiz-adv-x="742" 
d="M540 720v45h90v-45h-45l-45 -45h-315v-45h-90l-45 -45v-45l-45 -45v-270l45 -45v-45l45 -45v-45h90l45 -45h180v45h135l45 45v45l45 45v-90l-45 -45v-45h-135l-45 -45h-225v45h-45v-90h-90l-45 45v90h45v45l-45 45v45l-45 45v270l45 45v45l45 45v45h90l45 45h315z
M630 765h45l45 -45h-45zM675 585l45 -45h-45l-45 45h-45v90h45l45 45v-135zM450 450h-45v-90h-45l-45 -45h-45v180h45l45 45h90v-90zM720 450h-45v45zM315 450v-45h45v45h-45zM720 360h-45v45zM315 225l45 45v45l45 45h45v-180h-90zM720 270h-45v45zM360 225h45v45zM675 180
v45l45 -45h-45zM90 -45h45v45h-45v-45zM272 720l-45 45l45 45v45h45l45 45h45l-45 -45v-45h-45l-45 -45h180l45 45v45h90v-45h-45l-45 -45v-45h-225z" />
    <glyph glyph-name="oslashacute" unicode="&#x1ff;" horiz-adv-x="642" 
d="M585 315v45l45 -45h-45zM585 225v45l45 -45h-45zM0 0l45 45v90l-45 45v180l45 45v45l45 45h45v45h450l45 -45h-45v-45l45 -45h-45l-45 45v45h-360l-45 -45h-45v-45l-45 -45v-180l45 -45v-90l-45 -45h45l45 45h90v-45h180l45 45h45v45h45l45 45v-90h-45l-45 -45h-45v-45
h-225l-45 45h-45v-45h-90zM315 180h45v45zM585 135v45l45 -45h-45zM270 270v90l45 45h45v-90l-45 -45h-45zM270 180l45 45v45h45l45 -45v-90h-90zM215 585v90h45v90h135v-45h-90v-90h90v45h90l45 45v45l45 -45l-45 -45v-45h-90l-45 -45h-180z" />
    <glyph glyph-name="uni0218" unicode="&#x218;" horiz-adv-x="697" 
d="M540 585v45l-45 45h45l45 -45h45v-45l45 -45v-45h-45v45l-45 45h-45zM360 405v45h-45l-45 45l45 45h90v-45h225l45 -45h-90v-45h45l45 -45v-45h-45v45h-45l-45 45h-180zM630 135v90l45 -45v-45h-45zM45 45v45l-45 45v90l45 45h90l-45 45h-45v90h-45v180h45l45 45v45h90
v-45h-45l-45 -45v-45h-45v-90h45v-90h45v-45h90l45 -45h180v-90h-180l-45 45h-180v-90l45 -45h45v-45h90l45 -45h180v45h90l45 45v45h45l45 -45h-45l-45 -45v-45h-90l-45 -45h-225v45h-90l-45 45h-45zM211 -90l45 45h225v-45h-45l45 -45h-45v-90l-45 -45h-180v180zM256 -90
v-135h135v135h-135z" />
    <glyph glyph-name="uni0219" unicode="&#x219;" horiz-adv-x="590" 
d="M270 315v90h225v45h-45l-45 45h90l45 -45h45v-45h-45l45 -45h-135v-45h45l45 -45h45v-45h-90v45h-45l-45 45h-135zM540 135v90l45 -45v-45h-45zM540 90v45l45 -45h-45zM0 45v90l45 45h90l-45 45h-45v45l-45 45v90l45 45v45h90v-45h-45l-45 -45v-90l45 -45h45v-45h135
l45 -45l-45 -45h-225v-45h45v-45h90l45 -45h135v45h135l45 45v-90h-135l-45 -45h-180v45h-90l-45 45h-45zM208 -90v-135h90v45h45v90h-135zM163 -90l45 45h225v-45h-45l45 -45h-45v-90h-45l-45 -45h-135v180z" />
    <glyph glyph-name="uni021A" unicode="&#x21a;" horiz-adv-x="674" 
d="M630 540v90l45 -45v-45h-45zM180 0v450h-180v270h630l45 -45v-45h-45v45h-585v-180h180v-450h225v405l45 45h135v45l45 -45l-45 -45h-135v-405l-45 -45h-270zM199 -90l45 45h225v-45h-45l45 -45h-45v-90l-45 -45h-180v180zM244 -90v-135h135v135h-135z" />
    <glyph glyph-name="uni021B" unicode="&#x21b;" horiz-adv-x="532" 
d="M315 180v180h135l45 45v45l45 -45l-45 -45v-45h-135v-90h135v-45l45 -45l-45 -45v45l-45 45h-135zM495 0v90l45 -45zM90 90v225h-45l-45 45v180h90v180h225l45 -45v-135h135l45 -45v-45h-45v45h-135l-45 45v135h-180v-180h-90v-135h45l45 -45v-180h45v-45l45 -45h270
l-45 -45h-270v45l-45 45h-45zM224 -90v-135h90v45h45v90h-135zM179 -90l45 45h225v-45h-45l45 -45h-45v-90h-45l-45 -45h-135v180z" />
    <glyph glyph-name="uni0237" unicode="&#x237;" horiz-adv-x="482" 
d="M405 405v90l45 -45v-45h-45zM405 315v90l45 -45v-45h-45zM405 225v90l45 -45v-45h-45zM405 135v90l45 -45v-45h-45zM405 45v90l45 -45v-45h-45zM405 45l45 -45v-45h-45v90zM45 0v-180h180v45h90l45 45v45h45l45 -45h-45l-45 -45v-45h-90l-45 -45h-225v270h180v270h-180
v180h45v-135h180v-360h-180z" />
    <glyph glyph-name="uni02BC" unicode="&#x2bc;" horiz-adv-x="226" 
d="M40 755v-135h90v45h45v90h-135zM-5 755l45 45h225v-45h-45l45 -45h-45v-90h-45l-45 -45h-135v180z" />
    <glyph glyph-name="circumflex" unicode="&#x2c6;" horiz-adv-x="528" 
d="M45 585v90h45l45 45v45h90v-45h-45l-45 -45v-45h90v45h45l45 -45h135l-45 45h-45v45l-45 45h45l45 -45h45v-45l45 -45l-45 -45h-180v45l-45 -45h-180z" />
    <glyph glyph-name="caron" unicode="&#x2c7;" horiz-adv-x="528" 
d="M135 585v45l-45 45h-45v90h45v-45h45v-45l45 -45h180v45h45l45 45v45l45 -45l-45 -45v-45h-45l-45 -45h-225zM225 675v45h-90l-45 45h135l45 -45v45h135v-45h-90l-45 -45h-45z" />
    <glyph glyph-name="breve" unicode="&#x2d8;" horiz-adv-x="445" 
d="M360 675v90l45 -45v-45h-45zM180 675v45l-45 45h45l45 -45v45h90v-45h-45l-45 -45h-45zM90 585v45l-45 45v90h45v-90l45 -45h180v45h45l45 -45h-45l-45 -45h-225z" />
    <glyph glyph-name="dotaccent" unicode="&#x2d9;" horiz-adv-x="277" 
d="M45 585v180h45v-135h135v-45h-180z" />
    <glyph glyph-name="ring" unicode="&#x2da;" horiz-adv-x="300" 
d="M45 585v180h45l45 45h90v-45l45 -45v-45h-45v45l-45 45h-45v-45h-45v-90h45l-45 45l45 45h45v-90h45v45l45 -45l-45 -45h-180z" />
    <glyph glyph-name="ogonek" unicode="&#x2db;" horiz-adv-x="303" 
d="M225 45v45l45 -45h-45zM45 0v90h45l45 45h90v-45h-90v-45h-45v-90h-45v-45l45 -45h45v-45h90l45 -45h-135l-45 45h-45v45l-45 45v90h45zM135 -90v90h45l45 45v-135l45 -45h-45l-45 45h-45z" />
    <glyph glyph-name="tilde" unicode="&#x2dc;" horiz-adv-x="507" 
d="M450 720l-45 45h45v-45zM225 720l-45 45h180v-45h-135zM45 585v180h135v-45h-90v-90h315v45l45 45v-90l-45 -45h-360z" />
    <glyph glyph-name="hungarumlaut" unicode="&#x2dd;" horiz-adv-x="622" 
d="M90 675v90h90v-45h-45zM270 675h45v45zM45 585v90h45v-45h90v45h45l45 45v45h135v-45h-45v-90h90v45h45l45 45v45l45 -45l-45 -45v-45h-45l-45 -45h-180v45h-45l-45 -45h-135z" />
    <glyph glyph-name="gravecomb" unicode="&#x300;" 
d="M177 585v45h-45l-45 45h-45v90h45v-45h45v-45h45l45 -45h135l-45 45v45h-45l-45 45h90l45 -45v-45l45 -45l-45 -45h-180z" />
    <glyph glyph-name="acutecomb" unicode="&#x301;" 
d="M45 585v90h45v90h135v-45h-90v-90h90v45h90l45 45v45l45 -45l-45 -45v-45h-90l-45 -45h-180z" />
    <glyph glyph-name="uni0302" unicode="&#x302;" 
d="M45 585v90h45l45 45v45h90v-45h-45l-45 -45v-45h90v45h45l45 -45h135l-45 45h-45v45l-45 45h45l45 -45h45v-45l45 -45l-45 -45h-180v45l-45 -45h-180z" />
    <glyph glyph-name="tildecomb" unicode="&#x303;" 
d="M450 720l-45 45h45v-45zM225 720l-45 45h180v-45h-135zM45 585v180h135v-45h-90v-90h315v45l45 45v-90l-45 -45h-360z" />
    <glyph glyph-name="uni0304" unicode="&#x304;" 
d="M45 585v180h360l45 -45v-45h-45v45h-315v-90h315v45l45 -45l-45 -45h-360z" />
    <glyph glyph-name="uni0306" unicode="&#x306;" 
d="M360 675v90l45 -45v-45h-45zM180 675v45l-45 45h45l45 -45v45h90v-45h-45l-45 -45h-45zM90 585v45l-45 45v90h45v-90l45 -45h180v45h45l45 -45h-45l-45 -45h-225z" />
    <glyph glyph-name="uni0307" unicode="&#x307;" 
d="M45 585v180h45v-135h135v-45h-180z" />
    <glyph glyph-name="uni0308" unicode="&#x308;" 
d="M450 675v45l-45 45h45l45 -45v-45h-45zM45 585v180h45v-135h90v135h45v-135l-45 -45h-135zM270 585v180h45v-135h135v45l45 -45l-45 -45h-180z" />
    <glyph glyph-name="uni030A" unicode="&#x30a;" 
d="M45 585v180h45l45 45h90v-45l45 -45v-45h-45v45l-45 45h-45v-45h-45v-90h45l-45 45l45 45h45v-90h45v45l45 -45l-45 -45h-180z" />
    <glyph glyph-name="uni030B" unicode="&#x30b;" 
d="M90 675v90h90v-45h-45zM270 675h45v45zM45 585v90h45v-45h90v45h45l45 45v45h135v-45h-45v-90h90v45h45l45 45v45l45 -45l-45 -45v-45h-45l-45 -45h-180v45h-45l-45 -45h-135z" />
    <glyph glyph-name="uni030C" unicode="&#x30c;" 
d="M135 585v45l-45 45h-45v90h45v-45h45v-45l45 -45h180v45h45l45 45v45l45 -45l-45 -45v-45h-45l-45 -45h-225zM225 675v45h-90l-45 45h135l45 -45v45h135v-45h-90l-45 -45h-45z" />
    <glyph glyph-name="uni0312" unicode="&#x312;" 
d="M450 675v90l45 -45v-45h-45zM225 585v90l45 45v45l45 45h180v-45h-180v-45l-45 -45v-45h135v45h45l45 -45h-45l-45 -45h-180z" />
    <glyph glyph-name="uni0326" unicode="&#x326;" 
d="M90 -90v-135h90v45h45v90h-135zM45 -90l45 45h225v-45h-45l45 -45h-45v-90h-45l-45 -45h-135v180z" />
    <glyph glyph-name="uni0327" unicode="&#x327;" 
d="M90 0v-90h90l-45 45v45h-45zM45 -225v270h90l45 -45v-45l45 -45h45v-45h-45l45 -45h-45l-45 -45h-135z" />
    <glyph glyph-name="uni0328" unicode="&#x328;" 
d="M225 45v45l45 -45h-45zM45 0v90h45l45 45h90v-45h-90v-45h-45v-90h-45v-45l45 -45h45v-45h90l45 -45h-135l-45 45h-45v45l-45 45v90h45zM135 -90v90h45l45 45v-135l45 -45h-45l-45 45h-45z" />
    <glyph glyph-name="uni0335" unicode="&#x335;" 
d="M45 225v90l45 45h360v-45h-360v-45h315v45l45 -45l-45 -45h-360z" />
    <glyph glyph-name="uni0337" unicode="&#x337;" 
d="M585 495v45l45 -45h-45zM225 180h45l45 45h-45zM135 90h45l45 45h-45zM45 0h90v45h-45zM315 270h45l45 45h-45zM0 0l45 45v45h45l45 45v45h45l45 45v45h45l45 45v45h45l45 45v45l45 45v45h90v-45h-45l-45 -45v-45l-45 -45h45l45 45v45h45l45 45v-90h-45l-45 -45v-45h-45
l-45 -45v-45h-45l-45 -45v-45h-45l-45 -45v-45h-45v-90h-135z" />
    <glyph glyph-name="uni0338" unicode="&#x338;" 
d="M270 450l45 45v45h45v90h45l45 45v45l45 45h45l-45 -45v-45l-45 -45v-45h-45v-45h45l45 45v45l45 45v90h90v-45h-45l45 -45h-45l-45 -45v-45l-45 -45v-45h-45l-45 -45h-45l45 45h-45l-45 -45h-45zM270 270v45h-45v-45h45zM135 90l45 45v45l45 45h-45l-45 -45v-45h-45v-45
h45zM0 45v45h45v90h45l45 45v45h45v90h45l45 45v45l45 -45l-45 -45h45l45 45v45l45 -45l-45 -45v-45h-45v-90h-45l-45 -45v-45l-45 -45v-45h-45v-90h-45l-45 -45h-90v90zM0 0v-45h45v45h45v45h-45z" />
    <glyph glyph-name="uni0400" unicode="&#x400;" horiz-adv-x="667" 
d="M585 720l45 -45v-45h-45v45h-495v-630h45l-45 -45h-45v720h540zM630 540h-45v90l45 -45v-45zM585 540l45 -45h-315v-45h270l45 -45v-45h-45v45h-270l-45 45v90h315zM630 270h-45v90l45 -45v-45zM585 270l45 -45v-45h-360v90h315zM225 0h-90v45h135zM270 0v45h360l-45 -45
h-315zM365 810v45l-45 45h45l45 -45h45v-45h-90zM230 720v45l-45 45h-45v45l-45 45h45l45 -45h45v-45l45 -45h180v-45h-225z" />
    <glyph glyph-name="uni0401" unicode="&#x401;" horiz-adv-x="667" 
d="M585 720l45 -45v-45h-45v45h-495v-630h45l-45 -45h-45v720h540zM630 540h-45v90l45 -45v-45zM585 540l45 -45h-315v-45h270l45 -45v-45h-45v45h-270l-45 45v90h315zM630 270h-45v90l45 -45v-45zM585 270l45 -45v-45h-360v90h315zM225 0h-90v45h135zM270 0v45h360l-45 -45
h-315zM549 855v45l-45 45h45l45 -45v-45h-45zM144 765v180h45v-135h90v135h45v-135l-45 -45h-135zM369 765v180h45v-135h135v45l45 -45l-45 -45h-180z" />
    <glyph glyph-name="uni0402" unicode="&#x402;" horiz-adv-x="822" 
d="M765 270v90l45 -45v-45h-45zM765 180v90l45 -45v-45h-45zM405 180v90h135l45 -45l-45 -45h-45v-45h-45zM135 0v495h-90l-45 45v180h630l45 -45v-180h45v-45l45 -45h45v-45h-90v45l-45 45h-270v90h225v135h-585v-135h90l45 -45v-450h495v45h45l45 45v45l45 -45l-45 -45
v-45h-45l-45 -45h-540zM450 180l45 45h-45v-45z" />
    <glyph glyph-name="uni0403" unicode="&#x403;" horiz-adv-x="599" 
d="M540 540v90l45 -45v-45h-45zM45 0v720h495l45 -45v-45h-45v45h-450v-630h180v495h270l45 -45h-270v-450l-45 -45h-225zM251 720l-45 45l45 45v45h45l45 45h45l-45 -45v-45h-45l-45 -45h180l45 45v45h90v-45h-45l-45 -45v-45h-225z" />
    <glyph glyph-name="uni0404" unicode="&#x404;" horiz-adv-x="728" 
d="M540 630v45h90v-45l45 -45v-45h-45v45l-45 45h-45zM0 315v225h45v90h45l45 45h90l-45 -45h-45v-45h-45v-90h-45v-180h-45zM675 495v45l45 -45h-45zM315 495v-45h90v45h-90zM45 90v45l-45 45v90l45 45v-135l45 -45h45v-45l45 -45h90v-45h180l45 45h90v45h45v90h-360v90
h180v135h-135l-45 45v90h135l45 -45h225v-45h-225l45 -45v-180h180v-45l45 -45h-45v-90h-45l-45 -45h-90v-45h-225l-45 45h-90v45l-45 45h-45z" />
    <glyph glyph-name="uni0405" unicode="&#x405;" horiz-adv-x="697" 
d="M540 585v45l-45 45h45l45 -45h45v-45l45 -45v-45h-45v45l-45 45h-45zM360 405v45h-45l-45 45l45 45h90v-45h225l45 -45h-90v-45h45l45 -45v-45h-45v45h-45l-45 45h-180zM630 135v90l45 -45v-45h-45zM45 45v45l-45 45v90l45 45h90l-45 45h-45v90h-45v180h45l45 45v45h90
v-45h-45l-45 -45v-45h-45v-90h45v-90h45v-45h90l45 -45h180v-90h-180l-45 45h-180v-90l45 -45h45v-45h90l45 -45h180v45h90l45 45v45h45l45 -45h-45l-45 -45v-45h-90l-45 -45h-225v45h-90l-45 45h-45z" />
    <glyph glyph-name="uni0406" unicode="&#x406;" horiz-adv-x="368" 
d="M270 540v90l45 -45v-45h-45zM270 450v90l45 -45v-45h-45zM45 450v270h225l45 -45v-45h-45v45h-180v-180zM270 360v90l45 -45v-45h-45zM270 270v90l45 -45v-45h-45zM270 180v90l45 -45v-45h-45zM270 90v90l45 -45v-45h-45zM45 0v450l45 -45v-360h180v45l45 -45l-45 -45
h-225z" />
    <glyph glyph-name="uni0407" unicode="&#x407;" horiz-adv-x="368" 
d="M270 540v90l45 -45v-45h-45zM270 450v90l45 -45v-45h-45zM45 450v270h225l45 -45v-45h-45v45h-180v-180zM270 360v90l45 -45v-45h-45zM270 270v90l45 -45v-45h-45zM270 180v90l45 -45v-45h-45zM270 90v90l45 -45v-45h-45zM45 0v450l45 -45v-360h180v45l45 -45l-45 -45
h-225zM379 855v45l-45 45h45l45 -45v-45h-45zM-26 765v180h45v-135h90v135h45v-135l-45 -45h-135zM199 765v180h45v-135h135v45l45 -45l-45 -45h-180z" />
    <glyph glyph-name="uni0408" unicode="&#x408;" horiz-adv-x="702" 
d="M630 585v90l45 -45v-45h-45zM630 495v90l45 -45v-45h-45zM630 405v90l45 -45v-45h-45zM630 315v90l45 -45v-45h-45zM630 225v90l45 -45v-45h-45zM45 45v45l-45 45v90l45 45h270v-45h45v270h-315v180h45v-135h315v-360h-90l-45 45h-225v-90l45 -45h45v-45h90l45 -45h135
v45h135l45 45v45l45 45v45l45 -45l-45 -45v-45l-45 -45v-45h-135l-45 -45h-180v45h-90l-45 45h-45z" />
    <glyph glyph-name="uni0409" unicode="&#x409;" horiz-adv-x="1158" 
d="M90 315v90l45 45v225l45 45h585v-225h225l45 -45h45v-45l45 -45v-45l45 -45h-45l-45 45v45l-45 45h-45v45h-225l-45 45v180h-540v-225l-45 -45v-90h-45zM495 180v45l45 -45h-45zM720 225v90h135l45 -45v-90h-135zM0 45v180h45l45 45v45l45 -45l-45 -45v-45h-45v-135h180
l45 45v45h45v90h45v270h135l45 -45v-225h-45v225h-90v-270h-45v-90h-45l-45 -45v-45h-225zM495 45v90l45 45v-135h450l45 45v45h45v90h45l45 -45h-45v-90h-45l-45 -45v-45h-495zM765 270v-45h90v45h-90z" />
    <glyph glyph-name="uni040A" unicode="&#x40a;" horiz-adv-x="1117" 
d="M360 450v45h90v225h225l45 -45v-180h270v-45l45 -45h45v-45h-90v45l-45 45h-270v225h-180v-180l-45 -45h-90zM1035 270v90l45 -45v-45h-45zM45 180v540h225l45 -45v-180h45l-45 -45h-45v225h-180v-495h-45zM675 180v90l45 45h135v-90l-45 -45h-135zM1035 90v90l45 -45
v-45h-45zM45 0v180l45 -45v-90h180v225h180l45 -45v-180h450v45h90l45 -45h-90l-45 -45h-495v225h-135v-180l-45 -45h-225zM720 225h90v45h-90v-45z" />
    <glyph glyph-name="uni040B" unicode="&#x40b;" horiz-adv-x="830" 
d="M765 180v90l45 -45v-45h-45zM765 90v90l45 -45v-45h-45zM135 0v495h-90l-45 45v180h630l45 -45v-225h45l45 -45v-45l45 -45v-45h-45v45l-45 45v45h-45l-45 45h-225v90h225v135h-585v-135h90l45 -45v-450h225v225h90l45 -45h45v-180h180v45l45 -45l-45 -45h-225v180h-45
v45h-45v-180l-45 -45h-270z" />
    <glyph glyph-name="uni040C" unicode="&#x40c;" horiz-adv-x="753" 
d="M45 0v180h45v-135h180v225h45l45 -45h45v-90h45v-90h270l-45 45v45l-45 45h-45v90h-45v180h45v90h45v90h45l45 45h-270v-90h-45v-90h-45l-45 -45h-45v225h-180v-450l-45 -45v540h225l45 -45v-135h45v90h45v90h315l45 -45l-45 -45v-45h-45v-90h-45v-90h-45v-90h45v-90h45
v-45l45 -45v-45l45 -45l-45 -45h-315v90h-45v90h-45v-135l-45 -45h-225zM266 720l-45 45l45 45v45h45l45 45h45l-45 -45v-45h-45l-45 -45h180l45 45v45h90v-45h-45l-45 -45v-45h-225z" />
    <glyph glyph-name="uni040D" unicode="&#x40d;" horiz-adv-x="810" 
d="M450 585v45l45 45v45h225l45 -45v-45h-45v45h-180l-45 -45v-45h-45zM720 540v90l45 -45v-45h-45zM720 450v90l45 -45v-45h-45zM720 360v90l45 -45v-45h-45zM720 270v90l45 -45v-45h-45zM720 180v90l45 -45v-45h-45zM45 0v720h225l45 -45v-225l45 45v45h45l45 45v-90h-45
l-45 -45v-45l-45 -45h-45v315h-180v-630h180v45h45l45 45v45h45v90h45l45 45h45v-270h180v45l45 -45l-45 -45h-225v225h-45v-90h-45l-45 -45v-45h-45l-45 -45h-225zM720 90v90l45 -45v-45h-45zM426 810v45l-45 45h45l45 -45h45v-45h-90zM291 720v45l-45 45h-45v45l-45 45h45
l45 -45h45v-45l45 -45h180v-45h-225z" />
    <glyph glyph-name="uni040E" unicode="&#x40e;" horiz-adv-x="701" 
d="M90 0v180l45 45h90l-45 45v45l-45 45v45l-45 45v45l-45 45v45l-45 45v90h270l45 -45v-90h45v-45l45 45v135h270l45 -45v-45h-45v45h-225v-90l-45 -45v-45l-45 -45h-45v90h-45v135h-225v-45l45 -45v-45l45 -45v-45l45 -45v-45l45 -45v-45l45 -45l-45 -45h-90v-135h225v45
h45l45 45v45l45 45v45l45 45v45l45 45v135h45v90h45l45 -45h-45v-90h-45v-90l-45 -45v-45l-45 -45v-45l-45 -45v-45l-45 -45v-45h-45l-45 -45h-270zM522 810v90l45 -45v-45h-45zM342 855l-45 45h135v-45h-90zM252 720v45h-45l-45 45v90h45v-90h45l45 -45h180v45h45l45 -45
h-45l-45 -45h-225z" />
    <glyph glyph-name="uni040F" unicode="&#x40f;" horiz-adv-x="772" 
d="M675 630v45h45v-45h-45zM270 180v495h45v-450h135v450h45v-450l-45 -45h-180zM675 540v90l45 -45v-45h-45zM675 450v90l45 -45v-45h-45zM675 360v90l45 -45v-45h-45zM45 360v315h45v-315h-45zM675 270v90l45 -45v-45h-45zM675 180v90l45 -45v-45h-45zM675 90v90l45 -45
v-45h-45zM45 0v360l45 -45v-270h180v-135l45 -45h180v135l45 45h135v45l45 -45l-45 -45h-135v-135l-45 -45h-225v45l-45 45v90h-180z" />
    <glyph glyph-name="uni0410" unicode="&#x410;" horiz-adv-x="755" 
d="M360 315h45v45h-45v-45zM0 0v180h45v90l45 45v135h45v90l45 45v45l45 45v45h270l45 -45h45v-135l45 -45v-90h45v-135l45 -45v-90h45v-45h-90v135l-45 45v90h-45v135l-45 45v90h-45v45h-225l-45 -45v-45l-45 -45v-135h-45v-90l-45 -45v-135h-45v-90h180v45l45 45h225v-45
l45 -45h180v45l45 -45l-45 -45h-225v45l-45 45h-180v-45l-45 -45h-225zM315 270v180l45 -45v45l45 -45h45v-90l-45 -45h-90z" />
    <glyph glyph-name="uni0411" unicode="&#x411;" horiz-adv-x="672" 
d="M630 270v90l45 -45v-45h-45zM630 90v90l45 -45v-45h-45zM270 180v90l45 45h90v-45l45 -45l-45 -45v-45h-90zM45 0v720h540l45 -45v-180h-315v-45h225l45 -45h90v-45h-135v45h-225l-45 45v90h315v135h-495v-630h450v45h90l45 -45h-90l-45 -45h-495zM360 180l45 45l-45 45
h-45v-90h45z" />
    <glyph glyph-name="uni0412" unicode="&#x412;" horiz-adv-x="734" 
d="M90 675v45l45 -45h-45zM135 675v45h405l45 -45h90v-90h45v-45h-90v90h-90v45h-405zM675 450v90l45 -45v-45h-45zM630 270v45l-45 45l45 45v45h45l45 -45h-45l-45 -45l45 -45h45v-45h-90zM315 495v-45h90v45h-90zM675 180v90l45 -45v-45h-45zM315 270v-90h90v45l-45 45
h-45zM45 0v720l45 -45v-630h495v45h45l45 45v45l45 -45l-45 -45v-45h-45l-45 -45h-540zM315 405l-45 45v90h135l45 -45v-90h-135zM270 180v90l45 45h90v-45l45 -45v-90h-135z" />
    <glyph glyph-name="uni0413" unicode="&#x413;" horiz-adv-x="599" 
d="M540 540v90l45 -45v-45h-45zM45 0v720h495l45 -45v-45h-45v45h-450v-630h180v495h270l45 -45h-270v-450l-45 -45h-225z" />
    <glyph glyph-name="uni0414" unicode="&#x414;" horiz-adv-x="845" 
d="M720 225v450h45v-450h45v-45h-45zM450 225v225h-45v-225h45zM810 90v45l45 -45h-45zM810 0v45l45 -45h-45zM810 -90v45l45 -45h-45zM0 -135v360h90v90h45v360h45v-405h-45v-90h-90v-315h-45zM90 -180l-45 45h225v180h270l45 -45v-135h180l45 45v-90h-225l-45 45v135h-225
v-180h-225zM360 225v270h90l45 -45v-270h-90z" />
    <glyph glyph-name="uni0415" unicode="&#x415;" horiz-adv-x="667" 
d="M585 720l45 -45v-45h-45v45h-495v-630h45l-45 -45h-45v720h540zM630 540h-45v90l45 -45v-45zM585 540l45 -45h-315v-45h270l45 -45v-45h-45v45h-270l-45 45v90h315zM630 270h-45v90l45 -45v-45zM585 270l45 -45v-45h-360v90h315zM225 0h-90v45h135zM270 0v45h360l-45 -45
h-315z" />
    <glyph glyph-name="uni0416" unicode="&#x416;" horiz-adv-x="1136" 
d="M900 360l45 45v45l45 45v45l45 45v45h45l45 -45h-45l-45 -45v-45l-45 -45v-45l-45 -45l45 -45v-45l45 -45h45v-90h45v-45h-90v90h-45v45l-45 45v45zM0 0v90h45v90h45v90h45l45 45v90l-45 45h-45v90h-45v90h-45v90h270l45 -45h45v-45l45 -45v135h270l45 -45v-135l45 45v45
l45 45v45h270l45 -45v-45h-45v45h-225l-45 -45v-45l-45 -45v-45l-45 -45h-45v225h-225v-180h-45l-45 45v45l-45 45h-45v45h-180v-90h45v-90h45v-45l45 -45v-90l-45 -45v-45h-45v-90h-45v-90h180v45h45l45 45v45l45 45h45v-180h225v225h45l45 -45v-45l45 -45v-45l45 -45h225
v45l45 -45l-45 -45h-270v45l-45 45v45l-45 45v-135l-45 -45h-270v135l-45 -45v-45h-45l-45 -45h-270z" />
    <glyph glyph-name="uni0417" unicode="&#x417;" horiz-adv-x="715" 
d="M630 270v45l-45 45l45 45v180l-45 45h-90v45h135v-45l45 -45v-180l-45 -45l45 -45v-45h-45zM270 450h90l45 45h-90zM675 225v45l45 -45h-45zM90 0v45l-45 45v45l-45 45l45 45h225l-45 45v180h-180v180h45l45 45h45l-45 -45v-45h-45v-90h180v45h135l45 -45l-45 -45v-45
h-135v-135h135l45 -45l-45 -45h-360l45 -45v-45l45 -45h135v-45h90l45 -45h-135l-45 45h-135zM405 -45v45h45l45 45h90v45h45v90h45l45 -45h-45v-90h-45l-45 -45h-90v-45h-90z" />
    <glyph glyph-name="uni0418" unicode="&#x418;" horiz-adv-x="810" 
d="M450 585v45l45 45v45h225l45 -45v-45h-45v45h-180l-45 -45v-45h-45zM720 540v90l45 -45v-45h-45zM720 450v90l45 -45v-45h-45zM720 360v90l45 -45v-45h-45zM720 270v90l45 -45v-45h-45zM720 180v90l45 -45v-45h-45zM45 0v720h225l45 -45v-225l45 45v45h45l45 45v-90h-45
l-45 -45v-45l-45 -45h-45v315h-180v-630h180v45h45l45 45v45h45v90h45l45 45h45v-270h180v45l45 -45l-45 -45h-225v225h-45v-90h-45l-45 -45v-45h-45l-45 -45h-225zM720 90v90l45 -45v-45h-45z" />
    <glyph glyph-name="uni0419" unicode="&#x419;" horiz-adv-x="810" 
d="M450 585v45l45 45v45h225l45 -45v-45h-45v45h-180l-45 -45v-45h-45zM720 540v90l45 -45v-45h-45zM720 450v90l45 -45v-45h-45zM720 360v90l45 -45v-45h-45zM720 270v90l45 -45v-45h-45zM720 180v90l45 -45v-45h-45zM45 0v720h225l45 -45v-225l45 45v45h45l45 45v-90h-45
l-45 -45v-45l-45 -45h-45v315h-180v-630h180v45h45l45 45v45h45v90h45l45 45h45v-270h180v45l45 -45l-45 -45h-225v225h-45v-90h-45l-45 -45v-45h-45l-45 -45h-225zM720 90v90l45 -45v-45h-45zM568 810v90l45 -45v-45h-45zM388 855l-45 45h135v-45h-90zM298 720v45h-45
l-45 45v90h45v-90h45l45 -45h180v45h45l45 -45h-45l-45 -45h-225z" />
    <glyph glyph-name="uni041A" unicode="&#x41a;" horiz-adv-x="753" 
d="M45 0v180h45v-135h180v225h45l45 -45h45v-90h45v-90h270l-45 45v45l-45 45h-45v90h-45v180h45v90h45v90h45l45 45h-270v-90h-45v-90h-45l-45 -45h-45v225h-180v-450l-45 -45v540h225l45 -45v-135h45v90h45v90h315l45 -45l-45 -45v-45h-45v-90h-45v-90h-45v-90h45v-90h45
v-45l45 -45v-45l45 -45l-45 -45h-315v90h-45v90h-45v-135l-45 -45h-225z" />
    <glyph glyph-name="uni041B" unicode="&#x41b;" horiz-adv-x="813" 
d="M0 45v90l45 -45v-45h-45zM45 0v45h180l45 45v45h45v90h45v270h135l45 -45v-405h180v630h-540v-225l-45 -45v-135l-45 -45v-45h-45v-45h-45v90h45l45 45v135l45 45v225l45 45h585v-720h-225l-45 45v405h-90v-270h-45v-90h-45l-45 -45v-45h-225z" />
    <glyph glyph-name="uni041C" unicode="&#x41c;" horiz-adv-x="856" 
d="M765 540v90l45 -45v-45h-45zM765 450v90l45 -45v-45h-45zM765 360v90l45 -45v-45h-45zM765 270v90l45 -45v-45h-45zM45 180v540h225l45 -45v-45l45 -45h45v-90h45v45l45 45v45h45v90h225l45 -45v-45h-45v45h-180v-90h-45l-45 -45v-45l-45 -45h-90v90h-45v45l-45 45v45
h-180v-495h-45zM765 180v90l45 -45v-45h-45zM765 90v90l45 -45v-45h-45zM45 0v180l45 -45v-90h180v225h45l45 -45h45v-45h45l45 45v45h45l45 -45v-180h180v45l45 -45l-45 -45h-225v225l-45 -45v-45h-90l-45 45h-45v-135l-45 -45h-225z" />
    <glyph glyph-name="uni041D" unicode="&#x41d;" horiz-adv-x="772" 
d="M675 540v90l45 -45v-45h-45zM675 450v90l45 -45v-45h-45zM45 270v450h225l45 -45v-180h135v225h225l45 -45v-45h-45v45h-180v-180l-45 -45h-180v225h-180v-360zM675 360v90l45 -45v-45h-45zM675 270v90l45 -45v-45h-45zM675 180v90l45 -45v-45h-45zM675 90v90l45 -45v-45
h-45zM45 0v270h45v-225h180v225h180l45 -45v-180h135l-45 -45h-135v225h-135v-180l-45 -45h-225zM675 45v45l45 -45h-45zM630 0v45h45v-45h-45z" />
    <glyph glyph-name="uni041E" unicode="&#x41e;" horiz-adv-x="742" 
d="M540 630v45h90v-45l45 -45v-45h-45v45l-45 45h-45zM675 495v45l45 -45h-45zM675 405v45l45 -45h-45zM675 315v45l45 -45h-45zM675 225v45l45 -45h-45zM270 180v270l45 45v45h90l45 -45v-270l-45 -45h-135zM45 90v90h-45v360h45v90h45l45 45h90l-45 -45h-45v-45h-45v-90
h-45v-270h45v-90h45v-45l45 -45h90v-45h180l45 45h90v45h45v90h45l45 -45h-45v-90h-45l-45 -45h-90v-45h-225l-45 45h-90v45l-45 45h-45zM405 225v270h-45l-45 -45v-225h90z" />
    <glyph glyph-name="uni041F" unicode="&#x41f;" horiz-adv-x="772" 
d="M45 360v360h630l45 -45v-45h-45v45h-585v-315h-45zM675 540v90l45 -45v-45h-45zM675 450v90l45 -45v-45h-45zM675 360v90l45 -45v-45h-45zM675 270v90l45 -45v-45h-45zM675 180v90l45 -45v-45h-45zM675 90v90l45 -45v-45h-45zM675 0v90l45 -45zM45 0v360l45 -45v-270h180
v405l45 45h180v-450h180l-45 -45h-180v450h-135v-405l-45 -45h-225z" />
    <glyph glyph-name="uni0420" unicode="&#x420;" horiz-adv-x="705" 
d="M315 405h45v45h45v45h-90v-90zM45 0v720h450l45 -45h90v-45l45 -45v-45l45 -45v-45h-45v45l-45 45v45l-45 45h-90v45h-405v-630h225v135l45 45h90v45h135l45 45v45l45 45v45l45 -45l-45 -45v-45l-45 -45v-45h-135l-45 -45h-90v-135l-45 -45h-270zM270 360v180h135l45 -45
v-90h-45l-45 -45h-90z" />
    <glyph glyph-name="uni0421" unicode="&#x421;" horiz-adv-x="733" 
d="M540 630v45h90v-45l45 -45v-45h-45v45l-45 45h-45zM675 495v45l45 -45h-45zM270 180v270l45 45v45h90l45 -45h45v-45h180l45 -45h-225l-45 45h-45v45h-45l-45 -45v-225h90v45h270l45 -45h-270l-45 -45h-135zM675 135v45l45 -45h-45zM45 90v90h-45v360h45v90h45l45 45h90
l-45 -45h-45v-45h-45v-90h-45v-270h45v-90h45v-45l45 -45h90v-45h180l45 45h90v45h45l45 45v-90h-45l-45 -45h-90v-45h-225l-45 45h-90v45l-45 45h-45z" />
    <glyph glyph-name="uni0422" unicode="&#x422;" horiz-adv-x="674" 
d="M630 540v90l45 -45v-45h-45zM180 0v450h-180v270h630l45 -45v-45h-45v45h-585v-180h180v-450h225v405l45 45h135v45l45 -45l-45 -45h-135v-405l-45 -45h-270z" />
    <glyph glyph-name="uni0423" unicode="&#x423;" horiz-adv-x="701" 
d="M90 0v180l45 45h90l-45 45v45l-45 45v45l-45 45v45l-45 45v45l-45 45v90h270l45 -45v-90h45v-45l45 45v135h270l45 -45v-45h-45v45h-225v-90l-45 -45v-45l-45 -45h-45v90h-45v135h-225v-45l45 -45v-45l45 -45v-45l45 -45v-45l45 -45v-45l45 -45l-45 -45h-90v-135h225v45
h45l45 45v45l45 45v45l45 45v45l45 45v135h45v90h45l45 -45h-45v-90h-45v-90l-45 -45v-45l-45 -45v-45l-45 -45v-45l-45 -45v-45h-45l-45 -45h-270z" />
    <glyph glyph-name="uni0424" unicode="&#x424;" horiz-adv-x="990" 
d="M945 405v45l45 -45h-45zM945 315v45l45 -45h-45zM360 315v135h-45v-135h45zM630 270l45 45v135h-45v-180zM270 270v180l45 45h90v-270h-45l-45 45h-45zM90 90v45l-45 45v45l-45 45v180l45 45v45l45 45v45h45l45 45h135v45h45l45 45h225v-45l45 -45h180v-45l45 -45h45
v-135h-45v90h-45v45l-45 45h-180v45l-45 45h-180v-45h-45l-45 -45h-135v-45h-45l-45 -45v-45l-45 -45v-180l45 -45v-45l45 -45h90v-45h135l45 -45v-45h180v90h180l45 45h45v45h45v90h45l45 -45h-45v-90h-45l-45 -45h-45v-45h-180v-90h-225l-45 45v45h-135l-45 45h-90z
M585 270v180l45 45h90v-180l-45 -45v-45h-45z" />
    <glyph glyph-name="uni0425" unicode="&#x425;" horiz-adv-x="739" 
d="M45 45h225v45h45v90h45l45 -45h45v-90h270l-45 45h-45v90h-45v45l-45 45v45l-45 45l45 45v45l45 45v45h45v90h45v45h-225v-90h-45l-45 -45h-45v90h-45v45h-180v-90h45v-90h45v-45l45 -45v-90l-45 -45v-45h-45v-90h-45l-45 -45v-45zM0 0v90l45 45v45h45v90h45l45 45v90
l-45 45h-45v90h-45v90h-45v90h270l45 -45h45v-45h45v90h270l45 -45v-90h-45v-90h-45l-45 -45v-45l-45 -45l45 -45v-45l45 -45h45v-90h45v-45l45 -45l-45 -45h-315v90h-45v-45h-45l-45 -45h-270z" />
    <glyph glyph-name="uni0426" unicode="&#x426;" horiz-adv-x="819" 
d="M675 180v495h45v-450h90v-45h-135zM270 180v495h45v-450h135v450h45v-450l-45 -45h-180zM765 90v90l45 -45v-45h-45zM765 0v90l45 -45v-45h-45zM45 0v675h45v-630h450v-90l-45 -45v90h-450zM765 0l45 -45v-45h-45v90zM495 -90h45l45 -45h180v45l45 -45l-45 -45h-225v45z
" />
    <glyph glyph-name="uni0427" unicode="&#x427;" horiz-adv-x="737" 
d="M135 180l-45 45h-45v135l-45 45v270l45 45h270v-270h45v-45l45 45v225l45 45h225v-720h-45v675h-180v-225l-45 -45v-45h-45l-45 45h-45v270h-225v-270l45 -45v-90h45v-45h90l45 -45h45v45h90l45 -45v-135h135l45 -45h-180l-45 45v135h-45l-45 -45h-90v45h-90z" />
    <glyph glyph-name="uni0428" unicode="&#x428;" horiz-adv-x="1013" 
d="M945 540v90l45 -45v-45h-45zM945 450v90l45 -45v-45h-45zM945 360v90l45 -45v-45h-45zM945 270v90l45 -45v-45h-45zM945 180v90l45 -45v-45h-45zM945 90v90l45 -45v-45h-45zM45 0v720h225l45 -45v-450h45v495h270l45 -45v45h270l45 -45v-45h-45v45h-225v-450l-45 -45v45
h-45v450h-225v-450l-45 -45h-90v495h-180v-630h855v45l45 -45l-45 -45h-900z" />
    <glyph glyph-name="uni0429" unicode="&#x429;" horiz-adv-x="1060" 
d="M630 630v45h90l-45 -45h-45zM945 180v495h45v-450h45v-45h-90zM270 180v495h45v-450h45v450h45v-450l-45 -45h-90zM630 180v450l45 -45v45h45v-405l-45 -45h-45zM990 90v90l45 -45v-45h-45zM990 0v90l45 -45v-45h-45zM990 0l45 -45v-45h-45v90zM45 0v675h45v-630h720
v-180h180v45l45 -45l-45 -45h-225v180h-720z" />
    <glyph glyph-name="uni042A" unicode="&#x42a;" horiz-adv-x="807" 
d="M450 270v-45h45v45h-45zM720 90v90l45 -45v-45h-45zM135 0v495h-90l-45 45v180h405l45 -45v-180h225v-45l45 -45h45v-45h-90v45l-45 45h-225v225h-360v-135h90l45 -45v-450h450v45h90l45 -45h-90l-45 -45h-495zM405 180v90l45 45h90v-90l-45 -45h-90z" />
    <glyph glyph-name="uni042B" unicode="&#x42b;" horiz-adv-x="1048" 
d="M950 540v90l45 -45v-45h-45zM950 450v90l45 -45v-45h-45zM725 450v270h225l45 -45v-45h-45v45h-180v-180zM950 360v90l45 -45v-45h-45zM950 270v90l45 -45v-45h-45zM950 180v90l45 -45v-45h-45zM315 270v-45h90v45h-90zM950 90v90l45 -45v-45h-45zM725 0v450l45 -45v-360
h180v45l45 -45l-45 -45h-225zM90 45h450v45h45l45 45v45l45 45l-45 45v90h-45v45l-45 45h-270v225h-180v-630zM270 180v90l45 45h135v-90l-45 -45h-135zM45 0v720h225l45 -45v-180h270v-45l45 -45h45v-135l45 -45l-45 -45v-45l-45 -45v-45h-45l-45 -45h-495z" />
    <glyph glyph-name="uni042C" unicode="&#x42c;" horiz-adv-x="705" 
d="M45 450v270h225v-45h-180v-225h-45zM270 450v225h45v-180h270v-45l45 -45h45v-45h-90v45l-45 45h-270zM630 270v90l45 -45v-45h-45zM315 225h90v45h-90v-45zM630 180l45 45v-45h-45zM45 0v450l45 -45v-360h450v45h45l45 45v45l45 -45l-45 -45v-45h-45l-45 -45h-495z
M270 180v90l45 45h135v-90l-45 -45h-135z" />
    <glyph glyph-name="uni042D" unicode="&#x42d;" horiz-adv-x="733" 
d="M540 630v45h90v-45l45 -45v-45l45 -45h-45l-45 45v45l-45 45h-45zM270 450h135v45h-90zM675 405v45l45 -45h-45zM675 315v45l45 -45h-45zM675 225v45l45 -45h-45zM90 0v45l-45 45v45l-45 45l45 45h225l-45 45v180h-180v180h45l45 45h45l-45 -45v-45h-45v-90h180v45h135
l45 -45v-90h-180v-135h135l45 -45l-45 -45h-360l45 -45v-45l45 -45h135v-45h180l45 45h45v45h90v90h45l45 -45h-45v-90h-90l-45 -45h-45v-45h-225l-45 45h-135z" />
    <glyph glyph-name="uni042E" unicode="&#x42e;" horiz-adv-x="1110" 
d="M945 585v45l-45 45h45l45 -45h45v-45l45 -45v-45h-45v45l-45 45h-45zM315 450l-45 45v180h45v-180h90v90h45v90h135v-45h-90v-90h-45v-90h-135zM1035 405v90l45 -45v-45h-45zM1035 315v90l45 -45v-45h-45zM1035 225v90l45 -45v-45h-45zM1035 135v90l45 -45v-45h-45z
M630 225v270h45l45 45h90v-45l45 -45v-180l-45 -45v-45h-135zM45 45v630h45v-630h180v180l45 45h135v-135l45 -45h45v-45h90l45 -45h135v45h135l45 45v45h45l45 -45h-45l-45 -45v-45h-135l-45 -45h-180v45h-90l-45 45h-45v45l-45 45v90h-90v-225h-225zM765 225l45 45v180
l-45 45h-45v-45h-45v-225h90z" />
    <glyph glyph-name="uni042F" unicode="&#x42f;" horiz-adv-x="737" 
d="M540 675l45 45h90v-45h-135zM315 675l45 45h180v-45h-225zM675 630v45l45 -45h-45zM45 585l45 45v45h90l45 45h90v-45h-90v-45h-90l-45 -45h-45zM675 540v45l45 -45h-45zM675 450v45l45 -45h-45zM405 450v45h-45v-45h45zM675 360v45l45 -45h-45zM675 270v45l45 -45h-45z
M675 180v45l45 -45h-45zM0 45l45 45v45h45v90h45v45l-45 45h-45v270l45 -45v-180h45v-45l45 -45v-90h-45v-90h-45l-45 -45h225l45 45v45l45 45v45h45l45 -45v-135h225l45 -45h-270l-45 45v135l-45 -45v-45l-45 -45v-45h-270zM675 90v45l45 -45h-45zM270 405v90h45l45 45h90
v-90l-45 -45h-135z" />
    <glyph glyph-name="uni0430" unicode="&#x430;" horiz-adv-x="622" 
d="M495 405v45l-45 45h45l45 -45h45v-45h-90zM540 315v90l45 -45v-45h-45zM540 225v90l45 -45v-45h-45zM540 135v90l45 -45v-45h-45zM540 45v90l45 -45v-45h-45zM0 45v180l45 45v225h135v-45h-90v-90h135v45h90l45 -45h-45v-45h-90v-45h-135l-45 -45v-135h45v-45h45l45 -45
h90v45h270l45 -45h-270l-45 -45h-135v45h-45l-45 45h-45zM225 135v90h90l45 -45l-45 -45h-90z" />
    <glyph glyph-name="uni0431" unicode="&#x431;" horiz-adv-x="642" 
d="M270 405l-45 45v90h45l45 45h135v45h90v45l-45 45v45h45v-45l45 -45v-90h-90l-45 -45h-135v-45h-45v-45l45 45h180v-45h45l45 -45v-45h-45v45h-45l-45 45h-135v-45h-45zM585 315v45l45 -45h-45zM585 225v45l45 -45h-45zM585 135v45l45 -45h-45zM360 180v90h-45v-90h45z
M90 0v45l-45 45v45l-45 45v360h45v90h45l45 45v45h90l45 45h135l-45 -45h-90v-45h-90l-45 -45v-45h-45v-90h-45v-315l45 -45v-45l45 -45h90v-45h180l45 45h45v45h45l45 45v-90h-45l-45 -45h-45v-45h-225l-45 45h-90zM270 90v270h45l45 -45h45v-180h-45l-45 -45h-45z" />
    <glyph glyph-name="uni0432" unicode="&#x432;" horiz-adv-x="644" 
d="M270 315l-45 45l45 45h135v-90h-135zM45 180v360h450l45 -45h45v-90h45v-45h-45l45 -45h-45v-45l45 -45v-45h-45v45l-45 45v180h-45v45h-405v-315h-45zM585 90v90l45 -45v-45h-45zM45 0v180l45 -45v-90h450v45h45l45 -45h-45l-45 -45h-495zM225 180l45 45h135v-90h-135z
" />
    <glyph glyph-name="uni0433" unicode="&#x433;" horiz-adv-x="484" 
d="M450 360v90l45 -45v-45h-45zM45 0v540h405l45 -45v-45h-45v45h-360v-450h180v315h180l45 -45h-180v-270l-45 -45h-225z" />
    <glyph glyph-name="uni0434" unicode="&#x434;" horiz-adv-x="704" 
d="M585 180v315h45v-315h45l45 -45h-90zM675 45v45l45 -45h-45zM675 -45v45l45 -45h-45zM0 -90v270h45l45 45v270h45v-270l-45 -45v-45h-45v-225h180v90l45 45h225v-135h180l45 -45h-225l-45 45v90h-180v-135h-225zM315 180v180h45l45 -45v-180h-45z" />
    <glyph glyph-name="uni0435" unicode="&#x435;" horiz-adv-x="623" 
d="M450 450v45h90v-45l45 -45v-45l45 -45h-45l-45 45v45l-45 45h-45zM90 0v45l-45 45v45l-45 45v180l45 45v45h45l45 45h45l-45 -45v-45h-45l-45 -45v-180l45 -45v-45l45 -45h90v-45h-135zM315 315l-45 45l45 45h45v-90h-45zM585 225v45l45 -45h-45zM225 -45v45h180l45 45
h45v45h45v45h-225l-45 45l45 45h270v-45h-45l45 -45v-90h-45l-45 -45h-45v-45h-225z" />
    <glyph glyph-name="uni0436" unicode="&#x436;" horiz-adv-x="1013" 
d="M810 270l45 45v45l45 45v45h45l45 -45h-45l-45 -45v-45l-45 -45l45 -45v-45l45 -45h45v-45h-90v45l-45 45v45zM90 135v45l45 45v90l-45 45h-45v90h-45v90h270l45 -45v-45l45 -45v135h225l45 -45v-45h45l45 45v45h225l45 -45v-45h-45v45h-180l-45 -45v-45h-45v-90h-45
l-45 45v135h-180v-90l-45 -45h-45v45l-45 45v45h-180v-90h45v-45l45 -45v-90l-45 -45v-45h-45zM495 0v45h90v135h45l45 -45h45v-90h225v45l45 -45l-45 -45h-270v90h-45v-45l-45 -45h-90zM0 0v90h45v90l45 -45v-90h180v45h45v90h45l45 -45v-90h90l-45 -45h-90v45h-45l-45 -45
h-270z" />
    <glyph glyph-name="uni0437" unicode="&#x437;" horiz-adv-x="598" 
d="M450 450v45h90v-45l45 -45h-45l-45 45h-45zM450 270l45 45v45h45l45 -45h-45l-45 -45h45l45 -45h-90zM540 135v45l45 -45h-45zM0 90v90h180v90l45 45h-180l-45 45v90h45l45 45h45l-45 -45v-45h-45v-45h180l45 45h90v-90h-90l-45 -45v-45h135v-90h-270v-45l45 -45h90v-45
h135l45 45h90v45h45l45 -45h-45l-45 -45h-90v-45h-180l-45 45h-90v45l-45 45h-45z" />
    <glyph glyph-name="uni0438" unicode="&#x438;" horiz-adv-x="663" 
d="M630 360v90l45 -45v-45h-45zM630 270v90l45 -45v-45h-45zM630 180v90l45 -45v-45h-45zM630 90v90l45 -45zM630 45v45l45 -45h-45zM45 0v540h225l45 -45v-45h45l45 45v45h225l45 -45v-45h-45v45h-180l-45 -45v-45h-45v-90h-45l-45 45v135h-180v-450h180v45l45 45v45h45
l45 -45v-90h225v-45h-270v135l-45 -45v-45l-45 -45h-225z" />
    <glyph glyph-name="uni0439" unicode="&#x439;" horiz-adv-x="663" 
d="M630 360v90l45 -45v-45h-45zM630 270v90l45 -45v-45h-45zM630 180v90l45 -45v-45h-45zM630 90v90l45 -45zM630 45v45l45 -45h-45zM45 0v540h225l45 -45v-45h45l45 45v45h225l45 -45v-45h-45v45h-180l-45 -45v-45h-45v-90h-45l-45 45v135h-180v-450h180v45l45 45v45h45
l45 -45v-90h225v-45h-270v135l-45 -45v-45l-45 -45h-225zM505 675v90l45 -45v-45h-45zM280 675v90h45v-45h45v45h45v-45l-45 -45h-90zM190 585v45l-45 45v90h45v-90l45 -45h225v45h45l45 -45h-45l-45 -45h-270z" />
    <glyph glyph-name="uni043A" unicode="&#x43a;" horiz-adv-x="666" 
d="M270 45v135h45l45 -45v-45l45 -45h225l-45 45h-45v90h-45v180h45v90h45v45h-180l-45 -45v-45l-45 -45h-45v135h-180v-450h180zM45 0v540h225l45 -45v-45l45 45v45h225l45 -45v-90h-45v-90h-45v-90h45v-90h45v-45l45 -45l-45 -45h-270v45l-45 45v-45l-45 -45h-225z" />
    <glyph glyph-name="uni043B" unicode="&#x43b;" horiz-adv-x="664" 
d="M45 180v-135h180l45 45v45l45 45v135l45 45h45v-315h180v450h-450v-315h-90zM0 45v180h90v270l45 45h495v-540h-225l-45 45v135l-45 -45v-45l-45 -45v-45h-225z" />
    <glyph glyph-name="uni043C" unicode="&#x43c;" horiz-adv-x="760" 
d="M675 360v90l45 -45v-45h-45zM675 270v90l45 -45v-45h-45zM45 180v360h225l45 -45v-45l45 -45v-45l45 45v45h45v90h225l45 -45v-45h-45v45h-180v-90h-45l-45 -45v-45h-45l-45 45v45l-45 45v45h-180v-270zM675 180v90l45 -45v-45h-45zM675 90v90l45 -45v-45h-45zM45 0v180
h45v-135h135l-45 -45h-135zM225 0v45h45v45l45 45h45v-45h45l45 45h45v-90h180v45l45 -45l-45 -45h-225v45h-90l-45 45v-45l-45 -45h-45z" />
    <glyph glyph-name="uni043D" unicode="&#x43d;" horiz-adv-x="663" 
d="M585 360v90l45 -45v-45h-45zM45 360v180h225l45 -45v-135h45v180h225l45 -45v-45h-45v45h-180v-180h-90l-45 45v135h-180v-90zM585 270v90l45 -45v-45h-45zM585 180v90l45 -45v-45h-45zM585 90v90l45 -45v-45h-45zM45 0v360h45v-315h180v135h90l45 -45v-90h180v45l45 -45
l-45 -45h-225v135h-45v-90l-45 -45h-225z" />
    <glyph glyph-name="uni043E" unicode="&#x43e;" horiz-adv-x="642" 
d="M450 450v45h135v-45l45 -45h-45l-45 45h-90zM585 315v45l45 -45h-45zM360 180v135l-45 45v-180h45zM90 0v45l-45 45v45l-45 45v180l45 45v45l45 45h90l-45 -45h-45v-45l-45 -45v-180l45 -45v-45l45 -45h90v-45h180l45 45h45v45h45l45 45v-90h-45l-45 -45h-45v-45h-225
l-45 45h-90zM585 225v45l45 -45h-45zM585 135v45l45 -45h-45zM270 180v180l45 45h45v-45l45 -45v-180h-90z" />
    <glyph glyph-name="uni043F" unicode="&#x43f;" horiz-adv-x="663" 
d="M585 360v90l45 -45v-45h-45zM585 270v90l45 -45v-45h-45zM585 180v90l45 -45v-45h-45zM45 0v540h540l45 -45v-45h-45v45h-495v-450h45l-45 -45h-45zM585 90v90l45 -45v-45h-45zM135 0v45h135v315h90l45 -45v-270h180v45l45 -45l-45 -45h-225v315h-45v-270l-45 -45h-135z
" />
    <glyph glyph-name="uni0440" unicode="&#x440;" horiz-adv-x="661" 
d="M585 405v45l-45 45h45l45 -45v-45h-45zM270 450l-45 45h90v-45h-45zM585 315v90l45 -45v-45h-45zM585 225v90l45 -45v-45h-45zM45 225v270h45v-225zM585 135v90l45 -45v-45h-45zM270 135v180l45 45h90v-180l-45 -45h-90zM45 225h45v-405h180v225h45l45 -45h90v45h90
l45 45v45l45 -45l-45 -45v-45h-90l-45 -45h-135v-135l-45 -45h-225v450zM360 180v135h-45v-135h45z" />
    <glyph glyph-name="uni0441" unicode="&#x441;" horiz-adv-x="622" 
d="M450 450v45h90v-45l45 -45v-45h-45v45l-45 45h-45zM585 315v45l45 -45h-45zM270 180v180h90l45 -45h180v-45h-225v45h-45v-135l45 45h225v-45h-225v-45h-45zM90 0v45l-45 45v45l-45 45v180l45 45v45h45l45 45h45l-45 -45v-45h-45l-45 -45v-180l45 -45v-45l45 -45h90v-45
h135l45 45h90v45h45l45 45v-90h-45l-45 -45h-90v-45h-180l-45 45h-90zM585 135v45l45 -45h-45z" />
    <glyph glyph-name="uni0442" unicode="&#x442;" horiz-adv-x="579" 
d="M495 495v45h45l45 -45v-45h-45v45h-45zM540 360v90l45 -45v-45h-45zM135 0v315h-90l-45 45v180h450l45 -45h-450v-135h90l45 -45v-270h180v315h180l45 -45h-180v-270l-45 -45h-225z" />
    <glyph glyph-name="uni0443" unicode="&#x443;" horiz-adv-x="631" 
d="M585 405v90l45 -45v-45h-45zM90 -45l45 45h45v90l-45 45v45l-45 45v45l-45 45v90h-45v90h45v-45h45v-135l45 -45v-45l45 -45v-45l45 -45v-90l-45 -45h-45v-135h90v45h90l45 45v45l45 45v45l45 45v135h45v90h45v90h45l45 -45h-45v-90h-45v-90h-45v-90l-45 -45v-45l-45 -45
v-45l-45 -45v-45h-90l-45 -45h-135v180zM270 315v45l-45 45v90h45v-90l45 -45v45h45v90h45v-135h-45v-90h-45z" />
    <glyph glyph-name="uni0444" unicode="&#x444;" horiz-adv-x="883" 
d="M270 225h45v90h-45v-90zM540 180v180h45l45 -45v-180h-45zM225 180v180h90l45 -45v-180h-45l-45 45h-45zM90 0v45l-45 45v45l-45 45v180l45 45v45h45l45 45v45h180v135h45v-180h-180l-45 -45v-45h-45l-45 -45v-180l45 -45v-45l45 -45h225v-225h180v180l45 45h135v45h45
l45 45v270l-45 45h-90v45h-90l-45 45v135h45v-135h90l45 -45h90v-45l45 -45v-270l-45 -45v-45h-45l-45 -45h-135v-225h-225l-45 45v180h-225z" />
    <glyph glyph-name="uni0445" unicode="&#x445;" horiz-adv-x="630" 
d="M90 45h135v45h45l45 45h45v-45l45 -45h180l-45 45v45l-45 45h-45v180h45l45 45v45l45 45h-180l-45 -45v-45h-45l-45 45h-45v45h-135v-90h45v-45l45 -45v-90l-45 -45v-45h-45v-90zM0 0v90h45v90h45l45 45v90l-45 45h-45v90h-45v90h225l45 -45h45v-45l45 45v45h225l45 -45
l-45 -45v-45l-45 -45v-45h-45v-90h45v-45l45 -45v-45l45 -45l-45 -45h-225v45l-45 45v-45h-45l-45 -45h-225z" />
    <glyph glyph-name="uni0446" unicode="&#x446;" horiz-adv-x="689" 
d="M270 135v360h45v-315h45v315h45v-315l-45 -45h-90zM585 135v360l45 -45v-270h90v-45h-135zM675 45v90l45 -45v-45h-45zM675 45l45 -45v-45h-45v90zM45 45v450h45v-450h315l45 -45v-90h180v45h45l45 -45h-45l-45 -45h-225v135h-315z" />
    <glyph glyph-name="uni0447" unicode="&#x447;" horiz-adv-x="652" 
d="M585 450v45l45 -45h-45zM0 270v225l45 45h225v-180h45v135l45 45h225v-45h-225v-135l-45 -45h-90v180h-180v-225h-45zM585 360v45l45 -45h-45zM585 270v45l45 -45h-45zM45 135v90h-45l45 45h45v-90h90v-45h135v-45h-135l-45 45h-90zM585 180v45l45 -45h-45zM585 90v45
l45 -45h-45zM315 45v45h45v-45h90l45 -45h-135zM495 0v45h90l45 -45h-135z" />
    <glyph glyph-name="uni0448" unicode="&#x448;" horiz-adv-x="867" 
d="M810 360v90l45 -45v-45h-45zM810 270v90l45 -45v-45h-45zM810 180v90l45 -45v-45h-45zM810 90v90l45 -45v-45h-45zM45 0v540h180l45 -45v-315h45v360h180l45 -45v-315h45v360h225l45 -45v-45h-45v45h-180v-360h-90l-45 45v315h-135v-360h-90l-45 45v315h-135v-450h720v45
l45 -45l-45 -45h-765z" />
    <glyph glyph-name="uni0449" unicode="&#x449;" horiz-adv-x="892" 
d="M810 135v360h45v-315h45v-45h-90zM495 135v360h45v-315h45v315h45v-315l-45 -45h-90zM225 135v360h45v-315h45v315h45v-315l-45 -45h-90zM855 45v90l45 -45v-45h-45zM855 45l45 -45v-45h-45v90zM855 -45l45 -45l-45 -45v90zM45 45v450h45v-450h540l45 -45v-90h180
l-45 -45h-180v135h-540z" />
    <glyph glyph-name="uni044A" unicode="&#x44a;" horiz-adv-x="715" 
d="M630 90l45 45v-45h-45zM135 0v315h-90l-45 45v180h360l45 -45v-90h180v-45h45l45 -45v-45h-45v45h-45l-45 45h-180v135h-315v-135h90l45 -45v-270h405v45h45l45 -45h-45l-45 -45h-450zM360 180l45 45h90v-90h-90z" />
    <glyph glyph-name="uni044B" unicode="&#x44b;" horiz-adv-x="921" 
d="M861 360v90l45 -45v-45h-45zM861 270v90l45 -45zM861 180v90l45 -45v-45h-45zM45 0v540h225v-45h-180v-450h405v45h45v180h-45v45h-45l-45 45h-135v135h45v-90h135v-45h45l45 -45h45v-270h-45l-45 -45h-450zM861 90v90l45 -45v-45h-45zM636 0v540h225l45 -45v-45h-45v45
h-180v-450h180v45l45 -45l-45 -45h-225zM270 180l45 45h90v-90h-90z" />
    <glyph glyph-name="uni044C" unicode="&#x44c;" horiz-adv-x="608" 
d="M540 180v90l45 -45v-45h-45zM540 90v90l45 -45v-45h-45zM45 0v540h225l45 -45v-90h135v-45h45l45 -45h45v-45h-90v45h-45l-45 45h-135v135h-180v-450h405v45h45l45 -45h-45l-45 -45h-450zM270 180l45 45h90v-90h-90z" />
    <glyph glyph-name="uni044D" unicode="&#x44d;" horiz-adv-x="632" 
d="M450 450v45h90v-45l45 -45v-45l45 -45h-45l-45 45v45l-45 45h-45zM585 225v45l45 -45h-45zM0 90v90h180v90l45 45h-135l-45 45v90l45 45h90l-45 -45h-45v-90h135l45 45h90v-90h-90l-45 -45v-45h135v-90h-270v-45l45 -45h90v-45h180l45 45h45v45h45v90h45l45 -45h-45v-90
h-45l-45 -45h-45v-45h-225l-45 45h-90v45l-45 45h-45z" />
    <glyph glyph-name="uni044E" unicode="&#x44e;" horiz-adv-x="937" 
d="M810 405v45l-45 45h45l45 -45h45v-90h45v-45h-90v90h-45zM270 315v180h45v-90l45 45v45h90v-45h-45l-45 -45v-45l-45 -45h-45zM900 225v90l45 -45v-45h-45zM585 180h45v180l-45 -45v-135zM45 45v450h45v-450h180v90l45 45h45v-45l45 -45h45v-45h45l45 -45h135v45h135
l45 45v45l45 45v45l45 -45l-45 -45v-45l-45 -45v-45h-135l-45 -45h-180v45h-45l-45 45h-45v45l-45 45v-135h-225zM540 135v180l45 45v45h45l45 -45v-180l-45 -45h-90z" />
    <glyph glyph-name="uni044F" unicode="&#x44f;" horiz-adv-x="655" 
d="M585 450v45l45 -45h-45zM585 360v45l45 -45h-45zM585 270v45l45 -45h-45zM270 315h90v45h-45zM90 90v135h-45v180l45 45v45h45l45 45h405v-45h-405v-45h-45l-45 -45v-135h45v-180h-45zM585 180v45l45 -45h-45zM585 90v45l45 -45h-45zM45 45v45h45v-45h180v90h45l45 45h45
v-135h180l45 -45h-225l-45 45v45h-45v-90h-225zM270 270l-45 45l45 45v45h90l45 -45v-90h-135z" />
    <glyph glyph-name="uni0450" unicode="&#x450;" horiz-adv-x="623" 
d="M450 450v45h90v-45l45 -45v-45l45 -45h-45l-45 45v45l-45 45h-45zM90 0v45l-45 45v45l-45 45v180l45 45v45h45l45 45h45l-45 -45v-45h-45l-45 -45v-180l45 -45v-45l45 -45h90v-45h-135zM315 315l-45 45l45 45h45v-90h-45zM585 225v45l45 -45h-45zM225 -45v45h180l45 45
h45v45h45v45h-225l-45 45l45 45h270v-45h-45l45 -45v-90h-45l-45 -45h-45v-45h-225zM190 585v45h-45l-45 45h-45v90h45v-45h45v-45h45l45 -45h135l-45 45v45h-45l-45 45h90l45 -45v-45l45 -45l-45 -45h-180z" />
    <glyph glyph-name="uni0451" unicode="&#x451;" horiz-adv-x="623" 
d="M450 450v45h90v-45l45 -45v-45l45 -45h-45l-45 45v45l-45 45h-45zM90 0v45l-45 45v45l-45 45v180l45 45v45h45l45 45h45l-45 -45v-45h-45l-45 -45v-180l45 -45v-45l45 -45h90v-45h-135zM315 315l-45 45l45 45h45v-90h-45zM585 225v45l45 -45h-45zM225 -45v45h180l45 45
h45v45h45v45h-225l-45 45l45 45h270v-45h-45l45 -45v-90h-45l-45 -45h-45v-45h-225zM506 675v45l-45 45h45l45 -45v-45h-45zM101 585v180h45v-135h90v135h45v-135l-45 -45h-135zM326 585v180h45v-135h135v45l45 -45l-45 -45h-180z" />
    <glyph glyph-name="uni0452" unicode="&#x452;" horiz-adv-x="708" 
d="M630 315v90l45 -45v-45h-45zM630 225v90l45 -45v-45h-45zM630 135v90l45 -45v-45h-45zM630 45v90l45 -45v-45h-45zM630 45l45 -45v-45h-45v90zM45 45v450h-45v180h90v-45h-45v-90h45v-495h225v270l45 45h45v-45l45 -45v-270l-45 -45h-45v-135h90v45h135l45 45v45l45 -45
l-45 -45v-45h-135l-45 -45h-135v180l45 45h45v270l-45 45v-315h-270zM360 450l-45 45l45 45h45v90h-45l-45 45h90l45 -45v-90h90v-45h45l45 -45h45v-45h-90v45h-45l-45 45h-45v-45h-90z" />
    <glyph glyph-name="uni0453" unicode="&#x453;" horiz-adv-x="484" 
d="M450 360v90l45 -45v-45h-45zM45 0v540h405l45 -45v-45h-45v45h-360v-450h180v315h180l45 -45h-180v-270l-45 -45h-225zM155 585v90h45v90h135v-45h-90v-90h90v45h90l45 45v45l45 -45l-45 -45v-45h-90l-45 -45h-180z" />
    <glyph glyph-name="uni0454" unicode="&#x454;" horiz-adv-x="632" 
d="M90 0v45l-45 45v45l-45 45v180h45v90h45l45 45h45l-45 -45v-45h-45v-90h-45v-135l45 -45v-45l45 -45h90v-45h180l45 45h45v45h45l45 45v-90h-45l-45 -45h-45v-45h-225l-45 45h-90zM270 180l45 45h90v45h-45v45h-45l-45 45l45 45h90v-45h135v90h-45v45h90v-180h-135v-90
l-45 -45h180l45 -45h-315z" />
    <glyph glyph-name="uni0455" unicode="&#x455;" horiz-adv-x="590" 
d="M270 315v90h225v45h-45l-45 45h90l45 -45h45v-45h-45l45 -45h-135v-45h45l45 -45h45v-45h-90v45h-45l-45 45h-135zM540 135v90l45 -45v-45h-45zM540 90v45l45 -45h-45zM0 45v90l45 45h90l-45 45h-45v45l-45 45v90l45 45v45h90v-45h-45l-45 -45v-90l45 -45h45v-45h135
l45 -45l-45 -45h-225v-45h45v-45h90l45 -45h135v45h135l45 45v-90h-135l-45 -45h-180v45h-90l-45 45h-45z" />
    <glyph glyph-name="uni0456" unicode="&#x456;" horiz-adv-x="323" 
d="M270 630v90l45 -45v-45h-45zM270 360v90l45 -45v-45h-45zM270 270v90l45 -45v-45h-45zM270 180v90l45 -45v-45h-45zM270 90v90l45 -45v-45h-45zM45 0v720l45 45h225v-45h-225v-135h135v45h45l45 -45h-45l-45 -45h45l45 -45v-45h-45v45h-180v-450h180v45l45 -45l-45 -45
h-225z" />
    <glyph glyph-name="uni0457" unicode="&#x457;" horiz-adv-x="323" 
d="M270 360v90l45 -45v-45h-45zM270 270v90l45 -45zM270 180v90l45 -45v-45h-45zM270 90v90l45 -45v-45h-45zM45 0v540h225l45 -45v-45h-45v45h-180v-450h180v45l45 -45l-45 -45h-225zM357 675v45l-45 45h45l45 -45v-45h-45zM-48 585v180h45v-135h90v135h45v-135l-45 -45
h-135zM177 585v180h45v-135h135v45l45 -45l-45 -45h-180z" />
    <glyph glyph-name="uni0458" unicode="&#x458;" horiz-adv-x="345" 
d="M270 675v45h45v-45h-45zM270 585v90l45 -45v-45h-45zM270 405v90l45 -45v-45h-45zM270 315v90l45 -45v-45h-45zM45 225v270l45 45l-45 45v135h45v-135h180l45 -45v-45h-225v-270h-45zM270 225v90l45 -45v-45h-45zM270 135v90l45 -45v-45h-45zM270 45v90l45 -45v-45h-45z
M270 45l45 -45v-45h-45v90zM45 0v225l45 -45v-180l-45 -45h-90v-135h135v45h135v90h45l45 -45h-45v-90h-135l-45 -45h-180v180l45 45h90z" />
    <glyph glyph-name="uni0459" unicode="&#x459;" horiz-adv-x="943" 
d="M900 180v45l45 -45h-45zM0 45v180h90v270l45 45h495v-135h135l45 -45h90v-135h-45v90h-90v45h-135l-45 45v90h-450v-315h-90v-135h180l45 45v45l45 45v135l45 45h45v-315h405l45 45v45h45l45 -45h-45l-45 -45v-45h-450l-45 45v135l-45 -45v-45l-45 -45v-45h-225zM585 135
v90h90l45 -45l-45 -45h-90z" />
    <glyph glyph-name="uni045A" unicode="&#x45a;" horiz-adv-x="940" 
d="M45 0v540h225l45 -45v-135h45v180h225l45 -45v-90h180v-45h45l45 -45v-45l45 -45v-45h-45v45l-45 45v45h-45l-45 45h-180v135h-180v-180h-90l-45 45v135h-180v-450h180v135h90l45 -45v-90h405v45h45l45 45v45l45 -45l-45 -45v-45h-45l-45 -45h-450v135h-45v-90l-45 -45
h-225zM585 180l45 45h90v-90h-90z" />
    <glyph glyph-name="uni045B" unicode="&#x45b;" horiz-adv-x="740" 
d="M630 270v90l45 -45v-45h-45zM630 180v90l45 -45v-45h-45zM630 90v90l45 -45v-45h-45zM45 0v495l-45 45v90l45 45v45h270l45 -45h90v-135h45l45 -45h90v-45l45 -45v-45h-45v45l-45 45h-90v45h-45l-45 -45h-90v90h90v90h-90v45h-225l-45 -45v-90l45 -45v-450h225v315h45
l45 -45h45v-270h180v45l45 -45l-45 -45h-225v270h-45v-225l-45 -45h-270z" />
    <glyph glyph-name="uni045C" unicode="&#x45c;" horiz-adv-x="666" 
d="M270 45v135h45l45 -45v-45l45 -45h225l-45 45h-45v90h-45v180h45v90h45v45h-180l-45 -45v-45l-45 -45h-45v135h-180v-450h180zM45 0v540h225l45 -45v-45l45 45v45h225l45 -45v-90h-45v-90h-45v-90h45v-90h45v-45l45 -45l-45 -45h-270v45l-45 45v-45l-45 -45h-225z
M227 585v90h45v90h135v-45h-90v-90h90v45h90l45 45v45l45 -45l-45 -45v-45h-90l-45 -45h-180z" />
    <glyph glyph-name="uni045D" unicode="&#x45d;" horiz-adv-x="663" 
d="M630 360v90l45 -45v-45h-45zM630 270v90l45 -45v-45h-45zM630 180v90l45 -45v-45h-45zM630 90v90l45 -45zM630 45v45l45 -45h-45zM45 0v540h225l45 -45v-45h45l45 45v45h225l45 -45v-45h-45v45h-180l-45 -45v-45h-45v-90h-45l-45 45v135h-180v-450h180v45l45 45v45h45
l45 -45v-90h225v-45h-270v135l-45 -45v-45l-45 -45h-225zM231 585v45h-45l-45 45h-45v90h45v-45h45v-45h45l45 -45h135l-45 45v45h-45l-45 45h90l45 -45v-45l45 -45l-45 -45h-180z" />
    <glyph glyph-name="uni045E" unicode="&#x45e;" horiz-adv-x="631" 
d="M585 405v90l45 -45v-45h-45zM90 -45l45 45h45v90l-45 45v45l-45 45v45l-45 45v90h-45v90h45v-45h45v-135l45 -45v-45l45 -45v-45l45 -45v-90l-45 -45h-45v-135h90v45h90l45 45v45l45 45v45l45 45v135h45v90h45v90h45l45 -45h-45v-90h-45v-90h-45v-90l-45 -45v-45l-45 -45
v-45l-45 -45v-45h-90l-45 -45h-135v180zM270 315v45l-45 45v90h45v-90l45 -45v45h45v90h45v-135h-45v-90h-45zM479 675v90l45 -45v-45h-45zM254 675v90h45v-45h45v45h45v-45l-45 -45h-90zM164 585v45l-45 45v90h45v-90l45 -45h225v45h45l45 -45h-45l-45 -45h-270z" />
    <glyph glyph-name="uni045F" unicode="&#x45f;" horiz-adv-x="663" 
d="M585 405v90l45 -45v-45h-45zM585 315v90l45 -45v-45h-45zM270 135v360h45v-315h45v315h45v-315l-45 -45h-90zM585 225v90l45 -45v-45h-45zM585 135v90l45 -45v-45h-45zM585 45v90l45 -45v-45h-45zM45 45v450h45v-450h90l45 -45v-90h180v135h180l45 -45h-180v-90l-45 -45
h-225v135h-90z" />
    <glyph glyph-name="uni0462" unicode="&#x462;" horiz-adv-x="782" 
d="M720 270v90l45 -45v-45h-45zM720 180v90l45 -45v-45h-45zM405 270v-45h45v45h-45zM90 0v495h-45l-45 45v90l45 45h45v45h270l45 -45h180v-180h45v-45h45l45 -45h45v-45h-90v45h-45l-45 45h-225v90h180v90h-180v45h-225l-45 -45h-45v-90h45l45 -45v-450h495v45h45l45 45
v45l45 -45l-45 -45v-45h-45l-45 -45h-540zM360 180v90l45 45h90v-90l-45 -45h-90z" />
    <glyph glyph-name="uni0463" unicode="&#x463;" horiz-adv-x="642" 
d="M585 180v90l45 -45v-45h-45zM585 90v90l45 -45v-45h-45zM270 180l45 45h135v-90h-135zM45 0v450h-45v90l45 45v135h225l45 -45v-90h135v-90l-45 -45h-90v-45h180v-45h45l45 -45h45v-45h-90v45h-45l-45 45h-180v90l45 45h90v45h-135v135h-180v-90l-45 -45v-45h45v-450h450
v45h45l45 -45h-45l-45 -45h-495z" />
    <glyph glyph-name="uni046A" unicode="&#x46a;" horiz-adv-x="1008" 
d="M495 450l45 45h-45v-45zM720 360v90h45l45 45v45h45l45 45v45h45l45 -45h-45l-45 -45v-45h-45l-45 -45v-45h45v-45l45 -45h45v-90h45v-45h-90v90h-45v45l-45 45h-90zM0 0v180h45v90h45v90h45l45 45h45l-45 45v90l45 -45v-45l45 -45l-45 -45h-45v-45h-45v-90h-45v-90h-45
v-90h225v135h45l45 45h45v-180h180v135l45 45h90l-45 -45h-45v-135l-45 -45h-225v135h-45v-90l-45 -45h-270zM675 90v90l45 -45v-45l45 -45h225v-45h-270v45zM945 90v90l45 -45v-45h-45zM90 540v45l-45 45h-45v90h945l45 -45v-45h-45v45h-855v-45l45 -45h45l-45 -45h-45z
M405 450v90h135l45 -45l-45 -45v-45h-45l-45 45h-45z" />
    <glyph glyph-name="uni046B" unicode="&#x46b;" horiz-adv-x="1013" 
d="M450 360l45 -45v45h-45zM450 270v45l-45 45l45 45h135v-90h-45l-45 -45h-45zM0 0v90h45v90h45l45 45v45h90l45 45l-45 45h-45v90h-45v90h675l45 -45v-90h-45l-45 -45v-90h90l45 -45v-45l45 -45h45v-45h-90v45l-45 45v45h-90l-45 45v90l45 45v45h45v45h-585v-90h45v-45
l45 -45l-45 -45v-45h-90l-45 -45v-45h-45v-90h180v45h45v90h45l45 -45v-90h180v135h45l45 -45h45v-90h225v45l45 -45l-45 -45h-270v90h-45v-45l-45 -45h-225v45h-45l-45 -45h-270z" />
    <glyph glyph-name="uni0472" unicode="&#x472;" horiz-adv-x="742" 
d="M630 540v45l-45 45h-45v45h90v-45l45 -45v-45h-45zM675 495v45l45 -45h-45zM315 405l-45 45l45 45v45h90l45 -45v-90h-135zM675 405v45l45 -45h-45zM675 315v45l45 -45h-45zM675 225v45l45 -45h-45zM315 225h90v45h-90v-45zM45 90v90h-45v360h45v90h45l45 45h90l-45 -45
h-45v-45h-45v-90h-45v-270h45v-90h45v-45l45 -45h90v-45h180l45 45h90v45h45v90h45l45 -45h-45v-90h-45l-45 -45h-90v-45h-225l-45 45h-90v45l-45 45h-45zM315 450h90v45h-45zM270 180v90l45 45h135v-90l-45 -45h-135z" />
    <glyph glyph-name="uni0473" unicode="&#x473;" horiz-adv-x="642" 
d="M450 450v45h135v-45l45 -45h-45l-45 45h-90zM90 0v45l-45 45v45l-45 45v180l45 45v45l45 45h90l-45 -45h-45v-45l-45 -45v-180l45 -45v-45l45 -45h90v-45h180l45 45h45v45h45l45 45v-90h-45l-45 -45h-45v-45h-225l-45 45h-90zM585 315v45l45 -45h-45zM360 315v45h-45v-45
h45zM585 225v45l45 -45h-45zM585 135v45l45 -45h-45zM270 270v90l45 45h90v-90l-45 -45h-90zM270 90v90l45 45h90v-90h-45l-45 -45h-45z" />
    <glyph glyph-name="uni0474" unicode="&#x474;" horiz-adv-x="736" 
d="M720 540v90l45 -45v-45h-45zM720 495v45l45 -45h-45zM135 90v135l-45 45v135l-45 45v90h-45v180h180l45 -45h-180v-90h45v-135l45 -45v-135l45 -45v-90h45l-45 -45h-45zM180 0v90l45 -45h270v45l45 45v135h45v90l45 45v45l45 45h45v-45h-45v-45l-45 -45v-135h-45v-90
l-45 -45v-45l-45 -45h-315zM315 270v180h-45v180h-45v90l45 -45h45v-180h45v-45h45v90l45 45v45l45 45h45v45h180l45 -45v-45h-45v45h-135l-45 -45h-45v-45l-45 -45v-135h-45v-90l-45 -45h-45z" />
    <glyph glyph-name="uni0475" unicode="&#x475;" horiz-adv-x="630" 
d="M585 360v90l45 -45v-45h-45zM135 90v90h-45v90h-45v90h-45v180h225l45 -45v-90h45v-45l45 45v45l45 45v45h180l45 -45v-45h-45v45h-135l-45 -45v-45l-45 -45v-135h-45l-45 45v90h-45v135h-180v-90h45v-90h45v-90h45v-135l45 -45h180v45l45 45v45l45 45v135h90l45 -45h-90
v-90l-45 -45v-45l-45 -45v-45l-45 -45h-225v45z" />
    <glyph glyph-name="uni0490" unicode="&#x490;" horiz-adv-x="599" 
d="M540 720v90l45 -45v-45h-45zM540 630v90l45 -45v-45h-45zM540 540v90l45 -45v-45h-45zM45 0v720h270v90l45 45h225v-45h-225v-135h-270v-630h180v495h270l45 -45h-270v-450l-45 -45h-225z" />
    <glyph glyph-name="uni0491" unicode="&#x491;" horiz-adv-x="484" 
d="M450 540v45l-45 45h45l45 -45v-45h-45zM450 450v90l45 -45v-45h-45zM450 360v90l45 -45v-45h-45zM45 0v540h180v90h45v-135h-180v-450zM90 0v45h180v315h180l45 -45h-180v-270l-45 -45h-180z" />
    <glyph glyph-name="uni0492" unicode="&#x492;" horiz-adv-x="599" 
d="M0 270l-45 45v90h90v270l45 -45v-270h-90v-90zM45 45v180h-45v45h90v-225h180v180l45 45h45v45h45v45h-90l-45 45v90l45 45h225v135h-495l45 45h495v-180l-45 -45h-225v-90h90l45 -45v-90h-45l-45 -45h-45v-225h-225z" />
    </font>
</defs>
</svg>
